{
.formatVersion = 3;
axes = (
{
name = Weight;
tag = wght;
}
);
classes = (
{
code = "zero one two three four five six seven eight nine zero.lf one.lf two.lf three.lf four.lf five.lf six.lf seven.lf eight.lf nine.lf";
name = case;
},
{
code = "zero.osf one.osf two.osf three.osf four.osf five.osf six.osf seven.osf eight.osf nine.osf zero.tosf one.tosf two.tosf three.tosf four.tosf five.tosf six.tosf seven.tosf eight.tosf nine.tosf";
name = case_onum;
},
{
code = "gravecomb acutecomb circumflexcomb tildecomb macroncomb brevecomb dotaccentcomb dieresiscomb ringcomb hungarumlautcomb caroncomb commaturnedabovecomb hookabovecomb dblgravecomb breveinvertedcomb";
name = ccmp;
},
{
code = "zero.dnom one.dnom two.dnom three.dnom four.dnom five.dnom six.dnom seven.dnom eight.dnom nine.dnom";
name = dnom_frac;
},
{
code = "zero one two three four five six seven eight nine";
name = dnom_frac_lnum_numr_ordn;
},
{
code = "zero.numr one.numr two.numr three.numr four.numr five.numr six.numr seven.numr eight.numr nine.numr";
name = frac_numr;
},
{
code = "zero.osf one.osf two.osf three.osf four.osf five.osf six.osf seven.osf eight.osf nine.osf";
name = lnum;
},
{
code = "commaaccentcomb cedillacomb dotbelowcomb dieresisbelowcomb macronbelowcomb palatalhookcomb";
name = mkmk;
},
{
code = "gravecomb acutecomb circumflexcomb tildecomb macroncomb brevecomb dotaccentcomb dieresiscomb ringcomb hungarumlautcomb caroncomb commaturnedabovecomb hookabovecomb dblgravecomb breveinvertedcomb brevebelowcomb brevecomb_acutecomb brevecomb_gravecomb brevecomb_hookabovecomb brevecomb_tildecomb circumflexcomb_acutecomb circumflexcomb_gravecomb circumflexcomb_hookabovecomb circumflexcomb_tildecomb";
name = mkmk2;
},
{
code = "horncomb caroncomb.alt";
name = mkmk3;
},
{
code = "zero one two three four five six seven eight nine zero.tf one.tf two.tf three.tf four.tf five.tf six.tf seven.tf eight.tf nine.tf";
name = onum;
},
{

glyphs = (
{
glyphname = .notdef;
layers = (
{
layerId = "DC3AF673-8462-4C12-8448-8A8C8FBD5668";
shapes = (
{
closed = 1;
nodes = (
(442,350,l),
(602,190,l),
(560,148,l),
(400,308,l),
(240,148,l),
(198,190,l),
(357,350,l),
(198,510,l),
(240,552,l),
(400,392,l),
(560,552,l),
(602,510,l)
);
},
{
closed = 1;
nodes = (
(759,700,l),
(759,0,l),
(40,0,l),
(40,700,l)
);
},
{
closed = 1;
nodes = (
(652,603,l),
(148,603,l),
(148,98,l),
(652,98,l)
);
}
);
width = 799;
},
{
layerId = "99EE65B6-DAB1-4E31-8CA0-6E6C34D1775F";
shapes = (
{
closed = 1;
nodes = (
(434,350,l),
(594,190,l),
(560,156,l),
(400,316,l),
(240,156,l),
(206,190,l),
(365,350,l),
(206,510,l),
(240,544,l),
(400,384,l),
(560,544,l),
(594,510,l)
);
},
{
closed = 1;
nodes = (
(759,700,l),
(759,0,l),
(40,0,l),
(40,700,l)
);
},
{
closed = 1;
nodes = (
(691,634,l),
(109,634,l),
(109,59,l),
(691,59,l)
);
}
);
width = 799;
},
{
layerId = "754F3D2A-C810-4C1B-8FE5-1769993D30C0";
shapes = (
{
closed = 1;
nodes = (
(429,350,l),
(589,190,l),
(560,161,l),
(400,321,l),
(240,161,l),
(211,190,l),
(370,350,l),
(211,510,l),
(240,539,l),
(400,379,l),
(560,539,l),
(589,510,l)
);
},
{
closed = 1;
nodes = (
(759,700,l),
(759,0,l),
(40,0,l),
(40,700,l)
);
},
{
closed = 1;
nodes = (
(714,653,l),
(86,653,l),
(86,36,l),
(714,36,l)
);
}
);
width = 799;
}
);
},
{
glyphname = A;
layers = (
{
anchors = (
{
name = m.uni0321_3;
position = "{391, 20}";
},
{
name = t.uni0308_1_3;
position = "{390, 700}";
},
{
name = m.uni0328_3;
position = "{660, 0}";
}
);
layerId = "DC3AF673-8462-4C12-8448-8A8C8FBD5668";
shapes = (
{
closed = 1;
nodes = (
(602,283,l),
(602,141,l),
(185,141,l),
(185,283,l)
);
},
{
closed = 1;
nodes = (
(778,0,l),
(582,0,l),
(393,536,l),
(205,0,l),
(8,0,l),
(290,700,l),
(497,700,l)
);
}
);
width = 787;
},
{
anchors = (
{
name = m.uni0321_3;
position = "{391, 20}";
},
{
name = t.uni0308_1_3;
position = "{390, 700}";
},
{
name = m.uni0328_3;
position = "{660, 0}";
}
);
layerId = "99EE65B6-DAB1-4E31-8CA0-6E6C34D1775F";
shapes = (
{
closed = 1;
nodes = (
(594,260,l),
(594,172,l),
(162,172,l),
(162,260,l)
);
},
{
closed = 1;
nodes = (
(739,0,l),
(621,0,l),
(377,599,l),
(135,0,l),
(16,0,l),
(314,700,l),
(441,700,l)
);
}
);
width = 756;
},
{
anchors = (
{
name = m.uni0321_3;
position = "{391, 20}";
},
{
name = t.uni0308_1_3;
position = "{390, 700}";
},
{
name = m.uni0328_3;
position = "{660, 0}";
}
);
layerId = "754F3D2A-C810-4C1B-8FE5-1769993D30C0";
shapes = (
{
closed = 1;
nodes = (
(589,246,l),
(589,191,l),
(148,191,l),
(148,246,l)
);
},
{
closed = 1;
nodes = (
(716,0,l),
(644,0,l),
(368,636,l),
(93,0,l),
(21,0,l),
(329,700,l),
(408,700,l)
);
}
);
width = 737;
}
);
leftKerningGroup = A;
rightKerningGroup = A2;
unicode = 65;
},
{
glyphname = B;
layers = (
{
layerId = "DC3AF673-8462-4C12-8448-8A8C8FBD5668";
shapes = (
{
closed = 1;
nodes = (
(236,153,l),
(370,153,ls),
(435,153,o),
(468,177,o),
(468,219,cs),
(468,258,o),
(435,285,o),
(370,285,cs),
(236,285,l),
(236,427,l),
(350,427,ls),
(413,427,o),
(440,447,o),
(440,486,cs),
(440,526,o),
(412,547,o),
(350,547,cs),
(236,547,l),
(236,700,l),
(350,700,ls),
(406,700,o),
(453,692,o),
(493,677,cs),
(574,647,o),
(615,590,o),
(615,516,cs),
(615,490,o),
(609,466,o),
(596,444,cs),
(571,400,o),
(522,371,o),
(472,368,c),
(471,383,l),
(507,377,o),
(538,366,o),
(563,351,c),
(614,318,o),
(643,267,o),
(643,198,cs),
(643,82,o),
(550,0,o),
(370,0,cs),
(236,0,l)
);
},
{
closed = 1;
nodes = (
(77,700,l),
(252,700,l),
(252,0,l),
(77,0,l)
);
}
);
width = 682;
},
{
layerId = "99EE65B6-DAB1-4E31-8CA0-6E6C34D1775F";
shapes = (
{
closed = 1;
nodes = (
(182,91,l),
(370,91,ls),
(469,91,o),
(523,134,o),
(523,205,cs),
(523,272,o),
(469,316,o),
(370,316,cs),
(182,316,l),
(182,404,l),
(350,404,ls),
(435,404,o),
(487,445,o),
(487,508,cs),
(487,569,o),
(440,609,o),
(350,609,cs),
(182,609,l),
(182,700,l),
(350,700,ls),
(404,700,o),
(447,692,o),
(484,676,cs),
(557,644,o),
(592,586,o),
(592,518,cs),
(592,491,o),
(585,466,o),
(572,444,cs),
(545,400,o),
(497,372,o),
(445,369,c),
(443,379,l),
(479,376,o),
(511,368,o),
(539,353,cs),
(595,323,o),
(627,268,o),
(627,198,cs),
(627,79,o),
(534,0,o),
(370,0,cs),
(182,0,l)
);
},
{
closed = 1;
nodes = (
(93,700,l),
(197,700,l),
(197,0,l),
(93,0,l)
);
}
);
width = 674;
},
{
layerId = "754F3D2A-C810-4C1B-8FE5-1769993D30C0";
shapes = (
{
closed = 1;
nodes = (
(149,53,l),
(370,53,ls),
(490,53,o),
(556,108,o),
(556,197,cs),
(556,281,o),
(490,335,o),
(370,335,cs),
(149,335,l),
(149,390,l),
(350,390,ls),
(448,390,o),
(515,443,o),
(515,521,cs),
(515,595,o),
(456,646,o),
(350,646,cs),
(149,646,l),
(149,700,l),
(350,700,ls),
(402,700,o),
(444,692,o),
(479,675,cs),
(547,642,o),
(578,584,o),
(578,519,cs),
(578,491,o),
(570,466,o),
(557,444,cs),
(529,400,o),
(482,373,o),
(429,369,c),
(426,376,l),
(462,376,o),
(495,369,o),
(524,354,c),
(583,326,o),
(618,269,o),
(618,198,cs),
(618,77,o),
(525,0,o),
(370,0,cs),
(149,0,l)
);
},
{
closed = 1;
nodes = (
(102,700,l),
(164,700,l),
(164,0,l),
(102,0,l)
);
}
);
width = 669;
}
);
leftKerningGroup = B;
unicode = 66;
},
{
glyphname = C;
layers = (
{
anchors = (
{
name = m.uni0321_3;
position = "{410, 0}";
},
{
name = t.uni0308_1_3;
position = "{410, 710}";
}
);
layerId = "DC3AF673-8462-4C12-8448-8A8C8FBD5668";
shapes = (
{
closed = 1;
nodes = (
(335,-10,o),
(270,5,o),
(214,35,cs),
(102,95,o),
(38,207,o),
(38,350,cs),
(38,421,o),
(53,484,o),
(84,539,cs),
(145,647,o),
(261,710,o),
(408,710,cs),
(482,710,o),
(548,692,o),
(605,656,cs),
(662,620,o),
(702,570,o),
(728,507,c),
(587,424,l),
(554,511,o),
(491,557,o),
(408,557,cs),
(370,557,o),
(336,548,o),
(307,531,cs),
(248,497,o),
(213,432,o),
(213,350,cs),
(213,310,o),
(222,273,o),
(239,242,c),
(271,179,o),
(331,143,o),
(408,143,cs),
(495,143,o),
(560,190,o),
(585,268,c),
(726,189,l),
(701,128,o),
(661,79,o),
(604,44,cs),
(547,8,o),
(482,-10,o),
(408,-10,cs)
);
}
);
width = 766;
},
{
anchors = (
{
name = m.uni0321_3;
position = "{410, 0}";
},
{
name = t.uni0308_1_3;
position = "{410, 710}";
}
);
layerId = "99EE65B6-DAB1-4E31-8CA0-6E6C34D1775F";
shapes = (
{
closed = 1;
nodes = (
(343,-10,o),
(278,5,o),
(222,35,cs),
(110,95,o),
(46,207,o),
(46,350,cs),
(46,421,o),
(61,484,o),
(92,539,cs),
(153,647,o),
(269,710,o),
(416,710,cs),
(489,710,o),
(554,693,o),
(611,660,cs),
(668,626,o),
(710,579,o),
(739,520,c),
(653,470,l),
(610,565,o),
(523,620,o),
(416,620,cs),
(364,620,o),
(317,608,o),
(278,586,cs),
(197,541,o),
(151,457,o),
(151,350,cs),
(151,298,o),
(163,250,o),
(185,210,cs),
(229,128,o),
(311,81,o),
(416,81,cs),
(524,81,o),
(612,136,o),
(653,228,c),
(739,178,l),
(710,120,o),
(668,73,o),
(611,41,c),
(554,7,o),
(489,-10,o),
(416,-10,cs)
);
}
);
width = 785;
},
{
anchors = (
{
name = m.uni0321_3;
position = "{410, 0}";
},
{
name = t.uni0308_1_3;
position = "{410, 710}";
}
);
layerId = "754F3D2A-C810-4C1B-8FE5-1769993D30C0";
shapes = (
{
closed = 1;
nodes = (
(348,-10,o),
(283,5,o),
(227,35,cs),
(115,95,o),
(51,207,o),
(51,350,cs),
(51,421,o),
(66,484,o),
(97,539,cs),
(158,647,o),
(274,710,o),
(421,710,cs),
(493,710,o),
(558,694,o),
(615,662,cs),
(672,630,o),
(715,585,o),
(746,528,c),
(693,497,l),
(643,597,o),
(542,657,o),
(421,657,cs),
(360,657,o),
(306,644,o),
(260,619,cs),
(167,568,o),
(113,472,o),
(113,350,cs),
(113,290,o),
(127,236,o),
(152,190,cs),
(204,97,o),
(299,43,o),
(421,43,cs),
(542,43,o),
(643,103,o),
(693,204,c),
(746,172,l),
(715,115,o),
(672,70,o),
(615,39,c),
(558,6,o),
(493,-10,o),
(421,-10,cs)
);
}
);
width = 797;
}
);
leftKerningGroup = C2;
rightKerningGroup = C;
unicode = 67;
},
{
glyphname = D;
layers = (
{
layerId = "DC3AF673-8462-4C12-8448-8A8C8FBD5668";
shapes = (
{
closed = 1;
nodes = (
(77,700,l),
(360,700,ls),
(435,700,o),
(503,686,o),
(560,657,cs),
(675,599,o),
(742,489,o),
(742,350,cs),
(742,281,o),
(726,220,o),
(695,167,c),
(630,61,o),
(512,0,o),
(360,0,cs),
(77,0,l)
);
},
{
closed = 1;
nodes = (
(360,165,ls),
(398,165,o),
(432,172,o),
(462,188,cs),
(522,219,o),
(555,277,o),
(555,350,cs),
(555,386,o),
(547,418,o),
(531,447,c),
(498,503,o),
(437,535,o),
(360,535,cs),
(252,535,l),
(252,165,l)
);
}
);
width = 780;
},
{
layerId = "99EE65B6-DAB1-4E31-8CA0-6E6C34D1775F";
shapes = (
{
closed = 1;
nodes = (
(93,700,l),
(360,700,ls),
(434,700,o),
(500,686,o),
(556,657,cs),
(669,599,o),
(734,489,o),
(734,350,cs),
(734,281,o),
(719,220,o),
(688,167,cs),
(626,61,o),
(509,0,o),
(360,0,cs),
(93,0,l)
);
},
{
closed = 1;
nodes = (
(360,95,ls),
(412,95,o),
(459,105,o),
(499,126,cs),
(580,169,o),
(626,249,o),
(626,350,cs),
(626,400,o),
(615,445,o),
(593,484,cs),
(548,561,o),
(465,606,o),
(360,606,cs),
(197,606,l),
(197,95,l)
);
}
);
width = 780;
},
{
layerId = "754F3D2A-C810-4C1B-8FE5-1769993D30C0";
shapes = (
{
closed = 1;
nodes = (
(102,700,l),
(360,700,ls),
(433,700,o),
(498,686,o),
(554,657,cs),
(665,599,o),
(729,489,o),
(729,350,cs),
(729,281,o),
(714,220,o),
(683,167,cs),
(623,61,o),
(507,0,o),
(360,0,cs),
(102,0,l)
);
},
{
closed = 1;
nodes = (
(360,53,ls),
(421,53,o),
(475,65,o),
(521,89,cs),
(614,139,o),
(668,232,o),
(668,350,cs),
(668,409,o),
(655,461,o),
(630,506,cs),
(578,596,o),
(482,648,o),
(360,648,cs),
(164,648,l),
(164,53,l)
);
}
);
width = 780;
}
);
leftKerningGroup = B;
rightKerningGroup = D;
unicode = 68;
},
{
glyphname = E;
layers = (
{
anchors = (
{
name = m.uni0321_3;
position = "{338, 0}";
},
{
name = t.uni0308_1_3;
position = "{314, 700}";
},
{
name = m.uni0328_3;
position = "{450, 0}";
}
);
layerId = "DC3AF673-8462-4C12-8448-8A8C8FBD5668";
shapes = (
{
closed = 1;
nodes = (
(543,700,l),
(543,547,l),
(207,547,l),
(252,592,l),
(252,108,l),
(207,153,l),
(543,153,l),
(543,0,l),
(77,0,l),
(77,700,l)
);
},
{
closed = 1;
nodes = (
(543,438,l),
(543,284,l),
(117,284,l),
(117,438,l)
);
}
);
width = 605;
},
{
anchors = (
{
name = m.uni0321_3;
position = "{338, 0}";
},
{
name = t.uni0308_1_3;
position = "{314, 700}";
},
{
name = m.uni0328_3;
position = "{450, 0}";
}
);
layerId = "99EE65B6-DAB1-4E31-8CA0-6E6C34D1775F";
shapes = (
{
closed = 1;
nodes = (
(527,700,l),
(527,610,l),
(152,610,l),
(197,655,l),
(197,46,l),
(152,91,l),
(527,91,l),
(527,0,l),
(93,0,l),
(93,700,l)
);
},
{
closed = 1;
nodes = (
(527,402,l),
(527,312,l),
(133,312,l),
(133,402,l)
);
}
);
width = 602;
},
{
anchors = (
{
name = m.uni0321_3;
position = "{338, 0}";
},
{
name = t.uni0308_1_3;
position = "{314, 700}";
},
{
name = m.uni0328_3;
position = "{450, 0}";
}
);
layerId = "754F3D2A-C810-4C1B-8FE5-1769993D30C0";
shapes = (
{
closed = 1;
nodes = (
(518,700,l),
(518,647,l),
(119,647,l),
(164,692,l),
(164,8,l),
(119,53,l),
(518,53,l),
(518,0,l),
(102,0,l),
(102,700,l)
);
},
{
closed = 1;
nodes = (
(518,381,l),
(518,328,l),
(142,328,l),
(142,381,l)
);
}
);
width = 600;
}
);
leftKerningGroup = B;
rightKerningGroup = E;
unicode = 69;
},
{
glyphname = F;
layers = (
{
layerId = "DC3AF673-8462-4C12-8448-8A8C8FBD5668";
shapes = (
{
closed = 1;
nodes = (
(523,700,l),
(523,547,l),
(207,547,l),
(252,592,l),
(252,0,l),
(77,0,l),
(77,700,l)
);
},
{
closed = 1;
nodes = (
(523,438,l),
(523,284,l),
(117,284,l),
(117,438,l)
);
}
);
width = 572;
},
{
layerId = "99EE65B6-DAB1-4E31-8CA0-6E6C34D1775F";
shapes = (
{
closed = 1;
nodes = (
(507,700,l),
(507,610,l),
(152,610,l),
(197,655,l),
(197,0,l),
(93,0,l),
(93,700,l)
);
},
{
closed = 1;
nodes = (
(507,402,l),
(507,312,l),
(133,312,l),
(133,402,l)
);
}
);
width = 566;
},
{
layerId = "754F3D2A-C810-4C1B-8FE5-1769993D30C0";
shapes = (
{
closed = 1;
nodes = (
(498,700,l),
(498,647,l),
(119,647,l),
(164,692,l),
(164,0,l),
(102,0,l),
(102,700,l)
);
},
{
closed = 1;
nodes = (
(498,381,l),
(498,328,l),
(142,328,l),
(142,381,l)
);
}
);
width = 563;
}
);
leftKerningGroup = B;
unicode = 70;
},
{
glyphname = G;
layers = (
{
anchors = (
{
name = m.uni0321_3;
position = "{410, 0}";
},
{
name = t.uni0308_1_3;
position = "{410, 710}";
}
);
layerId = "DC3AF673-8462-4C12-8448-8A8C8FBD5668";
shapes = (
{
closed = 1;
nodes = (
(407,406,l),
(760,406,l),
(760,336,ls),
(760,269,o),
(745,208,o),
(716,156,cs),
(657,52,o),
(547,-10,o),
(408,-10,cs),
(335,-10,o),
(270,5,o),
(214,35,cs),
(102,95,o),
(38,207,o),
(38,350,cs),
(38,421,o),
(53,484,o),
(84,539,cs),
(145,647,o),
(261,710,o),
(408,710,cs),
(478,710,o),
(541,694,o),
(599,661,cs),
(656,628,o),
(699,582,o),
(729,525,c),
(587,439,l),
(554,510,o),
(484,557,o),
(408,557,cs),
(370,557,o),
(336,548,o),
(307,531,cs),
(248,497,o),
(213,432,o),
(213,350,cs),
(213,310,o),
(222,273,o),
(239,242,c),
(271,179,o),
(331,143,o),
(408,143,cs),
(443,143,o),
(474,150,o),
(501,162,cs),
(554,186,o),
(585,232,o),
(584,290,c),
(606,252,l),
(407,252,l)
);
}
);
width = 799;
},
{
anchors = (
{
name = m.uni0321_3;
position = "{410, 0}";
},
{
name = t.uni0308_1_3;
position = "{410, 710}";
}
);
layerId = "99EE65B6-DAB1-4E31-8CA0-6E6C34D1775F";
shapes = (
{
closed = 1;
nodes = (
(431,375,l),
(768,375,l),
(768,332,ls),
(768,266,o),
(753,207,o),
(724,155,cs),
(665,52,o),
(555,-10,o),
(416,-10,cs),
(343,-10,o),
(278,5,o),
(222,35,cs),
(110,95,o),
(46,207,o),
(46,350,cs),
(46,421,o),
(61,484,o),
(92,539,cs),
(153,647,o),
(269,710,o),
(416,710,cs),
(486,710,o),
(549,694,o),
(605,661,cs),
(661,628,o),
(704,583,o),
(734,526,c),
(645,478,l),
(602,566,o),
(516,620,o),
(416,620,cs),
(364,620,o),
(317,608,o),
(278,586,cs),
(197,541,o),
(151,457,o),
(151,350,cs),
(151,298,o),
(163,250,o),
(185,210,cs),
(229,128,o),
(311,81,o),
(416,81,cs),
(466,81,o),
(510,91,o),
(548,111,cs),
(623,149,o),
(666,221,o),
(666,314,c),
(700,283,l),
(431,283,l)
);
}
);
width = 815;
},
{
anchors = (
{
name = m.uni0321_3;
position = "{410, 0}";
},
{
name = t.uni0308_1_3;
position = "{410, 710}";
}
);
layerId = "754F3D2A-C810-4C1B-8FE5-1769993D30C0";
shapes = (
{
closed = 1;
nodes = (
(445,356,l),
(773,356,l),
(773,329,ls),
(773,264,o),
(758,206,o),
(729,155,cs),
(670,52,o),
(560,-10,o),
(421,-10,cs),
(348,-10,o),
(283,5,o),
(227,35,cs),
(115,95,o),
(51,207,o),
(51,350,cs),
(51,421,o),
(66,484,o),
(97,539,cs),
(158,647,o),
(274,710,o),
(421,710,cs),
(491,710,o),
(554,694,o),
(609,661,cs),
(664,628,o),
(707,584,o),
(737,527,c),
(680,501,l),
(631,599,o),
(535,657,o),
(421,657,cs),
(360,657,o),
(306,644,o),
(260,619,cs),
(167,568,o),
(113,472,o),
(113,350,cs),
(113,290,o),
(127,236,o),
(152,190,cs),
(204,97,o),
(299,43,o),
(421,43,cs),
(479,43,o),
(532,56,o),
(576,80,cs),
(665,127,o),
(715,215,o),
(715,328,c),
(756,302,l),
(445,302,l)
);
}
);
width = 824;
}
);
leftKerningGroup = C2;
rightKerningGroup = D;
unicode = 71;
},
{
glyphname = H;
layers = (
{
anchors = (
{
name = m.uni0321_3;
position = "{404, -3}";
},
{
name = t.uni0308_1_3;
position = "{398, 700}";
},
{
name = t.uni0335_2;
position = "{402, 560}";
}
);
layerId = "DC3AF673-8462-4C12-8448-8A8C8FBD5668";
shapes = (
{
closed = 1;
nodes = (
(723,700,l),
(723,0,l),
(548,0,l),
(548,700,l)
);
},
{
closed = 1;
nodes = (
(565,438,l),
(565,284,l),
(236,284,l),
(236,438,l)
);
},
{
closed = 1;
nodes = (
(77,0,l),
(77,700,l),
(252,700,l),
(252,0,l)
);
}
);
width = 800;
},
{
anchors = (
{
name = m.uni0321_3;
position = "{404, -3}";
},
{
name = t.uni0308_1_3;
position = "{398, 700}";
},
{
name = t.uni0335_2;
position = "{402, 560}";
}
);
layerId = "99EE65B6-DAB1-4E31-8CA0-6E6C34D1775F";
shapes = (
{
closed = 1;
nodes = (
(707,700,l),
(707,0,l),
(603,0,l),
(603,700,l)
);
},
{
closed = 1;
nodes = (
(619,402,l),
(619,312,l),
(182,312,l),
(182,402,l)
);
},
{
closed = 1;
nodes = (
(93,0,l),
(93,700,l),
(197,700,l),
(197,0,l)
);
}
);
width = 800;
},
{
anchors = (
{
name = m.uni0321_3;
position = "{404, -3}";
},
{
name = t.uni0308_1_3;
position = "{398, 700}";
},
{
name = t.uni0335_2;
position = "{402, 560}";
}
);
layerId = "754F3D2A-C810-4C1B-8FE5-1769993D30C0";
shapes = (
{
closed = 1;
nodes = (
(698,700,l),
(698,0,l),
(636,0,l),
(636,700,l)
);
},
{
closed = 1;
nodes = (
(651,381,l),
(651,328,l),
(149,328,l),
(149,381,l)
);
},
{
closed = 1;
nodes = (
(102,0,l),
(102,700,l),
(164,700,l),
(164,0,l)
);
}
);
width = 800;
}
);
leftKerningGroup = B;
rightKerningGroup = H;
unicode = 72;
},
{
glyphname = I;
layers = (
{
anchors = (
{
name = m.uni0321_3;
position = "{161, 0}";
},
{
name = t.uni0308_1_3;
position = "{159, 700}";
},
{
name = m.uni0328_3;
position = "{169, 0}";
}
);
layerId = "DC3AF673-8462-4C12-8448-8A8C8FBD5668";
shapes = (
{
closed = 1;
nodes = (
(252,700,l),
(252,0,l),
(77,0,l),
(77,700,l)
);
}
);
width = 328;
},
{
anchors = (
{
name = m.uni0321_3;
position = "{161, 0}";
},
{
name = t.uni0308_1_3;
position = "{159, 700}";
},
{
name = m.uni0328_3;
position = "{169, 0}";
}
);
layerId = "99EE65B6-DAB1-4E31-8CA0-6E6C34D1775F";
shapes = (
{
closed = 1;
nodes = (
(197,700,l),
(197,0,l),
(93,0,l),
(93,700,l)
);
}
);
width = 289;
},
{
anchors = (
{
name = m.uni0321_3;
position = "{161, 0}";
},
{
name = t.uni0308_1_3;
position = "{159, 700}";
},
{
name = m.uni0328_3;
position = "{169, 0}";
}
);
layerId = "754F3D2A-C810-4C1B-8FE5-1769993D30C0";
shapes = (
{
closed = 1;
nodes = (
(164,700,l),
(164,0,l),
(102,0,l),
(102,700,l)
);
}
);
width = 266;
}
);
leftKerningGroup = B;
rightKerningGroup = H;
unicode = 73;
},
{
glyphname = J;
rightMetricsKey = I;
widthMetricsKey = I;
layers = (
{
layerId = "DC3AF673-8462-4C12-8448-8A8C8FBD5668";
shapes = (
{
closed = 1;
nodes = (
(-15,-20,l),
(46,-3,o),
(77,38,o),
(77,103,cs),
(77,700,l),
(252,700,l),
(252,103,ls),
(252,-34,o),
(190,-120,o),
(64,-150,c)
);
}
);
width = 328;
},
{
layerId = "99EE65B6-DAB1-4E31-8CA0-6E6C34D1775F";
shapes = (
{
closed = 1;
nodes = (
(8,-66,l),
(63,-56,o),
(92,-20,o),
(92,41,cs),
(92,700,l),
(197,700,l),
(197,41,ls),
(197,-68,o),
(148,-126,o),
(48,-149,c)
);
}
);
width = 289;
},
{
layerId = "754F3D2A-C810-4C1B-8FE5-1769993D30C0";
shapes = (
{
closed = 1;
nodes = (
(21,-94,l),
(73,-87,o),
(100,-54,o),
(100,4,cs),
(100,700,l),
(164,700,l),
(164,4,ls),
(164,-89,o),
(123,-129,o),
(38,-149,c)
);
}
);
width = 266;
}
);
leftKerningGroup = J;
rightKerningGroup = J1;
unicode = 74;
},
{
glyphname = K;
layers = (
{
anchors = (
{
name = m.uni0321_3;
position = "{354, 0}";
},
{
name = t.uni0308_1_3;
position = "{348, 700}";
}
);
layerId = "DC3AF673-8462-4C12-8448-8A8C8FBD5668";
shapes = (
{
closed = 1;
nodes = (
(408,360,l),
(373,340,l),
(177,155,l),
(177,328,l),
(493,700,l),
(712,700,l)
);
},
{
closed = 1;
nodes = (
(432,451,l),
(752,0,l),
(533,0,l),
(309,330,l)
);
},
{
closed = 1;
nodes = (
(252,700,l),
(252,0,l),
(77,0,l),
(77,700,l)
);
}
);
width = 760;
},
{
anchors = (
{
name = m.uni0321_3;
position = "{354, 0}";
},
{
name = t.uni0308_1_3;
position = "{348, 700}";
}
);
layerId = "99EE65B6-DAB1-4E31-8CA0-6E6C34D1775F";
shapes = (
{
closed = 1;
nodes = (
(367,380,l),
(344,365,l),
(146,165,l),
(146,278,l),
(524,700,l),
(657,700,l)
);
},
{
closed = 1;
nodes = (
(379,434,l),
(697,0,l),
(564,0,l),
(307,364,l)
);
},
{
closed = 1;
nodes = (
(197,700,l),
(197,0,l),
(93,0,l),
(93,700,l)
);
}
);
width = 713;
},
{
anchors = (
{
name = m.uni0321_3;
position = "{354, 0}";
},
{
name = t.uni0308_1_3;
position = "{348, 700}";
}
);
layerId = "754F3D2A-C810-4C1B-8FE5-1769993D30C0";
shapes = (
{
closed = 1;
nodes = (
(342,392,l),
(327,380,l),
(127,171,l),
(127,248,l),
(543,700,l),
(624,700,l)
);
},
{
closed = 1;
nodes = (
(347,423,l),
(664,0,l),
(583,0,l),
(305,384,l)
);
},
{
closed = 1;
nodes = (
(164,700,l),
(164,0,l),
(102,0,l),
(102,700,l)
);
}
);
width = 685;
}
);
leftKerningGroup = B;
rightKerningGroup = K;
unicode = 75;
},
{
glyphname = L;
layers = (
{
anchors = (
{
name = m.uni0321_3;
position = "{302, 0}";
},
{
name = t.uni0308_1_3;
position = "{158, 700}";
},
{
name = t.uni0335_2;
position = "{166, 392}";
},
{
name = t.uni031B_3;
position = "{447, 760}";
}
);
layerId = "DC3AF673-8462-4C12-8448-8A8C8FBD5668";
shapes = (
{
closed = 1;
nodes = (
(77,700,l),
(252,700,l),
(252,108,l),
(207,153,l),
(543,153,l),
(543,0,l),
(77,0,l)
);
}
);
width = 552;
},
{
anchors = (
{
name = m.uni0321_3;
position = "{302, 0}";
},
{
name = t.uni0308_1_3;
position = "{158, 700}";
},
{
name = t.uni0335_2;
position = "{166, 392}";
},
{
name = t.uni031B_3;
position = "{447, 760}";
}
);
layerId = "99EE65B6-DAB1-4E31-8CA0-6E6C34D1775F";
shapes = (
{
closed = 1;
nodes = (
(93,700,l),
(197,700,l),
(197,46,l),
(152,91,l),
(527,91,l),
(527,0,l),
(93,0,l)
);
}
);
width = 544;
},
{
anchors = (
{
name = m.uni0321_3;
position = "{302, 0}";
},
{
name = t.uni0308_1_3;
position = "{158, 700}";
},
{
name = t.uni0335_2;
position = "{166, 392}";
},
{
name = t.uni031B_3;
position = "{447, 760}";
}
);
layerId = "754F3D2A-C810-4C1B-8FE5-1769993D30C0";
shapes = (
{
closed = 1;
nodes = (
(102,700,l),
(164,700,l),
(164,8,l),
(119,53,l),
(518,53,l),
(518,0,l),
(102,0,l)
);
}
);
width = 539;
}
);
leftKerningGroup = B;
rightKerningGroup = L;
unicode = 76;
},
{
glyphname = M;
layers = (
{
layerId = "DC3AF673-8462-4C12-8448-8A8C8FBD5668";
shapes = (
{
closed = 1;
nodes = (
(890,700,l),
(890,0,l),
(715,0,l),
(715,460,l),
(538,0,l),
(428,0,l),
(252,460,l),
(252,0,l),
(77,0,l),
(77,700,l),
(283,700,l),
(483,237,l),
(683,700,l)
);
}
);
width = 967;
},
{
layerId = "99EE65B6-DAB1-4E31-8CA0-6E6C34D1775F";
shapes = (
{
closed = 1;
nodes = (
(843,700,l),
(843,0,l),
(739,0,l),
(739,554,l),
(499,0,l),
(436,0,l),
(197,554,l),
(197,0,l),
(93,0,l),
(93,700,l),
(221,700,l),
(467,159,l),
(714,700,l)
);
}
);
width = 936;
},
{
layerId = "754F3D2A-C810-4C1B-8FE5-1769993D30C0";
shapes = (
{
closed = 1;
nodes = (
(815,700,l),
(815,0,l),
(753,0,l),
(753,610,l),
(476,0,l),
(441,0,l),
(164,610,l),
(164,0,l),
(102,0,l),
(102,700,l),
(183,700,l),
(458,112,l),
(733,700,l)
);
}
);
width = 917;
}
);
leftKerningGroup = B1;
rightKerningGroup = H;
unicode = 77;
},
{
glyphname = N;
layers = (
{
layerId = "DC3AF673-8462-4C12-8448-8A8C8FBD5668";
shapes = (
{
closed = 1;
nodes = (
(770,700,l),
(770,0,l),
(585,0,l),
(252,462,l),
(252,0,l),
(77,0,l),
(77,700,l),
(263,700,l),
(595,240,l),
(595,700,l)
);
}
);
width = 847;
},
{
layerId = "99EE65B6-DAB1-4E31-8CA0-6E6C34D1775F";
shapes = (
{
closed = 1;
nodes = (
(723,700,l),
(723,0,l),
(609,0,l),
(197,548,l),
(197,0,l),
(93,0,l),
(93,700,l),
(201,700,l),
(619,146,l),
(619,700,l)
);
}
);
width = 816;
},
{
layerId = "754F3D2A-C810-4C1B-8FE5-1769993D30C0";
shapes = (
{
closed = 1;
nodes = (
(695,700,l),
(695,0,l),
(623,0,l),
(164,599,l),
(164,0,l),
(102,0,l),
(102,700,l),
(163,700,l),
(633,90,l),
(633,700,l)
);
}
);
width = 797;
}
);
leftKerningGroup = B;
rightKerningGroup = H;
unicode = 78;
},
{
glyphname = O;
layers = (
{
anchors = (
{
name = m.uni0321_3;
position = "{410, 0}";
},
{
name = t.uni0308_1_3;
position = "{410, 710}";
},
{
name = t.uni0335_2;
position = "{413, 350}";
},
{
name = m.uni0328_3;
position = "{410, -10}";
},
{
name = t.uni031B_3;
position = "{681, 589}";
}
);
layerId = "DC3AF673-8462-4C12-8448-8A8C8FBD5668";
shapes = (
{
closed = 1;
nodes = (
(335,-10,o),
(270,5,o),
(214,35,cs),
(102,95,o),
(38,207,o),
(38,350,cs),
(38,421,o),
(53,484,o),
(84,539,cs),
(145,647,o),
(261,710,o),
(408,710,cs),
(481,710,o),
(546,695,o),
(602,665,cs),
(714,605,o),
(778,493,o),
(778,350,cs),
(778,279,o),
(763,216,o),
(732,162,cs),
(671,53,o),
(555,-10,o),
(408,-10,cs)
);
},
{
closed = 1;
nodes = (
(446,143,o),
(481,152,o),
(511,170,c),
(570,203,o),
(603,268,o),
(603,350,cs),
(603,390,o),
(595,427,o),
(579,458,cs),
(547,521,o),
(485,557,o),
(408,557,cs),
(370,557,o),
(336,548,o),
(307,531,cs),
(248,497,o),
(213,432,o),
(213,350,cs),
(213,310,o),
(222,273,o),
(239,242,c),
(271,179,o),
(331,143,o),
(408,143,cs)
);
}
);
width = 817;
},
{
anchors = (
{
name = m.uni0321_3;
position = "{410, 0}";
},
{
name = t.uni0308_1_3;
position = "{410, 710}";
},
{
name = t.uni0335_2;
position = "{413, 350}";
},
{
name = m.uni0328_3;
position = "{410, -10}";
},
{
name = t.uni031B_3;
position = "{681, 589}";
}
);
layerId = "99EE65B6-DAB1-4E31-8CA0-6E6C34D1775F";
shapes = (
{
closed = 1;
nodes = (
(343,-10,o),
(278,5,o),
(222,35,cs),
(110,95,o),
(46,207,o),
(46,350,cs),
(46,421,o),
(61,484,o),
(92,539,cs),
(153,647,o),
(269,710,o),
(416,710,cs),
(489,710,o),
(554,695,o),
(610,665,cs),
(722,605,o),
(786,493,o),
(786,350,cs),
(786,279,o),
(771,216,o),
(740,162,cs),
(679,53,o),
(563,-10,o),
(416,-10,cs)
);
},
{
closed = 1;
nodes = (
(468,81,o),
(515,93,o),
(555,115,cs),
(636,159,o),
(681,243,o),
(681,350,cs),
(681,403,o),
(671,451,o),
(648,491,c),
(605,573,o),
(521,620,o),
(416,620,cs),
(364,620,o),
(317,608,o),
(278,586,cs),
(197,541,o),
(151,457,o),
(151,350,cs),
(151,298,o),
(163,250,o),
(185,210,cs),
(229,128,o),
(311,81,o),
(416,81,cs)
);
}
);
width = 833;
},
{
anchors = (
{
name = m.uni0321_3;
position = "{410, 0}";
},
{
name = t.uni0308_1_3;
position = "{410, 710}";
},
{
name = t.uni0335_2;
position = "{413, 350}";
},
{
name = m.uni0328_3;
position = "{410, -10}";
},
{
name = t.uni031B_3;
position = "{681, 589}";
}
);
layerId = "754F3D2A-C810-4C1B-8FE5-1769993D30C0";
shapes = (
{
closed = 1;
nodes = (
(348,-10,o),
(283,5,o),
(227,35,cs),
(115,95,o),
(51,207,o),
(51,350,cs),
(51,421,o),
(66,484,o),
(97,539,cs),
(158,647,o),
(274,710,o),
(421,710,cs),
(494,710,o),
(559,695,o),
(615,665,cs),
(727,605,o),
(791,493,o),
(791,350,cs),
(791,279,o),
(776,216,o),
(745,162,cs),
(684,53,o),
(568,-10,o),
(421,-10,cs)
);
},
{
closed = 1;
nodes = (
(481,43,o),
(536,57,o),
(582,82,cs),
(675,133,o),
(728,228,o),
(728,350,cs),
(728,410,o),
(716,465,o),
(690,511,cs),
(639,604,o),
(543,657,o),
(421,657,cs),
(360,657,o),
(306,644,o),
(260,619,cs),
(167,568,o),
(113,472,o),
(113,350,cs),
(113,290,o),
(127,236,o),
(152,190,cs),
(204,97,o),
(299,43,o),
(421,43,cs)
);
}
);
width = 842;
}
);
leftKerningGroup = C2;
rightKerningGroup = D;
unicode = 79;
},
{
glyphname = P;
layers = (
{
layerId = "DC3AF673-8462-4C12-8448-8A8C8FBD5668";
shapes = (
{
closed = 1;
nodes = (
(343,367,ls),
(403,367,o),
(442,403,o),
(442,457,cs),
(442,511,o),
(403,547,o),
(343,547,cs),
(252,547,l),
(252,0,l),
(77,0,l),
(77,700,l),
(343,700,ls),
(397,700,o),
(445,690,o),
(487,670,cs),
(570,629,o),
(617,553,o),
(617,457,cs),
(617,409,o),
(606,367,o),
(583,330,cs),
(538,256,o),
(451,213,o),
(343,213,cs),
(236,213,l),
(236,367,l)
);
}
);
width = 655;
},
{
layerId = "99EE65B6-DAB1-4E31-8CA0-6E6C34D1775F";
shapes = (
{
closed = 1;
nodes = (
(327,336,ls),
(422,336,o),
(481,390,o),
(481,473,cs),
(481,555,o),
(422,610,o),
(327,610,cs),
(197,610,l),
(197,0,l),
(93,0,l),
(93,700,l),
(327,700,ls),
(380,700,o),
(425,691,o),
(465,672,cs),
(542,634,o),
(586,563,o),
(586,473,cs),
(586,427,o),
(575,388,o),
(554,354,cs),
(512,285,o),
(431,244,o),
(327,244,cs),
(182,244,l),
(182,336,l)
);
}
);
width = 632;
},
{
layerId = "754F3D2A-C810-4C1B-8FE5-1769993D30C0";
shapes = (
{
closed = 1;
nodes = (
(318,317,ls),
(433,317,o),
(504,382,o),
(504,482,cs),
(504,582,o),
(433,647,o),
(318,647,cs),
(164,647,l),
(164,0,l),
(102,0,l),
(102,700,l),
(318,700,ls),
(369,700,o),
(413,691,o),
(451,673,cs),
(525,637,o),
(567,569,o),
(567,482,cs),
(567,438,o),
(557,400,o),
(537,368,cs),
(496,302,o),
(419,263,o),
(318,263,cs),
(149,263,l),
(149,317,l)
);
}
);
width = 618;
}
);
leftKerningGroup = B;
unicode = 80;
},
{
glyphname = Q;
layers = (
{
layerId = "DC3AF673-8462-4C12-8448-8A8C8FBD5668";
shapes = (
{
closed = 1;
nodes = (
(706,-177,l),
(679,-175,o),
(655,-170,o),
(633,-159,cs),
(611,-148,o),
(588,-134,o),
(565,-116,cs),
(541,-97,o),
(505,-64,o),
(454,-19,cs),
(418,12,l),
(417,55,l),
(505,55,ls),
(529,55,o),
(549,53,o),
(567,48,cs),
(583,44,o),
(605,36,o),
(631,23,c),
(680,3,o),
(715,-11,o),
(737,-18,cs),
(759,-25,o),
(779,-28,o),
(797,-29,c)
);
},
{
closed = 1;
nodes = (
(335,-10,o),
(270,5,o),
(214,35,cs),
(102,95,o),
(38,207,o),
(38,350,cs),
(38,421,o),
(53,484,o),
(84,539,cs),
(145,647,o),
(261,710,o),
(408,710,cs),
(481,710,o),
(546,695,o),
(602,665,cs),
(714,605,o),
(778,493,o),
(778,350,cs),
(778,279,o),
(763,216,o),
(732,162,cs),
(671,53,o),
(555,-10,o),
(408,-10,cs)
);
},
{
closed = 1;
nodes = (
(446,143,o),
(481,152,o),
(511,170,c),
(570,203,o),
(603,268,o),
(603,350,cs),
(603,390,o),
(595,427,o),
(579,458,cs),
(547,521,o),
(485,557,o),
(408,557,cs),
(370,557,o),
(336,548,o),
(307,531,cs),
(248,497,o),
(213,432,o),
(213,350,cs),
(213,310,o),
(222,273,o),
(239,242,c),
(271,179,o),
(331,143,o),
(408,143,cs)
);
}
);
width = 832;
},
{
layerId = "99EE65B6-DAB1-4E31-8CA0-6E6C34D1775F";
shapes = (
{
closed = 1;
nodes = (
(730,-201,l),
(707,-198,o),
(685,-191,o),
(663,-178,c),
(640,-166,o),
(616,-149,o),
(587,-126,cs),
(559,-103,o),
(521,-69,o),
(472,-25,cs),
(433,11,l),
(433,32,l),
(482,32,ls),
(502,32,o),
(520,29,o),
(536,23,cs),
(552,18,o),
(569,9,o),
(588,-5,cs),
(634,-37,o),
(672,-62,o),
(703,-79,cs),
(734,-96,o),
(760,-106,o),
(780,-110,c)
);
},
{
closed = 1;
nodes = (
(343,-10,o),
(278,5,o),
(222,35,cs),
(110,95,o),
(46,207,o),
(46,350,cs),
(46,421,o),
(61,484,o),
(92,539,cs),
(153,647,o),
(269,710,o),
(416,710,cs),
(489,710,o),
(554,695,o),
(610,665,cs),
(722,605,o),
(786,493,o),
(786,350,cs),
(786,279,o),
(771,216,o),
(740,162,cs),
(679,53,o),
(563,-10,o),
(416,-10,cs)
);
},
{
closed = 1;
nodes = (
(468,81,o),
(515,93,o),
(555,115,cs),
(636,159,o),
(681,243,o),
(681,350,cs),
(681,403,o),
(671,451,o),
(648,491,c),
(605,573,o),
(521,620,o),
(416,620,cs),
(364,620,o),
(317,608,o),
(278,586,cs),
(197,541,o),
(151,457,o),
(151,350,cs),
(151,298,o),
(163,250,o),
(185,210,cs),
(229,128,o),
(311,81,o),
(416,81,cs)
);
}
);
width = 838;
},
{
layerId = "754F3D2A-C810-4C1B-8FE5-1769993D30C0";
shapes = (
{
closed = 1;
nodes = (
(744,-215,l),
(724,-211,o),
(703,-203,o),
(681,-190,cs),
(658,-177,o),
(632,-158,o),
(600,-132,cs),
(569,-107,o),
(530,-72,o),
(482,-28,cs),
(442,10,l),
(442,18,l),
(468,18,ls),
(486,18,o),
(503,14,o),
(518,8,cs),
(533,2,o),
(548,-8,o),
(562,-21,cs),
(606,-61,o),
(646,-92,o),
(683,-116,cs),
(719,-139,o),
(749,-153,o),
(770,-159,c)
);
},
{
closed = 1;
nodes = (
(348,-10,o),
(283,5,o),
(227,35,cs),
(115,95,o),
(51,207,o),
(51,350,cs),
(51,421,o),
(66,484,o),
(97,539,cs),
(158,647,o),
(274,710,o),
(421,710,cs),
(494,710,o),
(559,695,o),
(615,665,cs),
(727,605,o),
(791,493,o),
(791,350,cs),
(791,279,o),
(776,216,o),
(745,162,cs),
(684,53,o),
(568,-10,o),
(421,-10,cs)
);
},
{
closed = 1;
nodes = (
(481,43,o),
(536,57,o),
(582,82,cs),
(675,133,o),
(728,228,o),
(728,350,cs),
(728,410,o),
(716,465,o),
(690,511,cs),
(639,604,o),
(543,657,o),
(421,657,cs),
(360,657,o),
(306,644,o),
(260,619,cs),
(167,568,o),
(113,472,o),
(113,350,cs),
(113,290,o),
(127,236,o),
(152,190,cs),
(204,97,o),
(299,43,o),
(421,43,cs)
);
}
);
width = 841;
}
);
leftKerningGroup = C2;
rightKerningGroup = D;
unicode = 81;
},
{
glyphname = R;
layers = (
{
layerId = "DC3AF673-8462-4C12-8448-8A8C8FBD5668";
shapes = (
{
closed = 1;
nodes = (
(386,316,l),
(429,316,o),
(463,313,o),
(487,307,cs),
(535,294,o),
(560,267,o),
(597,204,cs),
(717,0,l),
(508,0,l),
(432,157,l),
(423,174,o),
(412,189,o),
(401,201,c),
(378,223,o),
(344,233,o),
(298,233,c)
);
},
{
closed = 1;
nodes = (
(375,375,ls),
(432,375,o),
(473,410,o),
(473,460,cs),
(473,514,o),
(435,547,o),
(375,547,cs),
(252,547,l),
(252,0,l),
(77,0,l),
(77,700,l),
(375,700,ls),
(458,700,o),
(525,680,o),
(574,640,cs),
(624,600,o),
(648,544,o),
(648,472,cs),
(648,431,o),
(637,395,o),
(615,366,cs),
(569,308,o),
(491,278,o),
(410,278,cs),
(392,278,l),
(347,233,l),
(236,233,l),
(236,375,l)
);
}
);
width = 725;
},
{
layerId = "99EE65B6-DAB1-4E31-8CA0-6E6C34D1775F";
shapes = (
{
closed = 1;
nodes = (
(349,319,l),
(383,319,o),
(413,316,o),
(436,311,c),
(483,299,o),
(513,274,o),
(542,227,cs),
(686,0,l),
(563,0,l),
(448,192,l),
(436,210,o),
(425,225,o),
(414,236,c),
(391,256,o),
(357,264,o),
(300,264,c)
);
},
{
closed = 1;
nodes = (
(352,352,ls),
(445,352,o),
(504,406,o),
(504,484,cs),
(504,562,o),
(446,610,o),
(352,610,cs),
(197,610,l),
(197,0,l),
(93,0,l),
(93,700,l),
(352,700,ls),
(431,700,o),
(494,681,o),
(540,643,cs),
(587,606,o),
(609,553,o),
(609,488,cs),
(609,446,o),
(599,410,o),
(578,379,c),
(535,319,o),
(457,286,o),
(363,286,cs),
(353,286,l),
(331,264,l),
(182,264,l),
(182,352,l)
);
}
);
width = 702;
},
{
layerId = "754F3D2A-C810-4C1B-8FE5-1769993D30C0";
shapes = (
{
closed = 1;
nodes = (
(326,321,l),
(356,321,o),
(383,318,o),
(406,313,cs),
(451,302,o),
(485,278,o),
(509,240,cs),
(667,0,l),
(596,0,l),
(458,213,l),
(444,232,o),
(432,247,o),
(421,257,cs),
(398,276,o),
(365,283,o),
(301,283,c)
);
},
{
closed = 1;
nodes = (
(338,338,ls),
(452,338,o),
(523,403,o),
(523,498,cs),
(523,591,o),
(453,647,o),
(338,647,cs),
(164,647,l),
(164,0,l),
(102,0,l),
(102,700,l),
(338,700,ls),
(414,700,o),
(475,682,o),
(519,645,cs),
(564,609,o),
(586,559,o),
(586,497,cs),
(586,455,o),
(576,419,o),
(556,387,c),
(515,326,o),
(437,291,o),
(335,291,cs),
(330,291,l),
(322,283,l),
(149,283,l),
(149,338,l)
);
}
);
width = 688;
}
);
leftKerningGroup = B;
rightKerningGroup = R;
unicode = 82;
},
{
glyphname = S;
layers = (
{
layerId = "DC3AF673-8462-4C12-8448-8A8C8FBD5668";
shapes = (
{
closed = 1;
nodes = (
(254,546,o),
(218,529,o),
(218,500,cs),
(218,480,o),
(252,461,o),
(340,434,cs),
(491,388,o),
(559,314,o),
(559,204,cs),
(559,166,o),
(549,131,o),
(529,99,cs),
(488,33,o),
(403,-10,o),
(283,-10,cs),
(192,-10,o),
(98,25,o),
(38,70,c),
(82,234,l),
(147,180,o),
(218,155,o),
(283,155,cs),
(352,155,o),
(384,174,o),
(384,199,cs),
(384,212,o),
(375,225,o),
(356,236,cs),
(337,247,o),
(297,262,o),
(238,281,cs),
(102,323,o),
(43,396,o),
(43,492,cs),
(43,532,o),
(53,568,o),
(72,602,cs),
(110,667,o),
(189,711,o),
(308,711,cs),
(396,711,o),
(479,682,o),
(538,640,c),
(482,492,l),
(428,529,o),
(362,546,o),
(308,546,cs)
);
}
);
width = 598;
},
{
layerId = "99EE65B6-DAB1-4E31-8CA0-6E6C34D1775F";
shapes = (
{
closed = 1;
nodes = (
(217,617,o),
(164,577,o),
(164,518,cs),
(164,468,o),
(210,434,o),
(312,407,cs),
(471,364,o),
(544,297,o),
(544,188,cs),
(544,150,o),
(534,117,o),
(515,87,cs),
(475,27,o),
(397,-10,o),
(296,-10,cs),
(195,-10,o),
(107,27,o),
(46,83,c),
(89,172,l),
(147,116,o),
(219,85,o),
(296,85,cs),
(385,85,o),
(440,126,o),
(440,187,cs),
(440,213,o),
(426,236,o),
(399,256,cs),
(372,276,o),
(325,296,o),
(257,315,cs),
(120,353,o),
(59,416,o),
(59,515,cs),
(59,553,o),
(69,586,o),
(88,616,cs),
(125,675,o),
(198,711,o),
(297,711,cs),
(390,711,o),
(470,678,o),
(530,627,c),
(484,545,l),
(434,589,o),
(364,617,o),
(297,617,cs)
);
}
);
width = 591;
},
{
layerId = "754F3D2A-C810-4C1B-8FE5-1769993D30C0";
shapes = (
{
closed = 1;
nodes = (
(195,659,o),
(131,606,o),
(131,528,cs),
(131,461,o),
(185,418,o),
(295,390,cs),
(459,349,o),
(535,287,o),
(535,179,cs),
(535,141,o),
(525,109,o),
(507,80,c),
(467,23,o),
(394,-10,o),
(303,-10,cs),
(197,-10,o),
(112,28,o),
(51,90,c),
(93,134,l),
(147,78,o),
(219,43,o),
(303,43,cs),
(405,43,o),
(473,97,o),
(473,180,cs),
(473,214,o),
(456,243,o),
(425,268,cs),
(393,293,o),
(341,316,o),
(269,335,cs),
(130,371,o),
(69,428,o),
(69,528,cs),
(69,565,o),
(78,597,o),
(97,625,cs),
(134,680,o),
(204,711,o),
(291,711,cs),
(386,711,o),
(464,676,o),
(525,619,c),
(485,577,l),
(437,625,o),
(365,659,o),
(291,659,cs)
);
}
);
width = 586;
}
);
leftKerningGroup = S;
rightKerningGroup = S1;
unicode = 83;
},
{
glyphname = T;
layers = (
{
layerId = "DC3AF673-8462-4C12-8448-8A8C8FBD5668";
shapes = (
{
closed = 1;
nodes = (
(409,623,l),
(409,0,l),
(234,0,l),
(234,623,l)
);
},
{
closed = 1;
nodes = (
(625,700,l),
(625,547,l),
(18,547,l),
(18,700,l)
);
}
);
width = 643;
},
{
layerId = "99EE65B6-DAB1-4E31-8CA0-6E6C34D1775F";
shapes = (
{
closed = 1;
nodes = (
(366,654,l),
(366,0,l),
(262,0,l),
(262,654,l)
);
},
{
closed = 1;
nodes = (
(602,700,l),
(602,610,l),
(26,610,l),
(26,700,l)
);
}
);
width = 627;
},
{
layerId = "754F3D2A-C810-4C1B-8FE5-1769993D30C0";
shapes = (
{
closed = 1;
nodes = (
(340,673,l),
(340,0,l),
(278,0,l),
(278,673,l)
);
},
{
closed = 1;
nodes = (
(588,700,l),
(588,647,l),
(31,647,l),
(31,700,l)
);
}
);
width = 618;
}
);
leftKerningGroup = T;
rightKerningGroup = T2;
unicode = 84;
},
{
glyphname = U;
layers = (
{
anchors = (
{
name = m.uni0321_3;
position = "{392, 0}";
},
{
name = t.uni0308_1_3;
position = "{392, 700}";
},
{
name = m.uni0328_3;
position = "{392, -10}";
},
{
name = t.uni031B_3;
position = "{682, 700}";
}
);
layerId = "DC3AF673-8462-4C12-8448-8A8C8FBD5668";
shapes = (
{
closed = 1;
nodes = (
(719,312,ls),
(719,210,o),
(691,131,o),
(634,75,cs),
(576,18,o),
(497,-10,o),
(394,-10,cs),
(291,-10,o),
(212,18,o),
(155,75,cs),
(97,131,o),
(69,210,o),
(69,312,cs),
(69,700,l),
(244,700,l),
(244,312,ls),
(244,205,o),
(299,143,o),
(394,143,cs),
(489,143,o),
(544,205,o),
(544,312,cs),
(544,700,l),
(719,700,l)
);
}
);
width = 788;
},
{
anchors = (
{
name = m.uni0321_3;
position = "{392, 0}";
},
{
name = t.uni0308_1_3;
position = "{392, 700}";
},
{
name = m.uni0328_3;
position = "{392, -10}";
},
{
name = t.uni031B_3;
position = "{682, 700}";
}
);
layerId = "99EE65B6-DAB1-4E31-8CA0-6E6C34D1775F";
shapes = (
{
closed = 1;
nodes = (
(687,296,ls),
(687,200,o),
(660,125,o),
(607,71,cs),
(554,17,o),
(480,-10,o),
(385,-10,cs),
(290,-10,o),
(216,17,o),
(163,71,cs),
(110,125,o),
(83,200,o),
(83,296,cs),
(83,700,l),
(188,700,l),
(188,296,ls),
(188,161,o),
(260,81,o),
(385,81,cs),
(509,81,o),
(582,161,o),
(582,296,cs),
(582,700,l),
(687,700,l)
);
}
);
width = 769;
},
{
anchors = (
{
name = m.uni0321_3;
position = "{392, 0}";
},
{
name = t.uni0308_1_3;
position = "{392, 700}";
},
{
name = m.uni0328_3;
position = "{392, -10}";
},
{
name = t.uni031B_3;
position = "{682, 700}";
}
);
layerId = "754F3D2A-C810-4C1B-8FE5-1769993D30C0";
shapes = (
{
closed = 1;
nodes = (
(667,287,ls),
(667,194,o),
(642,121,o),
(591,69,cs),
(541,16,o),
(469,-10,o),
(379,-10,cs),
(289,-10,o),
(218,16,o),
(168,69,cs),
(117,121,o),
(92,194,o),
(92,287,cs),
(92,700,l),
(154,700,l),
(154,287,ls),
(154,135,o),
(237,43,o),
(379,43,cs),
(521,43,o),
(604,135,o),
(604,287,cs),
(604,700,l),
(667,700,l)
);
}
);
width = 758;
}
);
leftKerningGroup = U2;
rightKerningGroup = U;
unicode = 85;
},
{
glyphname = V;
layers = (
{
layerId = "DC3AF673-8462-4C12-8448-8A8C8FBD5668";
shapes = (
{
closed = 1;
nodes = (
(763,700,l),
(483,0,l),
(288,0,l),
(8,700,l),
(217,700,l),
(386,188,l),
(555,700,l)
);
}
);
width = 772;
},
{
layerId = "99EE65B6-DAB1-4E31-8CA0-6E6C34D1775F";
shapes = (
{
closed = 1;
nodes = (
(701,700,l),
(421,0,l),
(296,0,l),
(16,700,l),
(139,700,l),
(359,102,l),
(579,700,l)
);
}
);
width = 717;
},
{
layerId = "754F3D2A-C810-4C1B-8FE5-1769993D30C0";
shapes = (
{
closed = 1;
nodes = (
(663,700,l),
(383,0,l),
(301,0,l),
(21,700,l),
(92,700,l),
(342,51,l),
(593,700,l)
);
}
);
width = 684;
}
);
leftKerningGroup = V;
rightKerningGroup = V2;
unicode = 86;
},
{
glyphname = W;
layers = (
{
layerId = "DC3AF673-8462-4C12-8448-8A8C8FBD5668";
shapes = (
{
closed = 1;
nodes = (
(1162,700,l),
(929,0,l),
(711,0,l),
(585,504,l),
(459,0,l),
(241,0,l),
(8,700,l),
(217,700,l),
(356,188,l),
(487,700,l),
(683,700,l),
(814,188,l),
(953,700,l)
);
}
);
width = 1170;
},
{
layerId = "99EE65B6-DAB1-4E31-8CA0-6E6C34D1775F";
shapes = (
{
closed = 1;
nodes = (
(1107,700,l),
(863,0,l),
(730,0,l),
(562,579,l),
(393,0,l),
(260,0,l),
(16,700,l),
(139,700,l),
(327,106,l),
(503,700,l),
(621,700,l),
(796,106,l),
(984,700,l)
);
}
);
width = 1123;
},
{
layerId = "754F3D2A-C810-4C1B-8FE5-1769993D30C0";
shapes = (
{
closed = 1;
nodes = (
(1074,700,l),
(823,0,l),
(742,0,l),
(548,624,l),
(353,0,l),
(272,0,l),
(21,700,l),
(92,700,l),
(310,56,l),
(512,700,l),
(583,700,l),
(785,56,l),
(1003,700,l)
);
}
);
width = 1095;
}
);
leftKerningGroup = V;
rightKerningGroup = V2;
unicode = 87;
},
{
glyphname = X;
layers = (
{
layerId = "DC3AF673-8462-4C12-8448-8A8C8FBD5668";
shapes = (
{
closed = 1;
nodes = (
(528,360,l),
(808,0,l),
(590,0,l),
(408,250,l),
(227,0,l),
(8,0,l),
(288,360,l),
(28,700,l),
(247,700,l),
(408,470,l),
(570,700,l),
(788,700,l)
);
}
);
width = 817;
},
{
layerId = "99EE65B6-DAB1-4E31-8CA0-6E6C34D1775F";
shapes = (
{
closed = 1;
nodes = (
(442,360,l),
(722,0,l),
(590,0,l),
(369,297,l),
(149,0,l),
(16,0,l),
(296,360,l),
(36,700,l),
(169,700,l),
(369,423,l),
(570,700,l),
(702,700,l)
);
}
);
width = 739;
},
{
layerId = "754F3D2A-C810-4C1B-8FE5-1769993D30C0";
shapes = (
{
closed = 1;
nodes = (
(391,360,l),
(671,0,l),
(590,0,l),
(346,325,l),
(102,0,l),
(21,0,l),
(301,360,l),
(41,700,l),
(122,700,l),
(346,394,l),
(570,700,l),
(651,700,l)
);
}
);
width = 692;
}
);
unicode = 88;
},
{
glyphname = Y;
layers = (
{
layerId = "DC3AF673-8462-4C12-8448-8A8C8FBD5668";
shapes = (
{
closed = 1;
nodes = (
(444,318,l),
(269,318,l),
(8,700,l),
(227,700,l),
(357,483,l),
(487,700,l),
(705,700,l)
);
},
{
closed = 1;
nodes = (
(444,318,l),
(444,0,l),
(269,0,l),
(269,318,l)
);
}
);
width = 713;
},
{
layerId = "99EE65B6-DAB1-4E31-8CA0-6E6C34D1775F";
shapes = (
{
closed = 1;
nodes = (
(378,326,l),
(273,326,l),
(16,700,l),
(149,700,l),
(326,427,l),
(503,700,l),
(635,700,l)
);
},
{
closed = 1;
nodes = (
(378,326,l),
(378,0,l),
(273,0,l),
(273,326,l)
);
}
);
width = 651;
},
{
layerId = "754F3D2A-C810-4C1B-8FE5-1769993D30C0";
shapes = (
{
closed = 1;
nodes = (
(338,331,l),
(275,331,l),
(21,700,l),
(102,700,l),
(307,394,l),
(512,700,l),
(593,700,l)
);
},
{
closed = 1;
nodes = (
(338,331,l),
(338,0,l),
(275,0,l),
(275,331,l)
);
}
);
width = 613;
}
);
leftKerningGroup = Y;
rightKerningGroup = Y2;
unicode = 89;
},
{
glyphname = Z;
layers = (
{
layerId = "DC3AF673-8462-4C12-8448-8A8C8FBD5668";
shapes = (
{
closed = 1;
nodes = (
(600,153,l),
(600,0,l),
(40,0,l),
(40,132,l),
(357,547,l),
(50,547,l),
(50,700,l),
(580,700,l),
(580,568,l),
(263,153,l)
);
}
);
width = 640;
},
{
layerId = "99EE65B6-DAB1-4E31-8CA0-6E6C34D1775F";
shapes = (
{
closed = 1;
nodes = (
(600,91,l),
(600,0,l),
(40,0,l),
(40,77,l),
(445,610,l),
(50,610,l),
(50,700,l),
(580,700,l),
(580,623,l),
(175,91,l)
);
}
);
width = 640;
},
{
layerId = "754F3D2A-C810-4C1B-8FE5-1769993D30C0";
shapes = (
{
closed = 1;
nodes = (
(600,53,l),
(600,0,l),
(40,0,l),
(40,44,l),
(498,647,l),
(50,647,l),
(50,700,l),
(580,700,l),
(580,656,l),
(122,53,l)
);
}
);
width = 640;
}
);
leftKerningGroup = Z;
rightKerningGroup = Z1;
unicode = 90;
},
{
glyphname = a;
layers = (
{
anchors = (
{
name = t.uni0308_1_3;
position = "{310, 500}";
},
{
name = b.uni0321;
position = "{217, 0}";
},
{
name = m.uni0328_2;
position = "{478, -3}";
}
);
layerId = "DC3AF673-8462-4C12-8448-8A8C8FBD5668";
shapes = (
{
closed = 1;
nodes = (
(308,102,l),
(308,295,ls),
(308,343,o),
(280,368,o),
(224,368,cs),
(182,368,o),
(131,356,o),
(82,333,c),
(43,462,l),
(109,493,o),
(190,510,o),
(268,510,cs),
(397,510,o),
(471,435,o),
(471,305,cs),
(471,0,l),
(319,0,l)
);
},
{
closed = 1;
nodes = (
(215,226,o),
(188,201,o),
(188,166,cs),
(188,131,o),
(214,107,o),
(255,107,cs),
(288,107,o),
(308,137,o),
(308,186,c),
(336,186,l),
(336,59,o),
(287,-11,o),
(189,-11,cs),
(90,-11,o),
(24,56,o),
(24,155,cs),
(24,261,o),
(115,310,o),
(210,310,cs),
(260,310,o),
(292,300,o),
(337,270,c),
(316,210,l),
(300,221,o),
(282,226,o),
(255,226,cs)
);
}
);
width = 518;
},
{
anchors = (
{
name = t.uni0308_1_3;
position = "{264, 500}";
},
{
name = b.uni0321;
position = "{214, 0}";
},
{
name = m.uni0328_2;
position = "{416, 13}";
}
);
layerId = "99EE65B6-DAB1-4E31-8CA0-6E6C34D1775F";
shapes = (
{
closed = 1;
nodes = (
(343,94,l),
(343,319,ls),
(343,389,o),
(305,423,o),
(228,423,cs),
(180,423,o),
(125,404,o),
(83,374,c),
(47,453,l),
(106,490,o),
(180,510,o),
(256,510,cs),
(375,510,o),
(444,443,o),
(444,329,cs),
(444,0,l),
(347,0,l)
);
},
{
closed = 1;
nodes = (
(168,242,o),
(129,209,o),
(129,155,cs),
(129,104,o),
(170,69,o),
(233,69,cs),
(302,69,o),
(343,109,o),
(343,175,c),
(372,175,l),
(372,58,o),
(312,-10,o),
(205,-10,cs),
(106,-10,o),
(28,48,o),
(28,152,cs),
(28,262,o),
(120,307,o),
(218,307,cs),
(288,307,o),
(330,296,o),
(369,267,c),
(352,210,l),
(323,234,o),
(293,242,o),
(233,242,cs)
);
}
);
width = 506;
},
{
anchors = (
{
name = t.uni0308_1_3;
position = "{237, 500}";
},
{
name = b.uni0321;
position = "{212, 0}";
},
{
name = m.uni0328_2;
position = "{378, 22}";
}
);
layerId = "754F3D2A-C810-4C1B-8FE5-1769993D30C0";
shapes = (
{
closed = 1;
nodes = (
(364,89,l),
(364,333,ls),
(364,416,o),
(320,456,o),
(230,456,cs),
(178,456,o),
(121,433,o),
(83,399,c),
(49,448,l),
(104,488,o),
(174,510,o),
(249,510,cs),
(361,510,o),
(427,448,o),
(427,343,cs),
(427,0,l),
(363,0,l)
);
},
{
closed = 1;
nodes = (
(140,252,o),
(94,214,o),
(94,149,cs),
(94,87,o),
(144,46,o),
(220,46,cs),
(311,46,o),
(364,92,o),
(364,169,c),
(394,169,l),
(394,57,o),
(327,-10,o),
(214,-10,cs),
(116,-10,o),
(30,43,o),
(30,150,cs),
(30,263,o),
(123,305,o),
(223,305,cs),
(305,305,o),
(352,294,o),
(388,265,c),
(374,210,l),
(336,241,o),
(299,252,o),
(220,252,cs)
);
}
);
width = 499;
}
);
leftKerningGroup = a2;
rightKerningGroup = a;
unicode = 97;
},
{
glyphname = b;
layers = (
{
layerId = "DC3AF673-8462-4C12-8448-8A8C8FBD5668";
shapes = (
{
closed = 1;
nodes = (
(220,425,l),
(190,250,l),
(220,74,l),
(208,0,l),
(57,0,l),
(57,760,l),
(220,760,l)
);
},
{
closed = 1;
nodes = (
(395,510,o),
(435,499,o),
(472,478,c),
(544,434,o),
(587,353,o),
(587,250,cs),
(587,199,o),
(577,153,o),
(557,114,cs),
(517,35,o),
(440,-10,o),
(350,-10,cs),
(310,-10,o),
(276,1,o),
(247,23,cs),
(190,66,o),
(158,146,o),
(158,250,cs),
(158,302,o),
(166,348,o),
(181,387,cs),
(212,465,o),
(270,510,o),
(350,510,cs)
);
},
{
closed = 1;
nodes = (
(349,132,o),
(375,143,o),
(394,165,c),
(414,186,o),
(423,215,o),
(423,250,cs),
(423,286,o),
(414,315,o),
(394,337,cs),
(375,357,o),
(349,368,o),
(317,368,cs),
(285,368,o),
(259,357,o),
(239,337,c),
(220,315,o),
(210,286,o),
(210,250,cs),
(210,215,o),
(220,186,o),
(239,165,cs),
(259,143,o),
(285,132,o),
(317,132,cs)
);
}
);
width = 613;
},
{
layerId = "99EE65B6-DAB1-4E31-8CA0-6E6C34D1775F";
shapes = (
{
closed = 1;
nodes = (
(173,402,l),
(143,250,l),
(173,98,l),
(169,0,l),
(73,0,l),
(73,760,l),
(173,760,l)
);
},
{
closed = 1;
nodes = (
(399,510,o),
(443,499,o),
(481,478,cs),
(558,434,o),
(603,353,o),
(603,250,cs),
(603,199,o),
(592,153,o),
(571,114,cs),
(528,35,o),
(449,-10,o),
(350,-10,cs),
(304,-10,o),
(264,1,o),
(228,23,cs),
(159,66,o),
(119,147,o),
(119,250,cs),
(119,301,o),
(129,347,o),
(147,386,cs),
(185,465,o),
(258,510,o),
(350,510,cs)
);
},
{
closed = 1;
nodes = (
(383,77,o),
(424,93,o),
(455,125,cs),
(487,157,o),
(501,198,o),
(501,250,cs),
(501,302,o),
(487,344,o),
(455,376,cs),
(424,407,o),
(383,423,o),
(333,423,cs),
(282,423,o),
(241,407,o),
(210,376,cs),
(179,344,o),
(163,302,o),
(163,250,cs),
(163,198,o),
(179,157,o),
(210,125,cs),
(241,93,o),
(282,77,o),
(333,77,cs)
);
}
);
width = 644;
},
{
layerId = "754F3D2A-C810-4C1B-8FE5-1769993D30C0";
shapes = (
{
closed = 1;
nodes = (
(145,388,l),
(115,250,l),
(145,112,l),
(146,0,l),
(82,0,l),
(82,760,l),
(145,760,l)
);
},
{
closed = 1;
nodes = (
(401,510,o),
(448,499,o),
(487,478,cs),
(567,434,o),
(612,353,o),
(612,250,cs),
(612,199,o),
(601,153,o),
(580,114,cs),
(535,35,o),
(454,-10,o),
(350,-10,cs),
(300,-10,o),
(256,1,o),
(217,23,cs),
(140,66,o),
(96,147,o),
(96,250,cs),
(96,301,o),
(106,347,o),
(127,386,cs),
(169,465,o),
(250,510,o),
(350,510,cs)
);
},
{
closed = 1;
nodes = (
(404,44,o),
(453,63,o),
(492,101,cs),
(530,139,o),
(548,188,o),
(548,250,cs),
(548,312,o),
(530,361,o),
(492,399,cs),
(453,437,o),
(404,456,o),
(342,456,cs),
(280,456,o),
(230,437,o),
(192,399,cs),
(154,361,o),
(135,312,o),
(135,250,cs),
(135,188,o),
(154,139,o),
(192,101,cs),
(230,63,o),
(280,44,o),
(342,44,cs)
);
}
);
width = 663;
}
);
rightKerningGroup = b;
unicode = 98;
},
{
glyphname = c;
layers = (
{
anchors = (
{
name = m.uni0321_3;
position = "{300, 0}";
},
{
name = t.uni0308_1_3;
position = "{298, 500}";
}
);
layerId = "DC3AF673-8462-4C12-8448-8A8C8FBD5668";
shapes = (
{
closed = 1;
nodes = (
(497,74,l),
(453,23,o),
(388,-10,o),
(297,-10,cs),
(244,-10,o),
(197,1,o),
(156,23,cs),
(74,66,o),
(27,147,o),
(27,250,cs),
(27,301,o),
(38,347,o),
(61,386,c),
(105,465,o),
(190,510,o),
(297,510,cs),
(385,510,o),
(445,484,o),
(494,446,c),
(410,332,l),
(385,354,o),
(348,368,o),
(308,368,cs),
(273,368,o),
(245,357,o),
(223,337,c),
(201,315,o),
(190,286,o),
(190,250,cs),
(190,215,o),
(201,186,o),
(223,165,cs),
(245,143,o),
(273,132,o),
(308,132,cs),
(352,132,o),
(398,152,o),
(423,181,c)
);
}
);
width = 518;
},
{
anchors = (
{
name = m.uni0321_3;
position = "{300, 0}";
},
{
name = t.uni0308_1_3;
position = "{298, 500}";
}
);
layerId = "99EE65B6-DAB1-4E31-8CA0-6E6C34D1775F";
shapes = (
{
closed = 1;
nodes = (
(519,81,l),
(473,24,o),
(401,-10,o),
(313,-10,cs),
(260,-10,o),
(213,1,o),
(172,23,cs),
(90,66,o),
(43,147,o),
(43,250,cs),
(43,301,o),
(54,347,o),
(77,386,c),
(121,465,o),
(206,510,o),
(313,510,cs),
(400,510,o),
(474,473,o),
(523,415,c),
(465,352,l),
(431,397,o),
(377,423,o),
(316,423,cs),
(264,423,o),
(223,407,o),
(191,376,cs),
(159,344,o),
(143,302,o),
(143,250,cs),
(143,198,o),
(159,157,o),
(191,125,cs),
(223,93,o),
(264,77,o),
(316,77,cs),
(376,77,o),
(431,103,o),
(466,144,c)
);
}
);
width = 557;
},
{
anchors = (
{
name = m.uni0321_3;
position = "{300, 0}";
},
{
name = t.uni0308_1_3;
position = "{298, 500}";
}
);
layerId = "754F3D2A-C810-4C1B-8FE5-1769993D30C0";
shapes = (
{
closed = 1;
nodes = (
(532,85,l),
(485,24,o),
(408,-10,o),
(322,-10,cs),
(269,-10,o),
(222,1,o),
(181,23,cs),
(99,66,o),
(52,147,o),
(52,250,cs),
(52,301,o),
(63,347,o),
(86,386,c),
(130,465,o),
(215,510,o),
(322,510,cs),
(409,510,o),
(491,467,o),
(540,396,c),
(498,364,l),
(458,422,o),
(394,456,o),
(321,456,cs),
(259,456,o),
(210,437,o),
(172,399,cs),
(134,361,o),
(115,312,o),
(115,250,cs),
(115,188,o),
(134,139,o),
(172,101,cs),
(210,63,o),
(259,44,o),
(321,44,cs),
(390,44,o),
(451,73,o),
(491,122,c)
);
}
);
width = 581;
}
);
leftKerningGroup = a2;
rightKerningGroup = c;
unicode = 99;
},
{
glyphname = d;
layers = (
{
anchors = (
{
name = m.uni0321_3;
position = "{320, 0}";
},
{
name = t.uni0308_1_3;
position = "{266, 552}";
},
{
name = t.uni0335_2;
position = "{484, 617}";
},
{
name = t.uni031B_3;
position = "{706, 760}";
}
);
layerId = "DC3AF673-8462-4C12-8448-8A8C8FBD5668";
shapes = (
{
closed = 1;
nodes = (
(393,74,l),
(423,250,l),
(393,425,l),
(393,760,l),
(557,760,l),
(557,0,l),
(405,0,l)
);
},
{
closed = 1;
nodes = (
(300,510,o),
(334,499,o),
(364,478,c),
(423,434,o),
(455,354,o),
(455,250,cs),
(455,198,o),
(447,153,o),
(432,114,cs),
(401,36,o),
(340,-10,o),
(258,-10,cs),
(214,-10,o),
(173,1,o),
(139,23,c),
(68,66,o),
(27,147,o),
(27,250,cs),
(27,301,o),
(37,347,o),
(56,386,cs),
(96,465,o),
(169,510,o),
(258,510,cs)
);
},
{
closed = 1;
nodes = (
(329,132,o),
(355,143,o),
(374,165,c),
(394,186,o),
(403,215,o),
(403,250,cs),
(403,286,o),
(394,315,o),
(374,337,cs),
(355,357,o),
(329,368,o),
(297,368,cs),
(265,368,o),
(239,357,o),
(219,337,c),
(200,315,o),
(190,286,o),
(190,250,cs),
(190,215,o),
(200,186,o),
(219,165,cs),
(239,143,o),
(265,132,o),
(297,132,cs)
);
}
);
width = 613;
},
{
anchors = (
{
name = m.uni0321_3;
position = "{320, 0}";
},
{
name = t.uni0308_1_3;
position = "{266, 552}";
},
{
name = t.uni0335_2;
position = "{484, 617}";
},
{
name = t.uni031B_3;
position = "{706, 760}";
}
);
layerId = "99EE65B6-DAB1-4E31-8CA0-6E6C34D1775F";
shapes = (
{
closed = 1;
nodes = (
(471,98,l),
(501,250,l),
(471,402,l),
(471,760,l),
(573,760,l),
(573,0,l),
(476,0,l)
);
},
{
closed = 1;
nodes = (
(339,510,o),
(380,499,o),
(416,478,c),
(486,434,o),
(526,353,o),
(526,250,cs),
(526,199,o),
(516,153,o),
(497,114,cs),
(459,35,o),
(386,-10,o),
(293,-10,cs),
(244,-10,o),
(200,1,o),
(163,23,c),
(86,66,o),
(43,147,o),
(43,250,cs),
(43,301,o),
(53,347,o),
(74,386,cs),
(116,465,o),
(195,510,o),
(293,510,cs)
);
},
{
closed = 1;
nodes = (
(363,77,o),
(404,93,o),
(435,125,cs),
(467,157,o),
(481,198,o),
(481,250,cs),
(481,302,o),
(467,344,o),
(435,376,cs),
(404,407,o),
(363,423,o),
(313,423,cs),
(262,423,o),
(221,407,o),
(190,376,cs),
(159,344,o),
(143,302,o),
(143,250,cs),
(143,198,o),
(159,157,o),
(190,125,cs),
(221,93,o),
(262,77,o),
(313,77,cs)
);
}
);
width = 644;
},
{
anchors = (
{
name = m.uni0321_3;
position = "{320, 0}";
},
{
name = t.uni0308_1_3;
position = "{266, 552}";
},
{
name = t.uni0335_2;
position = "{484, 617}";
},
{
name = t.uni031B_3;
position = "{706, 760}";
}
);
layerId = "754F3D2A-C810-4C1B-8FE5-1769993D30C0";
shapes = (
{
closed = 1;
nodes = (
(518,112,l),
(548,250,l),
(518,388,l),
(518,760,l),
(582,760,l),
(582,0,l),
(518,0,l)
);
},
{
closed = 1;
nodes = (
(363,510,o),
(408,499,o),
(447,478,cs),
(524,434,o),
(568,353,o),
(568,250,cs),
(568,199,o),
(557,153,o),
(536,114,cs),
(494,35,o),
(414,-10,o),
(314,-10,cs),
(262,-10,o),
(216,1,o),
(177,23,cs),
(97,66,o),
(52,147,o),
(52,250,cs),
(52,301,o),
(63,347,o),
(85,386,cs),
(128,465,o),
(210,510,o),
(314,510,cs)
);
},
{
closed = 1;
nodes = (
(384,44,o),
(433,63,o),
(472,101,cs),
(510,139,o),
(528,188,o),
(528,250,cs),
(528,312,o),
(510,361,o),
(472,399,cs),
(433,437,o),
(384,456,o),
(322,456,cs),
(260,456,o),
(210,437,o),
(172,399,cs),
(134,361,o),
(115,312,o),
(115,250,cs),
(115,188,o),
(134,139,o),
(172,101,cs),
(210,63,o),
(260,44,o),
(322,44,cs)
);
}
);
width = 663;
}
);
leftKerningGroup = a2;
rightKerningGroup = d1;
unicode = 100;
},
{
glyphname = e;
layers = (
{
anchors = (
{
name = m.uni0321_3;
position = "{310, 0}";
},
{
name = t.uni0308_1_3;
position = "{300, 500}";
},
{
name = m.uni0328_3;
position = "{310, -10}";
}
);
layerId = "DC3AF673-8462-4C12-8448-8A8C8FBD5668";
shapes = (
{
closed = 1;
nodes = (
(428,303,l),
(396,261,l),
(401,295,o),
(394,321,o),
(375,340,cs),
(356,358,o),
(331,368,o),
(298,368,cs),
(267,368,o),
(241,358,o),
(221,338,cs),
(201,318,o),
(191,292,o),
(191,258,cs),
(191,240,ls),
(191,219,o),
(197,200,o),
(209,184,c),
(231,151,o),
(275,132,o),
(330,132,cs),
(385,132,o),
(431,147,o),
(470,176,c),
(522,62,l),
(470,16,o),
(400,-10,o),
(308,-10,cs),
(253,-10,o),
(204,1,o),
(162,23,cs),
(76,66,o),
(27,147,o),
(27,250,cs),
(27,301,o),
(38,347,o),
(61,386,c),
(105,465,o),
(191,510,o),
(298,510,cs),
(347,510,o),
(391,499,o),
(431,477,cs),
(508,432,o),
(554,349,o),
(554,248,cs),
(554,219,l),
(162,219,l),
(162,303,l)
);
}
);
width = 581;
},
{
anchors = (
{
name = m.uni0321_3;
position = "{310, 0}";
},
{
name = t.uni0308_1_3;
position = "{300, 500}";
},
{
name = m.uni0328_3;
position = "{310, -10}";
}
);
layerId = "99EE65B6-DAB1-4E31-8CA0-6E6C34D1775F";
shapes = (
{
closed = 1;
nodes = (
(499,287,l),
(459,260,l),
(463,309,o),
(451,349,o),
(423,379,c),
(394,408,o),
(355,423,o),
(306,423,cs),
(258,423,o),
(219,408,o),
(189,379,cs),
(158,349,o),
(144,311,o),
(144,262,cs),
(144,237,ls),
(144,205,o),
(151,178,o),
(167,153,cs),
(197,104,o),
(256,77,o),
(330,77,cs),
(393,78,o),
(450,101,o),
(489,140,c),
(531,73,l),
(484,22,o),
(406,-10,o),
(316,-10,cs),
(262,-10,o),
(215,1,o),
(173,23,cs),
(90,66,o),
(43,147,o),
(43,250,cs),
(43,301,o),
(54,347,o),
(76,386,cs),
(119,465,o),
(202,510,o),
(306,510,cs),
(355,510,o),
(399,500,o),
(438,478,cs),
(514,436,o),
(558,356,o),
(558,256,cs),
(558,223,l),
(112,223,l),
(112,287,l)
);
}
);
width = 600;
},
{
anchors = (
{
name = m.uni0321_3;
position = "{310, 0}";
},
{
name = t.uni0308_1_3;
position = "{300, 500}";
},
{
name = m.uni0328_3;
position = "{310, -10}";
}
);
layerId = "754F3D2A-C810-4C1B-8FE5-1769993D30C0";
shapes = (
{
closed = 1;
nodes = (
(541,278,l),
(497,259,l),
(500,318,o),
(485,366,o),
(451,402,cs),
(417,438,o),
(370,456,o),
(311,456,cs),
(252,456,o),
(205,438,o),
(169,403,cs),
(132,368,o),
(115,322,o),
(115,264,cs),
(115,235,ls),
(115,197,o),
(124,164,o),
(142,135,cs),
(177,76,o),
(245,44,o),
(330,44,cs),
(398,45,o),
(461,73,o),
(500,118,c),
(536,80,l),
(493,25,o),
(410,-10,o),
(321,-10,cs),
(268,-10,o),
(221,1,o),
(180,23,cs),
(99,66,o),
(52,147,o),
(52,250,cs),
(52,301,o),
(63,347,o),
(85,386,cs),
(128,465,o),
(208,510,o),
(311,510,cs),
(360,510,o),
(404,500,o),
(442,479,cs),
(518,438,o),
(560,360,o),
(560,261,cs),
(560,225,l),
(82,225,l),
(82,278,l)
);
}
);
width = 612;
}
);
leftKerningGroup = a2;
rightKerningGroup = e;
unicode = 101;
},
{
glyphname = f;
layers = (
{
layerId = "DC3AF673-8462-4C12-8448-8A8C8FBD5668";
shapes = (
{
closed = 1;
nodes = (
(108,553,ls),
(108,689,o),
(184,760,o),
(325,760,cs),
(359,760,o),
(385,755,o),
(407,750,c),
(407,608,l),
(386,616,o),
(367,618,o),
(348,618,cs),
(298,618,o),
(272,592,o),
(272,542,cs),
(272,0,l),
(108,0,l)
);
},
{
closed = 1;
nodes = (
(8,500,l),
(397,500,l),
(397,358,l),
(8,358,l)
);
}
);
width = 415;
},
{
layerId = "99EE65B6-DAB1-4E31-8CA0-6E6C34D1775F";
shapes = (
{
closed = 1;
nodes = (
(116,584,ls),
(116,700,o),
(180,760,o),
(302,760,cs),
(328,760,o),
(357,755,o),
(376,750,c),
(376,663,l),
(357,669,o),
(330,673,o),
(309,673,cs),
(248,673,o),
(217,642,o),
(217,581,cs),
(217,0,l),
(116,0,l)
);
},
{
closed = 1;
nodes = (
(16,500,l),
(366,500,l),
(366,413,l),
(16,413,l)
);
}
);
width = 392;
},
{
layerId = "754F3D2A-C810-4C1B-8FE5-1769993D30C0";
shapes = (
{
closed = 1;
nodes = (
(121,603,ls),
(121,706,o),
(178,760,o),
(288,760,cs),
(310,760,o),
(340,755,o),
(357,750,c),
(357,696,l),
(340,701,o),
(307,706,o),
(286,706,cs),
(218,706,o),
(184,672,o),
(184,604,cs),
(184,0,l),
(121,0,l)
);
},
{
closed = 1;
nodes = (
(21,500,l),
(347,500,l),
(347,446,l),
(21,446,l)
);
}
);
width = 378;
}
);
leftKerningGroup = f2;
rightKerningGroup = f;
unicode = 102;
},
{
glyphname = g;
layers = (
{
guides = (
{
angle = 90;
position = "{-708, 0}";
}
);
layerId = "DC3AF673-8462-4C12-8448-8A8C8FBD5668";
shapes = (
{
closed = 1;
nodes = (
(340,-133,o),
(370,-118,o),
(370,-85,cs),
(370,-52,o),
(340,-37,o),
(272,-37,cs),
(204,-37,o),
(172,-52,o),
(172,-85,cs),
(172,-118,o),
(204,-133,o),
(272,-133,cs)
);
},
{
closed = 1;
nodes = (
(340,510,o),
(391,486,o),
(428,449,cs),
(459,418,o),
(478,369,o),
(478,330,cs),
(478,223,o),
(399,160,o),
(262,160,cs),
(125,160,o),
(45,223,o),
(45,330,cs),
(45,384,o),
(64,428,o),
(104,461,cs),
(142,494,o),
(194,510,o),
(262,510,cs)
);
},
{
closed = 1;
nodes = (
(299,268,o),
(321,288,o),
(321,318,cs),
(321,349,o),
(299,368,o),
(262,368,cs),
(225,368,o),
(203,349,o),
(203,318,cs),
(203,288,o),
(225,268,o),
(262,268,cs)
);
},
{
closed = 1;
nodes = (
(552,358,l),
(524,358,o),
(500,358,o),
(476,355,cs),
(452,353,o),
(431,348,o),
(411,343,c),
(385,407,l),
(402,433,o),
(416,452,o),
(430,465,cs),
(458,491,o),
(491,500,o),
(552,500,c)
);
},
{
closed = 1;
nodes = (
(272,105,ls),
(452,105,o),
(545,48,o),
(545,-56,cs),
(545,-172,o),
(450,-240,o),
(272,-240,cs),
(92,-240,o),
(8,-177,o),
(8,-90,cs),
(8,-12,o),
(69,26,o),
(140,34,c),
(144,30,l),
(75,34,o),
(43,69,o),
(43,121,cs),
(43,171,o),
(92,209,o),
(157,222,c),
(229,179,l),
(211,166,o),
(200,152,o),
(200,136,cs),
(200,119,o),
(218,105,o),
(247,105,c)
);
}
);
width = 552;
},
{
guides = (
{
angle = 90;
position = "{-708, 0}";
}
);
layerId = "99EE65B6-DAB1-4E31-8CA0-6E6C34D1775F";
shapes = (
{
closed = 1;
nodes = (
(362,-164,o),
(417,-136,o),
(417,-85,cs),
(417,-34,o),
(362,-6,o),
(264,-6,cs),
(170,-6,o),
(117,-34,o),
(117,-85,cs),
(117,-136,o),
(170,-164,o),
(264,-164,cs)
);
},
{
closed = 1;
nodes = (
(324,510,o),
(375,488,o),
(410,455,cs),
(442,424,o),
(462,378,o),
(462,330,cs),
(462,223,o),
(386,160,o),
(254,160,cs),
(123,160,o),
(45,223,o),
(45,330,cs),
(45,386,o),
(63,430,o),
(101,462,cs),
(138,494,o),
(188,510,o),
(254,510,cs)
);
},
{
closed = 1;
nodes = (
(323,229,o),
(364,266,o),
(364,326,cs),
(364,387,o),
(323,423,o),
(254,423,cs),
(185,423,o),
(144,387,o),
(144,326,cs),
(144,266,o),
(185,229,o),
(254,229,cs)
);
},
{
closed = 1;
nodes = (
(544,413,l),
(513,413,o),
(488,411,o),
(467,405,cs),
(446,400,o),
(425,391,o),
(405,377,c),
(378,420,l),
(395,441,o),
(410,457,o),
(424,468,cs),
(454,490,o),
(489,500,o),
(544,500,c)
);
},
{
closed = 1;
nodes = (
(264,82,ls),
(429,82,o),
(522,24,o),
(522,-75,cs),
(522,-179,o),
(428,-240,o),
(264,-240,cs),
(103,-240,o),
(16,-183,o),
(16,-90,cs),
(16,-18,o),
(78,35,o),
(164,42,c),
(167,31,l),
(94,35,o),
(54,65,o),
(54,117,cs),
(54,162,o),
(94,199,o),
(150,211,c),
(193,181,l),
(168,169,o),
(153,151,o),
(153,130,cs),
(153,100,o),
(174,82,o),
(216,82,cs)
);
}
);
width = 551;
},
{
guides = (
{
angle = 90;
position = "{-708, 0}";
}
);
layerId = "754F3D2A-C810-4C1B-8FE5-1769993D30C0";
shapes = (
{
closed = 1;
nodes = (
(375,-183,o),
(445,-147,o),
(445,-85,cs),
(445,-23,o),
(375,13,o),
(259,13,cs),
(149,13,o),
(84,-23,o),
(84,-85,cs),
(84,-147,o),
(149,-183,o),
(259,-183,cs)
);
},
{
closed = 1;
nodes = (
(315,510,o),
(366,489,o),
(399,459,cs),
(432,428,o),
(453,383,o),
(453,330,cs),
(453,223,o),
(378,160,o),
(249,160,cs),
(121,160,o),
(45,223,o),
(45,330,cs),
(45,387,o),
(63,431,o),
(99,463,cs),
(135,494,o),
(184,510,o),
(249,510,cs)
);
},
{
closed = 1;
nodes = (
(338,206,o),
(390,253,o),
(390,331,cs),
(390,409,o),
(338,456,o),
(249,456,cs),
(161,456,o),
(109,409,o),
(109,331,cs),
(109,253,o),
(161,206,o),
(249,206,cs)
);
},
{
closed = 1;
nodes = (
(539,446,l),
(507,446,o),
(481,443,o),
(462,435,cs),
(443,428,o),
(422,416,o),
(401,397,c),
(373,428,l),
(390,446,o),
(406,460,o),
(421,470,cs),
(452,490,o),
(487,500,o),
(539,500,c)
);
},
{
closed = 1;
nodes = (
(259,68,ls),
(415,68,o),
(508,9,o),
(508,-87,cs),
(508,-183,o),
(415,-240,o),
(259,-240,cs),
(110,-240,o),
(21,-186,o),
(21,-90,cs),
(21,-21,o),
(83,41,o),
(179,47,c),
(181,32,l),
(105,36,o),
(61,63,o),
(61,115,cs),
(61,157,o),
(95,193,o),
(145,205,c),
(171,182,l),
(142,171,o),
(125,151,o),
(125,126,cs),
(125,89,o),
(148,68,o),
(197,68,c)
);
}
);
width = 550;
}
);
leftKerningGroup = a2;
rightKerningGroup = g;
unicode = 103;
},
{
glyphname = h;
layers = (
{
layerId = "DC3AF673-8462-4C12-8448-8A8C8FBD5668";
shapes = (
{
closed = 1;
nodes = (
(57,760,l),
(220,760,l),
(220,0,l),
(57,0,l)
);
},
{
closed = 1;
nodes = (
(393,278,ls),
(393,331,o),
(366,368,o),
(310,368,cs),
(291,368,o),
(275,365,o),
(262,356,c),
(235,340,o),
(220,307,o),
(220,268,c),
(178,268,l),
(178,319,o),
(187,363,o),
(205,400,cs),
(240,473,o),
(303,510,o),
(378,510,cs),
(433,510,o),
(476,492,o),
(508,455,cs),
(541,418,o),
(557,371,o),
(557,313,cs),
(557,0,l),
(393,0,l)
);
}
);
width = 603;
},
{
layerId = "99EE65B6-DAB1-4E31-8CA0-6E6C34D1775F";
shapes = (
{
closed = 1;
nodes = (
(73,760,l),
(173,760,l),
(173,0,l),
(73,0,l)
);
},
{
closed = 1;
nodes = (
(424,286,ls),
(424,379,o),
(380,423,o),
(310,423,cs),
(287,423,o),
(264,419,o),
(244,409,cs),
(203,388,o),
(173,343,o),
(173,276,c),
(139,276,l),
(139,329,o),
(148,373,o),
(167,409,cs),
(203,479,o),
(266,510,o),
(339,510,cs),
(394,510,o),
(439,492,o),
(474,456,cs),
(509,420,o),
(526,367,o),
(526,297,cs),
(526,0,l),
(424,0,l)
);
}
);
width = 587;
},
{
layerId = "754F3D2A-C810-4C1B-8FE5-1769993D30C0";
shapes = (
{
closed = 1;
nodes = (
(82,760,l),
(145,760,l),
(145,0,l),
(82,0,l)
);
},
{
closed = 1;
nodes = (
(443,291,ls),
(443,407,o),
(389,456,o),
(310,456,cs),
(284,456,o),
(258,451,o),
(233,440,cs),
(183,417,o),
(145,365,o),
(145,281,c),
(116,281,l),
(116,335,o),
(125,379,o),
(144,414,cs),
(181,482,o),
(244,510,o),
(316,510,cs),
(371,510,o),
(417,492,o),
(453,457,cs),
(489,421,o),
(507,365,o),
(507,288,cs),
(507,0,l),
(443,0,l)
);
}
);
width = 578;
}
);
leftKerningGroup = h;
rightKerningGroup = a;
unicode = 104;
},
{
glyphname = i;
layers = (
{
layerId = "DC3AF673-8462-4C12-8448-8A8C8FBD5668";
shapes = (
{
closed = 1;
nodes = (
(224,500,l),
(224,0,l),
(60,0,l),
(60,500,l)
);
},
{
closed = 1;
nodes = (
(194,760,o),
(233,725,o),
(233,675,cs),
(233,625,o),
(194,590,o),
(142,590,cs),
(90,590,o),
(51,625,o),
(51,675,cs),
(51,725,o),
(90,760,o),
(142,760,cs)
);
}
);
width = 284;
},
{
layerId = "99EE65B6-DAB1-4E31-8CA0-6E6C34D1775F";
shapes = (
{
closed = 1;
nodes = (
(179,500,l),
(179,0,l),
(78,0,l),
(78,500,l)
);
},
{
closed = 1;
nodes = (
(165,760,o),
(192,734,o),
(192,699,cs),
(192,663,o),
(165,637,o),
(129,637,cs),
(92,637,o),
(65,663,o),
(65,699,cs),
(65,734,o),
(92,760,o),
(129,760,cs)
);
}
);
width = 257;
},
{
layerId = "754F3D2A-C810-4C1B-8FE5-1769993D30C0";
shapes = (
{
closed = 1;
nodes = (
(152,500,l),
(152,0,l),
(89,0,l),
(89,500,l)
);
},
{
closed = 1;
nodes = (
(148,760,o),
(168,740,o),
(168,713,cs),
(168,685,o),
(148,665,o),
(121,665,cs),
(93,665,o),
(74,685,o),
(74,713,cs),
(74,740,o),
(93,760,o),
(121,760,cs)
);
}
);
width = 241;
}
);
leftKerningGroup = i2;
rightKerningGroup = i;
unicode = 105;
},
{
glyphname = j;
layers = (
{
layerId = "DC3AF673-8462-4C12-8448-8A8C8FBD5668";
shapes = (
{
closed = 1;
nodes = (
(127,590,o),
(89,625,o),
(89,675,cs),
(89,725,o),
(127,760,o),
(179,760,cs),
(232,760,o),
(270,725,o),
(270,675,cs),
(270,625,o),
(232,590,o),
(179,590,cs)
);
},
{
closed = 1;
nodes = (
(10,-113,l),
(67,-100,o),
(99,-54,o),
(99,12,cs),
(99,500,l),
(262,500,l),
(262,12,ls),
(262,-116,o),
(204,-207,o),
(74,-238,c)
);
}
);
width = 321;
},
{
layerId = "99EE65B6-DAB1-4E31-8CA0-6E6C34D1775F";
shapes = (
{
closed = 1;
nodes = (
(108,637,o),
(82,663,o),
(82,699,cs),
(82,734,o),
(108,760,o),
(145,760,cs),
(182,760,o),
(208,734,o),
(208,699,cs),
(208,663,o),
(182,637,o),
(145,637,cs)
);
},
{
closed = 1;
nodes = (
(10,-159,l),
(66,-147,o),
(95,-108,o),
(95,-42,cs),
(95,500,l),
(196,500,l),
(196,-42,ls),
(196,-155,o),
(147,-221,o),
(42,-240,c)
);
}
);
width = 274;
},
{
layerId = "754F3D2A-C810-4C1B-8FE5-1769993D30C0";
shapes = (
{
closed = 1;
nodes = (
(97,665,o),
(77,685,o),
(77,713,cs),
(77,740,o),
(97,760,o),
(124,760,cs),
(152,760,o),
(171,740,o),
(171,713,cs),
(171,685,o),
(152,665,o),
(124,665,cs)
);
},
{
closed = 1;
nodes = (
(10,-186,l),
(66,-175,o),
(93,-140,o),
(93,-75,cs),
(93,500,l),
(156,500,l),
(156,-75,ls),
(156,-178,o),
(113,-230,o),
(23,-241,c)
);
}
);
width = 245;
}
);
rightKerningGroup = j;
unicode = 106;
},
{
glyphname = k;
layers = (
{
layerId = "DC3AF673-8462-4C12-8448-8A8C8FBD5668";
shapes = (
{
closed = 1;
nodes = (
(373,268,l),
(334,238,l),
(180,120,l),
(180,271,l),
(387,500,l),
(592,500,l)
);
},
{
closed = 1;
nodes = (
(220,760,l),
(220,0,l),
(57,0,l),
(57,760,l)
);
},
{
closed = 1;
nodes = (
(602,0,l),
(395,0,l),
(279,242,l),
(411,340,l)
);
}
);
width = 612;
},
{
layerId = "99EE65B6-DAB1-4E31-8CA0-6E6C34D1775F";
shapes = (
{
closed = 1;
nodes = (
(314,277,l),
(287,257,l),
(133,120,l),
(133,223,l),
(403,500,l),
(537,500,l)
);
},
{
closed = 1;
nodes = (
(173,760,l),
(173,0,l),
(73,0,l),
(73,760,l)
);
},
{
closed = 1;
nodes = (
(547,0,l),
(419,0,l),
(250,263,l),
(327,328,l)
);
}
);
width = 557;
},
{
layerId = "754F3D2A-C810-4C1B-8FE5-1769993D30C0";
shapes = (
{
closed = 1;
nodes = (
(278,282,l),
(259,269,l),
(105,120,l),
(105,194,l),
(412,500,l),
(504,500,l)
);
},
{
closed = 1;
nodes = (
(145,760,l),
(145,0,l),
(82,0,l),
(82,760,l)
);
},
{
closed = 1;
nodes = (
(514,0,l),
(433,0,l),
(232,275,l),
(276,321,l)
);
}
);
width = 524;
}
);
leftKerningGroup = h;
rightKerningGroup = k;
unicode = 107;
},
{
glyphname = l;
layers = (
{
layerId = "DC3AF673-8462-4C12-8448-8A8C8FBD5668";
shapes = (
{
closed = 1;
nodes = (
(224,760,l),
(224,0,l),
(61,0,l),
(61,760,l)
);
}
);
width = 284;
},
{
layerId = "99EE65B6-DAB1-4E31-8CA0-6E6C34D1775F";
shapes = (
{
closed = 1;
nodes = (
(178,760,l),
(178,0,l),
(77,0,l),
(77,760,l)
);
}
);
width = 255;
},
{
layerId = "754F3D2A-C810-4C1B-8FE5-1769993D30C0";
shapes = (
{
closed = 1;
nodes = (
(150,760,l),
(150,0,l),
(87,0,l),
(87,760,l)
);
}
);
width = 237;
}
);
leftKerningGroup = h;
rightKerningGroup = l;
unicode = 108;
},
{
glyphname = m;
layers = (
{
layerId = "DC3AF673-8462-4C12-8448-8A8C8FBD5668";
shapes = (
{
closed = 1;
nodes = (
(393,278,ls),
(393,331,o),
(366,368,o),
(310,368,cs),
(291,368,o),
(275,365,o),
(262,356,c),
(235,340,o),
(220,307,o),
(220,268,c),
(178,268,l),
(178,319,o),
(187,363,o),
(205,400,cs),
(240,473,o),
(303,510,o),
(378,510,cs),
(433,510,o),
(476,492,o),
(508,455,cs),
(541,418,o),
(557,371,o),
(557,313,cs),
(557,0,l),
(393,0,l)
);
},
{
closed = 1;
nodes = (
(57,500,l),
(220,500,l),
(220,0,l),
(57,0,l)
);
},
{
closed = 1;
nodes = (
(730,278,ls),
(730,331,o),
(703,368,o),
(647,368,cs),
(628,368,o),
(612,365,o),
(599,356,c),
(572,340,o),
(557,307,o),
(557,268,c),
(515,268,l),
(515,319,o),
(524,363,o),
(542,400,cs),
(577,473,o),
(640,510,o),
(715,510,cs),
(770,510,o),
(813,492,o),
(845,455,cs),
(878,418,o),
(893,371,o),
(893,313,cs),
(893,0,l),
(730,0,l)
);
}
);
width = 940;
},
{
layerId = "99EE65B6-DAB1-4E31-8CA0-6E6C34D1775F";
shapes = (
{
closed = 1;
nodes = (
(424,286,ls),
(424,379,o),
(380,423,o),
(310,423,cs),
(287,423,o),
(264,419,o),
(244,409,cs),
(203,388,o),
(173,343,o),
(173,276,c),
(139,276,l),
(139,329,o),
(148,373,o),
(167,409,cs),
(203,479,o),
(266,510,o),
(339,510,cs),
(394,510,o),
(439,492,o),
(474,456,cs),
(509,420,o),
(526,367,o),
(526,297,cs),
(526,0,l),
(424,0,l)
);
},
{
closed = 1;
nodes = (
(73,500,l),
(173,500,l),
(173,0,l),
(73,0,l)
);
},
{
closed = 1;
nodes = (
(777,286,ls),
(777,379,o),
(732,423,o),
(663,423,cs),
(639,423,o),
(617,419,o),
(597,409,cs),
(555,388,o),
(526,343,o),
(526,276,c),
(492,276,l),
(492,329,o),
(501,373,o),
(520,409,cs),
(556,479,o),
(619,510,o),
(692,510,cs),
(747,510,o),
(792,492,o),
(826,456,cs),
(861,420,o),
(877,367,o),
(877,297,cs),
(877,0,l),
(777,0,l)
);
}
);
width = 940;
},
{
layerId = "754F3D2A-C810-4C1B-8FE5-1769993D30C0";
shapes = (
{
closed = 1;
nodes = (
(443,291,ls),
(443,407,o),
(389,456,o),
(310,456,cs),
(284,456,o),
(258,451,o),
(233,440,cs),
(183,417,o),
(145,365,o),
(145,281,c),
(116,281,l),
(116,335,o),
(125,379,o),
(144,414,cs),
(181,482,o),
(244,510,o),
(316,510,cs),
(371,510,o),
(417,492,o),
(453,457,cs),
(489,421,o),
(507,365,o),
(507,288,cs),
(507,0,l),
(443,0,l)
);
},
{
closed = 1;
nodes = (
(82,500,l),
(145,500,l),
(145,0,l),
(82,0,l)
);
},
{
closed = 1;
nodes = (
(805,291,ls),
(805,407,o),
(750,456,o),
(672,456,cs),
(645,456,o),
(620,451,o),
(595,440,cs),
(544,417,o),
(507,365,o),
(507,281,c),
(478,281,l),
(478,335,o),
(487,379,o),
(506,414,cs),
(543,482,o),
(606,510,o),
(678,510,cs),
(733,510,o),
(779,492,o),
(815,457,c),
(850,421,o),
(868,365,o),
(868,288,cs),
(868,0,l),
(805,0,l)
);
}
);
width = 940;
}
);
leftKerningGroup = m;
rightKerningGroup = a;
unicode = 109;
},
{
glyphname = n;
layers = (
{
layerId = "DC3AF673-8462-4C12-8448-8A8C8FBD5668";
shapes = (
{
closed = 1;
nodes = (
(393,278,ls),
(393,331,o),
(366,368,o),
(310,368,cs),
(291,368,o),
(275,365,o),
(262,356,c),
(235,340,o),
(220,307,o),
(220,268,c),
(178,268,l),
(178,319,o),
(187,363,o),
(205,400,cs),
(240,473,o),
(303,510,o),
(378,510,cs),
(433,510,o),
(476,492,o),
(508,455,cs),
(541,418,o),
(557,371,o),
(557,313,cs),
(557,0,l),
(393,0,l)
);
},
{
closed = 1;
nodes = (
(57,500,l),
(220,500,l),
(220,0,l),
(57,0,l)
);
}
);
width = 603;
},
{
layerId = "99EE65B6-DAB1-4E31-8CA0-6E6C34D1775F";
shapes = (
{
closed = 1;
nodes = (
(424,286,ls),
(424,379,o),
(380,423,o),
(310,423,cs),
(287,423,o),
(264,419,o),
(244,409,cs),
(203,388,o),
(173,343,o),
(173,276,c),
(139,276,l),
(139,329,o),
(148,373,o),
(167,409,cs),
(203,479,o),
(266,510,o),
(339,510,cs),
(394,510,o),
(439,492,o),
(474,456,cs),
(509,420,o),
(526,367,o),
(526,297,cs),
(526,0,l),
(424,0,l)
);
},
{
closed = 1;
nodes = (
(73,500,l),
(173,500,l),
(173,0,l),
(73,0,l)
);
}
);
width = 587;
},
{
layerId = "754F3D2A-C810-4C1B-8FE5-1769993D30C0";
shapes = (
{
closed = 1;
nodes = (
(443,291,ls),
(443,407,o),
(389,456,o),
(310,456,cs),
(284,456,o),
(258,451,o),
(233,440,cs),
(183,417,o),
(145,365,o),
(145,281,c),
(116,281,l),
(116,335,o),
(125,379,o),
(144,414,cs),
(181,482,o),
(244,510,o),
(316,510,cs),
(371,510,o),
(417,492,o),
(453,457,cs),
(489,421,o),
(507,365,o),
(507,288,cs),
(507,0,l),
(443,0,l)
);
},
{
closed = 1;
nodes = (
(82,500,l),
(145,500,l),
(145,0,l),
(82,0,l)
);
}
);
width = 578;
}
);
leftKerningGroup = m;
rightKerningGroup = a;
unicode = 110;
},
{
glyphname = o;
layers = (
{
anchors = (
{
name = m.uni0321_3;
position = "{300, 0}";
},
{
name = t.uni0308_1_3;
position = "{300, 500}";
},
{
name = t.uni0335_2;
position = "{300, 250}";
},
{
name = m.uni0328_3;
position = "{300, -10}";
},
{
name = t.uni031B_3;
position = "{486, 438}";
}
);
layerId = "DC3AF673-8462-4C12-8448-8A8C8FBD5668";
shapes = (
{
closed = 1;
nodes = (
(350,510,o),
(398,499,o),
(439,478,cs),
(521,434,o),
(567,353,o),
(567,250,cs),
(567,199,o),
(556,153,o),
(534,114,cs),
(489,35,o),
(404,-10,o),
(297,-10,cs),
(244,-10,o),
(197,1,o),
(156,23,cs),
(74,66,o),
(27,147,o),
(27,250,cs),
(27,301,o),
(38,347,o),
(61,386,c),
(105,465,o),
(190,510,o),
(297,510,cs)
);
},
{
closed = 1;
nodes = (
(329,132,o),
(355,143,o),
(374,165,c),
(394,186,o),
(403,215,o),
(403,250,cs),
(403,286,o),
(394,315,o),
(374,337,cs),
(355,357,o),
(329,368,o),
(297,368,cs),
(265,368,o),
(239,357,o),
(219,337,c),
(200,315,o),
(190,286,o),
(190,250,cs),
(190,215,o),
(200,186,o),
(219,165,cs),
(239,143,o),
(265,132,o),
(297,132,cs)
);
}
);
width = 593;
},
{
anchors = (
{
name = m.uni0321_3;
position = "{300, 0}";
},
{
name = t.uni0308_1_3;
position = "{300, 500}";
},
{
name = t.uni0335_2;
position = "{300, 250}";
},
{
name = m.uni0328_3;
position = "{300, -10}";
},
{
name = t.uni031B_3;
position = "{486, 438}";
}
);
layerId = "99EE65B6-DAB1-4E31-8CA0-6E6C34D1775F";
shapes = (
{
closed = 1;
nodes = (
(366,510,o),
(414,499,o),
(455,478,cs),
(537,434,o),
(583,353,o),
(583,250,cs),
(583,199,o),
(572,153,o),
(550,114,cs),
(505,35,o),
(420,-10,o),
(313,-10,cs),
(260,-10,o),
(213,1,o),
(172,23,cs),
(90,66,o),
(43,147,o),
(43,250,cs),
(43,301,o),
(54,347,o),
(77,386,c),
(121,465,o),
(206,510,o),
(313,510,cs)
);
},
{
closed = 1;
nodes = (
(363,77,o),
(404,93,o),
(435,125,cs),
(467,157,o),
(481,198,o),
(481,250,cs),
(481,302,o),
(467,344,o),
(435,376,cs),
(404,407,o),
(363,423,o),
(313,423,cs),
(262,423,o),
(221,407,o),
(190,376,cs),
(159,344,o),
(143,302,o),
(143,250,cs),
(143,198,o),
(159,157,o),
(190,125,cs),
(221,93,o),
(262,77,o),
(313,77,cs)
);
}
);
width = 624;
},
{
anchors = (
{
name = m.uni0321_3;
position = "{300, 0}";
},
{
name = t.uni0308_1_3;
position = "{300, 500}";
},
{
name = t.uni0335_2;
position = "{300, 250}";
},
{
name = m.uni0328_3;
position = "{300, -10}";
},
{
name = t.uni031B_3;
position = "{486, 438}";
}
);
layerId = "754F3D2A-C810-4C1B-8FE5-1769993D30C0";
shapes = (
{
closed = 1;
nodes = (
(375,510,o),
(423,499,o),
(464,478,cs),
(546,434,o),
(592,353,o),
(592,250,cs),
(592,199,o),
(581,153,o),
(559,114,cs),
(514,35,o),
(429,-10,o),
(322,-10,cs),
(269,-10,o),
(222,1,o),
(181,23,cs),
(99,66,o),
(52,147,o),
(52,250,cs),
(52,301,o),
(63,347,o),
(86,386,c),
(130,465,o),
(215,510,o),
(322,510,cs)
);
},
{
closed = 1;
nodes = (
(384,44,o),
(433,63,o),
(472,101,cs),
(510,139,o),
(528,188,o),
(528,250,cs),
(528,312,o),
(510,361,o),
(472,399,cs),
(433,437,o),
(384,456,o),
(322,456,cs),
(260,456,o),
(210,437,o),
(172,399,cs),
(134,361,o),
(115,312,o),
(115,250,cs),
(115,188,o),
(134,139,o),
(172,101,cs),
(210,63,o),
(260,44,o),
(322,44,cs)
);
}
);
width = 643;
}
);
leftKerningGroup = a2;
rightKerningGroup = b;
unicode = 111;
},
{
glyphname = p;
layers = (
{
layerId = "DC3AF673-8462-4C12-8448-8A8C8FBD5668";
shapes = (
{
closed = 1;
nodes = (
(220,425,l),
(190,250,l),
(220,74,l),
(220,-240,l),
(57,-240,l),
(57,500,l),
(208,500,l)
);
},
{
closed = 1;
nodes = (
(395,510,o),
(435,499,o),
(472,478,c),
(544,434,o),
(587,353,o),
(587,250,cs),
(587,199,o),
(577,153,o),
(557,114,cs),
(517,35,o),
(440,-10,o),
(350,-10,cs),
(310,-10,o),
(276,1,o),
(247,23,cs),
(190,66,o),
(158,146,o),
(158,250,cs),
(158,302,o),
(166,348,o),
(181,387,cs),
(212,465,o),
(270,510,o),
(350,510,cs)
);
},
{
closed = 1;
nodes = (
(349,132,o),
(375,143,o),
(394,165,c),
(414,186,o),
(423,215,o),
(423,250,cs),
(423,286,o),
(414,315,o),
(394,337,cs),
(375,357,o),
(349,368,o),
(317,368,cs),
(285,368,o),
(259,357,o),
(239,337,c),
(220,315,o),
(210,286,o),
(210,250,cs),
(210,215,o),
(220,186,o),
(239,165,cs),
(259,143,o),
(285,132,o),
(317,132,cs)
);
}
);
width = 613;
},
{
layerId = "99EE65B6-DAB1-4E31-8CA0-6E6C34D1775F";
shapes = (
{
closed = 1;
nodes = (
(173,402,l),
(143,250,l),
(173,98,l),
(173,-240,l),
(73,-240,l),
(73,500,l),
(169,500,l)
);
},
{
closed = 1;
nodes = (
(399,510,o),
(443,499,o),
(481,478,cs),
(558,434,o),
(603,353,o),
(603,250,cs),
(603,199,o),
(592,153,o),
(571,114,cs),
(528,35,o),
(449,-10,o),
(350,-10,cs),
(304,-10,o),
(264,1,o),
(228,23,cs),
(159,66,o),
(119,147,o),
(119,250,cs),
(119,301,o),
(129,347,o),
(147,386,cs),
(185,465,o),
(258,510,o),
(350,510,cs)
);
},
{
closed = 1;
nodes = (
(383,77,o),
(424,93,o),
(455,125,cs),
(487,157,o),
(501,198,o),
(501,250,cs),
(501,302,o),
(487,344,o),
(455,376,cs),
(424,407,o),
(383,423,o),
(333,423,cs),
(282,423,o),
(241,407,o),
(210,376,cs),
(179,344,o),
(163,302,o),
(163,250,cs),
(163,198,o),
(179,157,o),
(210,125,cs),
(241,93,o),
(282,77,o),
(333,77,cs)
);
}
);
width = 644;
},
{
layerId = "754F3D2A-C810-4C1B-8FE5-1769993D30C0";
shapes = (
{
closed = 1;
nodes = (
(145,388,l),
(115,250,l),
(145,112,l),
(145,-240,l),
(82,-240,l),
(82,500,l),
(146,500,l)
);
},
{
closed = 1;
nodes = (
(401,510,o),
(448,499,o),
(487,478,cs),
(567,434,o),
(612,353,o),
(612,250,cs),
(612,199,o),
(601,153,o),
(580,114,cs),
(535,35,o),
(454,-10,o),
(350,-10,cs),
(300,-10,o),
(256,1,o),
(217,23,cs),
(140,66,o),
(96,147,o),
(96,250,cs),
(96,301,o),
(106,347,o),
(127,386,cs),
(169,465,o),
(250,510,o),
(350,510,cs)
);
},
{
closed = 1;
nodes = (
(404,44,o),
(453,63,o),
(492,101,cs),
(530,139,o),
(548,188,o),
(548,250,cs),
(548,312,o),
(530,361,o),
(492,399,cs),
(453,437,o),
(404,456,o),
(342,456,cs),
(280,456,o),
(230,437,o),
(192,399,cs),
(154,361,o),
(135,312,o),
(135,250,cs),
(135,188,o),
(154,139,o),
(192,101,cs),
(230,63,o),
(280,44,o),
(342,44,cs)
);
}
);
width = 663;
}
);
leftKerningGroup = p;
rightKerningGroup = b;
unicode = 112;
},
{
glyphname = q;
layers = (
{
layerId = "DC3AF673-8462-4C12-8448-8A8C8FBD5668";
shapes = (
{
closed = 1;
nodes = (
(393,74,l),
(423,250,l),
(393,423,l),
(405,500,l),
(557,500,l),
(557,-240,l),
(393,-240,l)
);
},
{
closed = 1;
nodes = (
(294,510,o),
(331,499,o),
(362,478,c),
(423,434,o),
(455,354,o),
(455,250,cs),
(455,198,o),
(447,153,o),
(431,114,cs),
(399,36,o),
(337,-10,o),
(252,-10,cs),
(208,-10,o),
(170,1,o),
(136,23,cs),
(68,66,o),
(27,147,o),
(27,250,cs),
(27,301,o),
(37,347,o),
(56,386,cs),
(95,465,o),
(165,510,o),
(252,510,cs)
);
},
{
closed = 1;
nodes = (
(329,132,o),
(355,143,o),
(374,165,c),
(394,186,o),
(403,215,o),
(403,250,cs),
(403,286,o),
(394,315,o),
(374,337,cs),
(355,357,o),
(329,368,o),
(297,368,cs),
(265,368,o),
(239,357,o),
(219,337,c),
(200,315,o),
(190,286,o),
(190,250,cs),
(190,215,o),
(200,186,o),
(219,165,cs),
(239,143,o),
(265,132,o),
(297,132,cs)
);
}
);
width = 613;
},
{
layerId = "99EE65B6-DAB1-4E31-8CA0-6E6C34D1775F";
shapes = (
{
closed = 1;
nodes = (
(471,98,l),
(501,250,l),
(471,407,l),
(476,500,l),
(573,500,l),
(573,-240,l),
(471,-240,l)
);
},
{
closed = 1;
nodes = (
(338,510,o),
(379,499,o),
(415,478,c),
(486,434,o),
(526,353,o),
(526,250,cs),
(526,199,o),
(516,153,o),
(497,114,cs),
(458,35,o),
(385,-10,o),
(291,-10,cs),
(242,-10,o),
(199,1,o),
(162,23,cs),
(86,66,o),
(43,147,o),
(43,250,cs),
(43,301,o),
(53,347,o),
(74,386,cs),
(116,465,o),
(193,510,o),
(291,510,cs)
);
},
{
closed = 1;
nodes = (
(363,77,o),
(404,93,o),
(435,125,cs),
(467,157,o),
(481,198,o),
(481,250,cs),
(481,302,o),
(467,344,o),
(435,376,cs),
(404,407,o),
(363,423,o),
(313,423,cs),
(262,423,o),
(221,407,o),
(190,376,cs),
(159,344,o),
(143,302,o),
(143,250,cs),
(143,198,o),
(159,157,o),
(190,125,cs),
(221,93,o),
(262,77,o),
(313,77,cs)
);
}
);
width = 644;
},
{
layerId = "754F3D2A-C810-4C1B-8FE5-1769993D30C0";
shapes = (
{
closed = 1;
nodes = (
(518,112,l),
(548,250,l),
(518,398,l),
(518,500,l),
(582,500,l),
(582,-240,l),
(518,-240,l)
);
},
{
closed = 1;
nodes = (
(364,510,o),
(408,499,o),
(447,478,cs),
(524,434,o),
(568,353,o),
(568,250,cs),
(568,199,o),
(557,153,o),
(536,114,cs),
(494,35,o),
(414,-10,o),
(314,-10,cs),
(263,-10,o),
(216,1,o),
(177,23,cs),
(97,66,o),
(52,147,o),
(52,250,cs),
(52,301,o),
(63,347,o),
(85,386,cs),
(128,465,o),
(210,510,o),
(314,510,cs)
);
},
{
closed = 1;
nodes = (
(384,44,o),
(433,63,o),
(472,101,cs),
(510,139,o),
(528,188,o),
(528,250,cs),
(528,312,o),
(510,361,o),
(472,399,cs),
(433,437,o),
(384,456,o),
(322,456,cs),
(260,456,o),
(210,437,o),
(172,399,cs),
(134,361,o),
(115,312,o),
(115,250,cs),
(115,188,o),
(134,139,o),
(172,101,cs),
(210,63,o),
(260,44,o),
(322,44,cs)
);
}
);
width = 663;
}
);
leftKerningGroup = a2;
unicode = 113;
},
{
glyphname = r;
layers = (
{
layerId = "DC3AF673-8462-4C12-8448-8A8C8FBD5668";
shapes = (
{
closed = 1;
nodes = (
(432,316,l),
(394,343,o),
(355,358,o),
(315,358,cs),
(299,358,o),
(283,354,o),
(269,347,c),
(241,331,o),
(220,295,o),
(220,235,c),
(190,235,l),
(213,429,o),
(266,510,o),
(348,510,cs),
(391,510,o),
(434,495,o),
(474,466,c)
);
},
{
closed = 1;
nodes = (
(57,500,l),
(220,500,l),
(220,0,l),
(57,0,l)
);
}
);
width = 484;
},
{
layerId = "99EE65B6-DAB1-4E31-8CA0-6E6C34D1775F";
shapes = (
{
closed = 1;
nodes = (
(368,392,l),
(345,408,o),
(319,416,o),
(292,416,cs),
(272,416,o),
(254,411,o),
(235,401,c),
(200,379,o),
(173,331,o),
(173,259,c),
(143,259,l),
(156,425,o),
(219,510,o),
(309,510,cs),
(344,510,o),
(375,501,o),
(400,482,c)
);
},
{
closed = 1;
nodes = (
(73,500,l),
(173,500,l),
(173,0,l),
(73,0,l)
);
}
);
width = 410;
},
{
layerId = "754F3D2A-C810-4C1B-8FE5-1769993D30C0";
shapes = (
{
closed = 1;
nodes = (
(330,438,l),
(315,447,o),
(297,451,o),
(278,451,cs),
(256,451,o),
(236,445,o),
(215,433,c),
(175,407,o),
(145,353,o),
(145,273,c),
(115,273,l),
(122,422,o),
(190,510,o),
(286,510,cs),
(316,510,o),
(339,504,o),
(356,492,c)
);
},
{
closed = 1;
nodes = (
(82,500,l),
(145,500,l),
(145,0,l),
(82,0,l)
);
}
);
width = 366;
}
);
leftKerningGroup = m;
rightKerningGroup = r;
unicode = 114;
},
{
glyphname = s;
layers = (
{
layerId = "DC3AF673-8462-4C12-8448-8A8C8FBD5668";
shapes = (
{
closed = 1;
nodes = (
(321,510,o),
(395,493,o),
(446,464,c),
(401,343,l),
(355,364,o),
(296,380,o),
(251,380,cs),
(212,380,o),
(193,369,o),
(193,358,cs),
(193,351,o),
(200,345,o),
(212,339,cs),
(224,333,o),
(252,325,o),
(293,316,cs),
(411,288,o),
(466,238,o),
(466,152,cs),
(466,104,o),
(446,65,o),
(409,36,cs),
(370,5,o),
(317,-10,o),
(250,-10,cs),
(166,-10,o),
(86,9,o),
(28,45,c),
(64,181,l),
(122,144,o),
(197,120,o),
(250,120,cs),
(285,120,o),
(302,127,o),
(302,139,cs),
(302,152,o),
(283,166,o),
(208,185,cs),
(88,217,o),
(30,265,o),
(30,347,cs),
(30,379,o),
(38,406,o),
(56,432,cs),
(90,481,o),
(158,510,o),
(251,510,cs)
);
}
);
width = 494;
},
{
layerId = "99EE65B6-DAB1-4E31-8CA0-6E6C34D1775F";
shapes = (
{
closed = 1;
nodes = (
(311,510,o),
(383,489,o),
(435,450,c),
(397,375,l),
(348,407,o),
(290,427,o),
(238,427,cs),
(176,427,o),
(145,400,o),
(145,367,cs),
(145,352,o),
(154,339,o),
(171,328,cs),
(187,317,o),
(221,306,o),
(271,294,cs),
(394,264,o),
(449,218,o),
(449,136,cs),
(449,94,o),
(430,59,o),
(397,32,cs),
(361,4,o),
(313,-10,o),
(250,-10,cs),
(166,-10,o),
(89,15,o),
(36,56,c),
(70,135,l),
(121,97,o),
(190,73,o),
(250,73,cs),
(313,73,o),
(348,98,o),
(348,131,cs),
(348,162,o),
(317,185,o),
(219,210,cs),
(96,241,o),
(44,287,o),
(44,363,cs),
(44,390,o),
(51,415,o),
(67,438,cs),
(96,482,o),
(156,510,o),
(238,510,cs)
);
}
);
width = 485;
},
{
layerId = "754F3D2A-C810-4C1B-8FE5-1769993D30C0";
shapes = (
{
closed = 1;
nodes = (
(305,510,o),
(376,486,o),
(429,442,c),
(395,394,l),
(343,432,o),
(287,455,o),
(230,455,cs),
(154,455,o),
(116,419,o),
(116,372,cs),
(116,352,o),
(126,335,o),
(146,322,c),
(165,308,o),
(203,294,o),
(257,281,cs),
(384,249,o),
(438,206,o),
(438,127,cs),
(438,88,o),
(421,55,o),
(389,30,cs),
(356,3,o),
(310,-10,o),
(250,-10,cs),
(166,-10,o),
(91,18,o),
(41,63,c),
(73,108,l),
(121,68,o),
(185,45,o),
(250,45,cs),
(329,45,o),
(375,80,o),
(375,126,cs),
(375,168,o),
(338,197,o),
(226,225,cs),
(101,256,o),
(53,300,o),
(53,373,cs),
(53,397,o),
(59,421,o),
(73,442,cs),
(100,483,o),
(154,510,o),
(230,510,cs)
);
}
);
width = 479;
}
);
leftKerningGroup = s2;
rightKerningGroup = s;
unicode = 115;
},
{
glyphname = t;
layers = (
{
layerId = "DC3AF673-8462-4C12-8448-8A8C8FBD5668";
shapes = (
{
closed = 1;
nodes = (
(8,500,l),
(415,500,l),
(415,358,l),
(8,358,l)
);
},
{
closed = 1;
nodes = (
(263,640,l),
(263,202,ls),
(263,152,o),
(287,132,o),
(335,132,cs),
(357,132,o),
(377,138,o),
(393,150,c),
(413,26,l),
(379,2,o),
(333,-10,o),
(277,-10,cs),
(161,-10,o),
(100,50,o),
(100,167,cs),
(100,460,l),
(27,500,l),
(92,500,o),
(123,524,o),
(144,579,cs),
(167,640,l)
);
}
);
width = 423;
},
{
layerId = "99EE65B6-DAB1-4E31-8CA0-6E6C34D1775F";
shapes = (
{
closed = 1;
nodes = (
(16,500,l),
(345,500,l),
(345,413,l),
(16,413,l)
);
},
{
closed = 1;
nodes = (
(201,640,l),
(201,147,ls),
(201,101,o),
(225,77,o),
(271,77,cs),
(289,77,o),
(309,82,o),
(329,91,c),
(347,14,l),
(320,-2,o),
(286,-10,o),
(246,-10,cs),
(153,-10,o),
(100,41,o),
(100,136,cs),
(100,460,l),
(43,500,l),
(88,500,o),
(106,517,o),
(117,560,cs),
(136,640,l)
);
}
);
width = 364;
},
{
layerId = "754F3D2A-C810-4C1B-8FE5-1769993D30C0";
shapes = (
{
closed = 1;
nodes = (
(21,500,l),
(303,500,l),
(303,446,l),
(21,446,l)
);
},
{
closed = 1;
nodes = (
(163,640,l),
(163,114,ls),
(163,70,o),
(188,44,o),
(233,44,cs),
(248,44,o),
(268,48,o),
(291,55,c),
(308,6,l),
(284,-4,o),
(257,-10,o),
(227,-10,cs),
(148,-10,o),
(100,35,o),
(100,117,cs),
(100,460,l),
(52,500,l),
(85,500,o),
(95,512,o),
(101,548,cs),
(117,640,l)
);
}
);
width = 329;
}
);
leftKerningGroup = t;
rightKerningGroup = t1;
unicode = 116;
},
{
glyphname = u;
layers = (
{
layerId = "DC3AF673-8462-4C12-8448-8A8C8FBD5668";
shapes = (
{
closed = 1;
nodes = (
(168,-10,o),
(126,8,o),
(95,44,cs),
(63,81,o),
(47,128,o),
(47,187,cs),
(47,500,l),
(210,500,l),
(210,222,ls),
(210,169,o),
(242,132,o),
(288,132,cs),
(339,132,o),
(373,168,o),
(373,220,c),
(415,220,l),
(415,176,o),
(407,136,o),
(391,101,cs),
(358,30,o),
(296,-10,o),
(220,-10,cs)
);
},
{
closed = 1;
nodes = (
(373,120,l),
(373,500,l),
(537,500,l),
(537,0,l),
(385,0,l)
);
}
);
width = 593;
},
{
layerId = "99EE65B6-DAB1-4E31-8CA0-6E6C34D1775F";
shapes = (
{
closed = 1;
nodes = (
(187,-10,o),
(144,9,o),
(111,47,c),
(79,86,o),
(63,137,o),
(63,203,cs),
(63,500,l),
(163,500,l),
(163,214,ls),
(163,129,o),
(205,77,o),
(272,77,cs),
(355,77,o),
(404,131,o),
(404,220,c),
(439,220,l),
(439,174,o),
(431,133,o),
(415,99,cs),
(384,29,o),
(323,-10,o),
(244,-10,cs)
);
},
{
closed = 1;
nodes = (
(404,120,l),
(404,500,l),
(506,500,l),
(506,0,l),
(409,0,l)
);
}
);
width = 577;
},
{
layerId = "754F3D2A-C810-4C1B-8FE5-1769993D30C0";
shapes = (
{
closed = 1;
nodes = (
(199,-10,o),
(154,10,o),
(121,49,cs),
(88,89,o),
(72,142,o),
(72,212,cs),
(72,500,l),
(135,500,l),
(135,209,ls),
(135,105,o),
(182,44,o),
(263,44,cs),
(364,44,o),
(423,109,o),
(423,220,c),
(453,220,l),
(453,172,o),
(445,131,o),
(430,97,cs),
(399,28,o),
(339,-10,o),
(258,-10,cs)
);
},
{
closed = 1;
nodes = (
(423,120,l),
(423,500,l),
(487,500,l),
(487,0,l),
(423,0,l)
);
}
);
width = 568;
}
);
leftKerningGroup = u;
rightKerningGroup = u1;
unicode = 117;
},
{
glyphname = v;
layers = (
{
layerId = "DC3AF673-8462-4C12-8448-8A8C8FBD5668";
shapes = (
{
closed = 1;
nodes = (
(598,500,l),
(389,0,l),
(218,0,l),
(8,500,l),
(193,500,l),
(303,171,l),
(413,500,l)
);
}
);
width = 607;
},
{
layerId = "99EE65B6-DAB1-4E31-8CA0-6E6C34D1775F";
shapes = (
{
closed = 1;
nodes = (
(559,500,l),
(346,0,l),
(229,0,l),
(16,500,l),
(131,500,l),
(287,97,l),
(444,500,l)
);
}
);
width = 576;
},
{
layerId = "754F3D2A-C810-4C1B-8FE5-1769993D30C0";
shapes = (
{
closed = 1;
nodes = (
(536,500,l),
(320,0,l),
(236,0,l),
(21,500,l),
(93,500,l),
(278,52,l),
(463,500,l)
);
}
);
width = 557;
}
);
leftKerningGroup = v2;
rightKerningGroup = v;
unicode = 118;
},
{
glyphname = w;
layers = (
{
anchors = (
{
name = m.uni0321_3;
position = "{460, 0}";
},
{
name = t.uni0308_1_3;
position = "{460, 500}";
}
);
layerId = "DC3AF673-8462-4C12-8448-8A8C8FBD5668";
shapes = (
{
closed = 1;
nodes = (
(918,500,l),
(728,0,l),
(545,0,l),
(463,316,l),
(382,0,l),
(198,0,l),
(8,500,l),
(193,500,l),
(290,177,l),
(377,500,l),
(550,500,l),
(648,177,l),
(733,500,l)
);
}
);
width = 927;
},
{
anchors = (
{
name = m.uni0321_3;
position = "{460, 0}";
},
{
name = t.uni0308_1_3;
position = "{460, 500}";
}
);
layerId = "99EE65B6-DAB1-4E31-8CA0-6E6C34D1775F";
shapes = (
{
closed = 1;
nodes = (
(879,500,l),
(689,0,l),
(569,0,l),
(447,379,l),
(327,0,l),
(206,0,l),
(16,500,l),
(131,500,l),
(267,99,l),
(393,500,l),
(503,500,l),
(632,99,l),
(764,500,l)
);
}
);
width = 896;
},
{
anchors = (
{
name = m.uni0321_3;
position = "{460, 0}";
},
{
name = t.uni0308_1_3;
position = "{460, 500}";
}
);
layerId = "754F3D2A-C810-4C1B-8FE5-1769993D30C0";
shapes = (
{
closed = 1;
nodes = (
(856,500,l),
(666,0,l),
(583,0,l),
(438,417,l),
(294,0,l),
(211,0,l),
(21,500,l),
(93,500,l),
(253,52,l),
(402,500,l),
(475,500,l),
(623,52,l),
(783,500,l)
);
}
);
width = 877;
}
);
leftKerningGroup = v2;
rightKerningGroup = v;
unicode = 119;
},
{
glyphname = x;
layers = (
{
layerId = "DC3AF673-8462-4C12-8448-8A8C8FBD5668";
shapes = (
{
closed = 1;
nodes = (
(438,0,l),
(327,155,l),
(215,0,l),
(8,0,l),
(207,256,l),
(18,500,l),
(225,500,l),
(327,349,l),
(428,500,l),
(635,500,l),
(446,256,l),
(645,0,l)
);
}
);
width = 653;
},
{
layerId = "99EE65B6-DAB1-4E31-8CA0-6E6C34D1775F";
shapes = (
{
closed = 1;
nodes = (
(446,0,l),
(296,193,l),
(145,0,l),
(16,0,l),
(222,257,l),
(26,500,l),
(155,500,l),
(296,310,l),
(436,500,l),
(565,500,l),
(370,256,l),
(575,0,l)
);
}
);
width = 591;
},
{
layerId = "754F3D2A-C810-4C1B-8FE5-1769993D30C0";
shapes = (
{
closed = 1;
nodes = (
(451,0,l),
(277,216,l),
(103,0,l),
(21,0,l),
(231,257,l),
(31,500,l),
(113,500,l),
(277,287,l),
(441,500,l),
(523,500,l),
(324,256,l),
(533,0,l)
);
}
);
width = 553;
}
);
unicode = 120;
},
{
glyphname = y;
layers = (
{
anchors = (
{
name = m.uni0321_3;
position = "{377, -160}";
},
{
name = t.uni0308_1_3;
position = "{300, 500}";
}
);
layerId = "DC3AF673-8462-4C12-8448-8A8C8FBD5668";
shapes = (
{
closed = 1;
nodes = (
(80,-92,l),
(160,-89,o),
(195,-61,o),
(218,-9,cs),
(222,0,l),
(8,500,l),
(193,500,l),
(316,181,l),
(417,500,l),
(602,500,l),
(411,0,l),
(391,-45,ls),
(371,-92,o),
(350,-129,o),
(329,-154,cs),
(285,-207,o),
(224,-231,o),
(120,-238,c)
);
}
);
width = 610;
},
{
anchors = (
{
name = m.uni0321_3;
position = "{377, -160}";
},
{
name = t.uni0308_1_3;
position = "{300, 500}";
}
);
layerId = "99EE65B6-DAB1-4E31-8CA0-6E6C34D1775F";
shapes = (
{
closed = 1;
nodes = (
(86,-147,l),
(151,-142,o),
(186,-109,o),
(214,-43,cs),
(231,0,l),
(16,500,l),
(131,500,l),
(289,105,l),
(433,500,l),
(547,500,l),
(347,0,l),
(315,-74,ls),
(299,-111,o),
(283,-140,o),
(265,-162,cs),
(229,-207,o),
(182,-231,o),
(110,-238,c)
);
}
);
width = 563;
},
{
anchors = (
{
name = m.uni0321_3;
position = "{377, -160}";
},
{
name = t.uni0308_1_3;
position = "{300, 500}";
}
);
layerId = "754F3D2A-C810-4C1B-8FE5-1769993D30C0";
shapes = (
{
closed = 1;
nodes = (
(90,-180,l),
(145,-173,o),
(181,-138,o),
(211,-64,cs),
(236,0,l),
(21,500,l),
(93,500,l),
(272,60,l),
(442,500,l),
(514,500,l),
(308,0,l),
(269,-92,ls),
(256,-122,o),
(243,-146,o),
(227,-167,cs),
(196,-207,o),
(157,-231,o),
(104,-238,c)
);
}
);
width = 535;
}
);
leftKerningGroup = y;
rightKerningGroup = y2;
unicode = 121;
},
{
glyphname = z;
layers = (
{
anchors = (
{
name = m.uni0321_3;
position = "{257, 0}";
},
{
name = t.uni0308_1_3;
position = "{256, 500}";
}
);
layerId = "DC3AF673-8462-4C12-8448-8A8C8FBD5668";
shapes = (
{
closed = 1;
nodes = (
(498,142,l),
(498,0,l),
(28,0,l),
(28,107,l),
(246,358,l),
(38,358,l),
(38,500,l),
(477,500,l),
(477,381,l),
(266,142,l)
);
}
);
width = 527;
},
{
anchors = (
{
name = m.uni0321_3;
position = "{257, 0}";
},
{
name = t.uni0308_1_3;
position = "{256, 500}";
}
);
layerId = "99EE65B6-DAB1-4E31-8CA0-6E6C34D1775F";
shapes = (
{
closed = 1;
nodes = (
(506,87,l),
(506,0,l),
(36,0,l),
(36,76,l),
(345,413,l),
(46,413,l),
(46,500,l),
(485,500,l),
(485,420,l),
(179,87,l)
);
}
);
width = 543;
},
{
anchors = (
{
name = m.uni0321_3;
position = "{257, 0}";
},
{
name = t.uni0308_1_3;
position = "{256, 500}";
}
);
layerId = "754F3D2A-C810-4C1B-8FE5-1769993D30C0";
shapes = (
{
closed = 1;
nodes = (
(511,54,l),
(511,0,l),
(41,0,l),
(41,57,l),
(404,446,l),
(51,446,l),
(51,500,l),
(490,500,l),
(490,444,l),
(127,54,l)
);
}
);
width = 552;
}
);
leftKerningGroup = z;
rightKerningGroup = z1;
unicode = 122;
},
{
glyphname = ampersand;
layers = (
{
layerId = "DC3AF673-8462-4C12-8448-8A8C8FBD5668";
shapes = (
{
closed = 1;
nodes = (
(573,0,l),
(547,39,o),
(514,80,o),
(475,123,cs),
(436,166,o),
(384,223,o),
(319,291,cs),
(252,361,ls),
(203,412,o),
(182,453,o),
(182,518,cs),
(182,551,o),
(191,582,o),
(209,612,cs),
(244,671,o),
(313,711,o),
(406,711,cs),
(448,711,o),
(484,703,o),
(516,686,cs),
(580,653,o),
(619,593,o),
(632,530,c),
(490,473,l),
(478,520,o),
(443,546,o),
(406,546,cs),
(377,546,o),
(357,527,o),
(357,494,cs),
(357,483,o),
(361,473,o),
(367,463,cs),
(373,454,o),
(381,441,o),
(394,429,c),
(408,414,l),
(488,332,ls),
(551,267,o),
(607,205,o),
(660,146,cs),
(712,86,o),
(751,38,o),
(775,0,c)
);
},
{
closed = 1;
nodes = (
(746,342,l),
(723,260,o),
(667,186,o),
(606,145,c),
(557,135,l),
(540,96,o),
(508,61,o),
(462,33,cs),
(414,5,o),
(363,-10,o),
(308,-10,cs),
(259,-10,o),
(215,-1,o),
(177,19,cs),
(100,58,o),
(57,131,o),
(57,223,cs),
(57,261,o),
(67,295,o),
(86,324,c),
(126,381,o),
(197,409,o),
(273,402,c),
(315,341,l),
(298,342,o),
(284,339,o),
(271,331,cs),
(246,315,o),
(232,284,o),
(232,248,cs),
(232,229,o),
(236,213,o),
(245,199,cs),
(261,172,o),
(292,156,o),
(332,156,cs),
(377,156,o),
(422,178,o),
(457,227,c),
(498,246,l),
(541,275,o),
(582,339,o),
(597,401,c)
);
}
);
width = 831;
},
{
layerId = "99EE65B6-DAB1-4E31-8CA0-6E6C34D1775F";
shapes = (
{
closed = 1;
nodes = (
(620,0,l),
(591,41,o),
(552,88,o),
(504,141,cs),
(457,193,o),
(397,258,o),
(324,334,cs),
(267,394,l),
(227,434,o),
(206,478,o),
(206,534,cs),
(206,562,o),
(213,590,o),
(228,618,cs),
(258,672,o),
(319,711,o),
(406,711,cs),
(446,711,o),
(480,702,o),
(508,685,cs),
(565,649,o),
(597,587,o),
(601,521,c),
(510,495,l),
(504,573,o),
(464,617,o),
(406,617,cs),
(349,617,o),
(310,580,o),
(310,525,cs),
(310,505,o),
(316,488,o),
(327,472,cs),
(337,456,o),
(354,435,o),
(377,412,cs),
(399,391,l),
(479,308,ls),
(544,242,o),
(596,186,o),
(640,138,cs),
(683,90,o),
(720,44,o),
(752,0,c)
);
},
{
closed = 1;
nodes = (
(745,357,l),
(719,271,o),
(668,192,o),
(607,135,c),
(578,123,l),
(548,84,o),
(511,52,o),
(468,27,c),
(424,3,o),
(374,-10,o),
(316,-10,cs),
(267,-10,o),
(224,-1,o),
(187,18,cs),
(113,56,o),
(73,124,o),
(73,207,cs),
(73,246,o),
(83,281,o),
(104,312,cs),
(145,374,o),
(216,410,o),
(292,410,c),
(331,363,l),
(301,362,o),
(275,355,o),
(252,342,cs),
(205,316,o),
(177,271,o),
(177,217,cs),
(177,192,o),
(183,171,o),
(195,151,cs),
(218,111,o),
(263,85,o),
(323,85,cs),
(403,85,o),
(459,118,o),
(515,179,c),
(542,200,l),
(588,241,o),
(629,315,o),
(648,392,c)
);
}
);
width = 827;
},
{
layerId = "754F3D2A-C810-4C1B-8FE5-1769993D30C0";
shapes = (
{
closed = 1;
nodes = (
(648,0,l),
(617,42,o),
(575,93,o),
(522,151,cs),
(469,209,o),
(404,279,o),
(327,360,cs),
(276,414,l),
(242,447,o),
(220,493,o),
(220,543,cs),
(220,569,o),
(226,595,o),
(240,621,cs),
(267,672,o),
(323,711,o),
(406,711,cs),
(444,711,o),
(477,702,o),
(503,684,cs),
(556,647,o),
(584,583,o),
(583,515,c),
(522,508,l),
(519,605,o),
(476,659,o),
(406,659,cs),
(332,659,o),
(282,612,o),
(282,544,cs),
(282,518,o),
(289,497,o),
(303,477,cs),
(316,457,o),
(338,432,o),
(367,402,c),
(393,377,l),
(474,293,ls),
(539,227,o),
(590,174,o),
(628,133,cs),
(666,92,o),
(702,48,o),
(738,0,c)
);
},
{
closed = 1;
nodes = (
(744,366,l),
(717,277,o),
(668,196,o),
(608,129,c),
(590,115,l),
(553,76,o),
(513,46,o),
(472,23,c),
(430,1,o),
(380,-10,o),
(321,-10,cs),
(272,-10,o),
(229,-1,o),
(193,18,c),
(120,54,o),
(82,119,o),
(82,198,cs),
(82,237,o),
(93,273,o),
(114,305,cs),
(156,369,o),
(228,411,o),
(304,415,c),
(341,376,l),
(303,374,o),
(270,365,o),
(240,349,cs),
(180,317,o),
(144,263,o),
(144,198,cs),
(144,170,o),
(151,146,o),
(165,122,cs),
(192,75,o),
(245,42,o),
(318,42,cs),
(418,42,o),
(481,82,o),
(550,150,c),
(569,172,l),
(616,220,o),
(657,300,o),
(678,387,c)
);
}
);
width = 824;
}
);
unicode = 38;
},
{
glyphname = exclam;
layers = (
{
layerId = "DC3AF673-8462-4C12-8448-8A8C8FBD5668";
shapes = (
{
closed = 1;
nodes = (
(273,700,l),
(253,220,l),
(98,220,l),
(78,700,l)
);
},
{
closed = 1;
nodes = (
(231,181,o),
(270,142,o),
(270,86,cs),
(270,30,o),
(231,-9,o),
(175,-9,cs),
(119,-9,o),
(80,30,o),
(80,86,cs),
(80,142,o),
(119,181,o),
(175,181,cs)
);
}
);
width = 350;
},
{
layerId = "99EE65B6-DAB1-4E31-8CA0-6E6C34D1775F";
shapes = (
{
closed = 1;
nodes = (
(214,700,l),
(194,220,l),
(109,220,l),
(89,700,l)
);
},
{
closed = 1;
nodes = (
(194,134,o),
(223,105,o),
(223,63,cs),
(223,21,o),
(194,-9,o),
(152,-9,cs),
(110,-9,o),
(80,21,o),
(80,63,cs),
(80,105,o),
(110,134,o),
(152,134,cs)
);
}
);
width = 303;
},
{
layerId = "754F3D2A-C810-4C1B-8FE5-1769993D30C0";
shapes = (
{
closed = 1;
nodes = (
(179,700,l),
(159,220,l),
(116,220,l),
(96,700,l)
);
},
{
closed = 1;
nodes = (
(171,106,o),
(195,82,o),
(195,49,cs),
(195,15,o),
(171,-9,o),
(138,-9,cs),
(104,-9,o),
(80,15,o),
(80,49,cs),
(80,82,o),
(104,106,o),
(138,106,cs)
);
}
);
width = 275;
}
);
unicode = 33;
},
{
glyphname = question;
layers = (
{
layerId = "AE778448-78C8-4325-8890-6B2DB52DC742";
name = "#instance";
shapes = (
{
closed = 1;
nodes = (
(247,261,l),
(257,321,o),
(286,363,o),
(333,400,cs),
(360,421,ls),
(376,433,o),
(387,446,o),
(387,473,cs),
(387,495,o),
(380,513,o),
(368,526,cs),
(356,539,o),
(340,545,o),
(322,545,cs),
(277,545,o),
(240,512,o),
(233,447,c),
(80,501,l),
(84,541,o),
(97,576,o),
(120,608,cs),
(165,672,o),
(238,710,o),
(322,710,cs),
(365,710,o),
(406,701,o),
(443,683,cs),
(517,647,o),
(562,583,o),
(562,510,cs),
(562,459,o),
(548,414,o),
(512,385,cs),
(460,343,ls),
(427,317,o),
(394,284,o),
(390,261,c)
);
},
{
closed = 1;
nodes = (
(378,180,o),
(417,141,o),
(417,85,cs),
(417,29,o),
(378,-10,o),
(322,-10,cs),
(266,-10,o),
(227,29,o),
(227,85,cs),
(227,141,o),
(266,180,o),
(322,180,cs)
);
}
);
width = 642;
},
{
layerId = "DC3AF673-8462-4C12-8448-8A8C8FBD5668";
shapes = (
{
closed = 1;
nodes = (
(247,261,l),
(257,321,o),
(286,363,o),
(333,400,cs),
(360,421,ls),
(376,433,o),
(387,446,o),
(387,473,cs),
(387,495,o),
(380,513,o),
(368,526,cs),
(356,539,o),
(340,545,o),
(322,545,cs),
(277,545,o),
(240,512,o),
(233,447,c),
(80,501,l),
(84,541,o),
(97,576,o),
(120,608,cs),
(165,672,o),
(238,710,o),
(322,710,cs),
(365,710,o),
(406,701,o),
(443,683,cs),
(517,647,o),
(562,583,o),
(562,510,cs),
(562,459,o),
(548,414,o),
(512,385,cs),
(460,343,ls),
(427,317,o),
(394,284,o),
(390,261,c)
);
},
{
closed = 1;
nodes = (
(378,180,o),
(417,141,o),
(417,85,cs),
(417,29,o),
(378,-10,o),
(322,-10,cs),
(266,-10,o),
(227,29,o),
(227,85,cs),
(227,141,o),
(266,180,o),
(322,180,cs)
);
}
);
width = 642;
},
{
layerId = "99EE65B6-DAB1-4E31-8CA0-6E6C34D1775F";
shapes = (
{
closed = 1;
nodes = (
(262,229,l),
(267,273,o),
(293,326,o),
(351,369,cs),
(400,405,ls),
(430,427,o),
(453,454,o),
(453,498,cs),
(453,533,o),
(440,561,o),
(416,583,cs),
(391,605,o),
(358,616,o),
(318,616,cs),
(239,616,o),
(185,566,o),
(167,488,c),
(80,516,l),
(85,552,o),
(98,584,o),
(120,614,cs),
(162,673,o),
(232,710,o),
(318,710,cs),
(361,710,o),
(402,701,o),
(439,684,c),
(511,648,o),
(558,585,o),
(558,510,cs),
(558,451,o),
(533,405,o),
(490,373,cs),
(428,327,ls),
(387,297,o),
(354,252,o),
(351,229,c)
);
},
{
closed = 1;
nodes = (
(351,133,o),
(381,104,o),
(381,62,cs),
(381,20,o),
(351,-10,o),
(309,-10,cs),
(267,-10,o),
(238,20,o),
(238,62,cs),
(238,104,o),
(267,133,o),
(309,133,cs)
);
}
);
width = 638;
},
{
layerId = "754F3D2A-C810-4C1B-8FE5-1769993D30C0";
shapes = (
{
closed = 1;
nodes = (
(271,210,l),
(273,244,o),
(298,303,o),
(361,350,cs),
(423,396,ls),
(462,425,o),
(492,459,o),
(492,513,cs),
(492,555,o),
(476,590,o),
(444,617,cs),
(412,644,o),
(368,658,o),
(315,658,cs),
(216,658,o),
(152,598,o),
(128,512,c),
(80,525,l),
(86,558,o),
(99,589,o),
(120,618,cs),
(160,673,o),
(229,710,o),
(315,710,cs),
(359,710,o),
(399,701,o),
(436,684,cs),
(508,649,o),
(555,586,o),
(555,510,cs),
(555,446,o),
(525,399,o),
(477,366,cs),
(408,318,ls),
(362,286,o),
(330,232,o),
(327,210,c)
);
},
{
closed = 1;
nodes = (
(335,105,o),
(359,81,o),
(359,48,cs),
(359,14,o),
(335,-10,o),
(301,-10,cs),
(268,-10,o),
(244,14,o),
(244,48,cs),
(244,81,o),
(268,105,o),
(301,105,cs)
);
}
);
width = 635;
}
);
unicode = 63;
},
{
glyphname = numbersign;
layers = (
{
layerId = "DC3AF673-8462-4C12-8448-8A8C8FBD5668";
shapes = (
{
closed = 1;
nodes = (
(672,408,l),
(672,293,l),
(790,293,l),
(790,140,l),
(672,140,l),
(672,0,l),
(497,0,l),
(497,140,l),
(374,140,l),
(374,0,l),
(199,0,l),
(199,140,l),
(80,140,l),
(80,293,l),
(199,293,l),
(199,408,l),
(80,408,l),
(80,561,l),
(199,561,l),
(199,700,l),
(374,700,l),
(374,561,l),
(497,561,l),
(497,700,l),
(672,700,l),
(672,561,l),
(790,561,l),
(790,408,l)
);
},
{
closed = 1;
nodes = (
(499,300,o),
(497,320,o),
(497,350,cs),
(497,380,o),
(499,400,o),
(502,413,c),
(489,410,o),
(468,408,o),
(436,408,cs),
(404,408,o),
(382,410,o),
(369,413,c),
(372,400,o),
(374,379,o),
(374,350,cs),
(374,321,o),
(372,300,o),
(369,287,c),
(385,291,o),
(407,293,o),
(436,293,cs),
(465,293,o),
(487,291,o),
(502,287,c)
);
}
);
width = 870;
},
{
layerId = "99EE65B6-DAB1-4E31-8CA0-6E6C34D1775F";
shapes = (
{
closed = 1;
nodes = (
(641,447,l),
(641,254,l),
(790,254,l),
(790,164,l),
(641,164,l),
(641,0,l),
(536,0,l),
(536,164,l),
(335,164,l),
(335,0,l),
(230,0,l),
(230,164,l),
(80,164,l),
(80,254,l),
(230,254,l),
(230,447,l),
(80,447,l),
(80,538,l),
(230,538,l),
(230,700,l),
(335,700,l),
(335,538,l),
(536,538,l),
(536,700,l),
(641,700,l),
(641,538,l),
(790,538,l),
(790,447,l)
);
},
{
closed = 1;
nodes = (
(538,262,o),
(536,295,o),
(536,350,cs),
(536,405,o),
(538,438,o),
(541,452,c),
(527,449,o),
(493,447,o),
(436,447,cs),
(379,447,o),
(345,449,o),
(330,452,c),
(333,438,o),
(335,404,o),
(335,350,cs),
(335,296,o),
(333,263,o),
(330,248,c),
(347,252,o),
(382,254,o),
(436,254,cs),
(490,254,o),
(525,252,o),
(541,248,c)
);
}
);
width = 870;
},
{
layerId = "754F3D2A-C810-4C1B-8FE5-1769993D30C0";
shapes = (
{
closed = 1;
nodes = (
(622,470,l),
(622,231,l),
(790,231,l),
(790,178,l),
(622,178,l),
(622,0,l),
(559,0,l),
(559,178,l),
(312,178,l),
(312,0,l),
(249,0,l),
(249,178,l),
(80,178,l),
(80,231,l),
(249,231,l),
(249,470,l),
(80,470,l),
(80,524,l),
(249,524,l),
(249,700,l),
(312,700,l),
(312,524,l),
(559,524,l),
(559,700,l),
(622,700,l),
(622,524,l),
(790,524,l),
(790,470,l)
);
},
{
closed = 1;
nodes = (
(561,239,o),
(559,280,o),
(559,350,cs),
(559,420,o),
(561,461,o),
(564,475,c),
(550,472,o),
(508,470,o),
(436,470,cs),
(364,470,o),
(322,472,o),
(307,475,c),
(310,460,o),
(312,419,o),
(312,350,cs),
(312,281,o),
(310,240,o),
(307,225,c),
(324,229,o),
(367,231,o),
(436,231,cs),
(505,231,o),
(547,229,o),
(564,225,c)
);
}
);
width = 870;
}
);
unicode = 35;
},
{
glyphname = Euro;
layers = (
{
layerId = "DC3AF673-8462-4C12-8448-8A8C8FBD5668";
shapes = (
{
closed = 1;
nodes = (
(628,317,l),
(597,234,l),
(60,234,l),
(91,317,l)
);
},
{
closed = 1;
nodes = (
(678,462,l),
(647,378,l),
(110,378,l),
(141,462,l)
);
},
{
closed = 1;
nodes = (
(462,-10,o),
(397,5,o),
(341,35,cs),
(229,95,o),
(165,207,o),
(165,350,cs),
(165,421,o),
(180,484,o),
(211,539,cs),
(272,647,o),
(388,710,o),
(535,710,cs),
(632,710,o),
(706,687,o),
(759,643,c),
(703,488,l),
(662,524,o),
(605,545,o),
(535,545,cs),
(497,545,o),
(463,537,o),
(433,521,cs),
(373,488,o),
(340,427,o),
(340,350,cs),
(340,312,o),
(348,278,o),
(364,248,cs),
(397,188,o),
(458,155,o),
(535,155,cs),
(598,155,o),
(650,174,o),
(689,207,c),
(772,73,l),
(726,31,o),
(645,-10,o),
(535,-10,cs)
);
}
);
width = 832;
},
{
layerId = "99EE65B6-DAB1-4E31-8CA0-6E6C34D1775F";
shapes = (
{
closed = 1;
nodes = (
(639,325,l),
(613,258,l),
(60,258,l),
(87,325,l)
);
},
{
closed = 1;
nodes = (
(689,454,l),
(663,386,l),
(110,386,l),
(137,454,l)
);
},
{
closed = 1;
nodes = (
(486,-10,o),
(421,5,o),
(365,35,cs),
(253,95,o),
(189,207,o),
(189,350,cs),
(189,421,o),
(204,484,o),
(235,539,cs),
(296,647,o),
(412,710,o),
(559,710,cs),
(650,710,o),
(724,686,o),
(778,641,c),
(742,552,l),
(700,591,o),
(637,616,o),
(559,616,cs),
(506,616,o),
(460,605,o),
(420,583,cs),
(339,538,o),
(293,455,o),
(293,350,cs),
(293,298,o),
(304,251,o),
(327,211,cs),
(371,131,o),
(454,85,o),
(559,85,cs),
(644,85,o),
(709,115,o),
(750,155,c),
(803,78,l),
(754,30,o),
(673,-10,o),
(559,-10,cs)
);
}
);
width = 863;
},
{
layerId = "754F3D2A-C810-4C1B-8FE5-1769993D30C0";
shapes = (
{
closed = 1;
nodes = (
(646,330,l),
(622,272,l),
(60,272,l),
(85,330,l)
);
},
{
closed = 1;
nodes = (
(696,449,l),
(672,391,l),
(110,391,l),
(135,449,l)
);
},
{
closed = 1;
nodes = (
(500,-10,o),
(435,5,o),
(379,35,cs),
(267,95,o),
(203,207,o),
(203,350,cs),
(203,421,o),
(218,484,o),
(249,539,cs),
(310,647,o),
(426,710,o),
(573,710,cs),
(661,710,o),
(734,686,o),
(790,639,c),
(766,591,l),
(722,631,o),
(656,658,o),
(573,658,cs),
(512,658,o),
(458,645,o),
(412,620,cs),
(318,568,o),
(265,472,o),
(265,350,cs),
(265,290,o),
(278,235,o),
(304,189,cs),
(355,96,o),
(451,43,o),
(573,43,cs),
(671,43,o),
(745,80,o),
(787,123,c),
(822,81,l),
(770,29,o),
(689,-10,o),
(573,-10,cs)
);
}
);
width = 882;
}
);
unicode = 8364;
},
{
glyphname = indianrupee;
layers = (
{
layerId = "DC3AF673-8462-4C12-8448-8A8C8FBD5668";
shapes = (
{
closed = 1;
nodes = (
(60,323,l),
(145,323,ls),
(222,323,o),
(268,367,o),
(268,440,cs),
(268,507,o),
(231,547,o),
(168,547,c),
(178,587,l),
(344,587,o),
(443,523,o),
(443,417,cs),
(443,292,o),
(337,217,o),
(157,217,cs),
(60,217,l)
);
},
{
closed = 1;
nodes = (
(362,-7,l),
(323,19,o),
(272,61,o),
(218,121,cs),
(195,146,o),
(178,164,o),
(165,176,cs),
(139,201,o),
(110,217,o),
(74,217,c),
(214,281,l),
(230,277,o),
(249,268,o),
(271,255,cs),
(293,241,o),
(315,227,o),
(336,212,c),
(392,169,o),
(449,129,o),
(486,108,c)
);
},
{
closed = 1;
nodes = (
(60,475,l),
(540,475,l),
(540,392,l),
(60,392,l)
);
},
{
closed = 1;
nodes = (
(60,700,l),
(540,700,l),
(540,547,l),
(60,547,l)
);
}
);
width = 600;
},
{
layerId = "99EE65B6-DAB1-4E31-8CA0-6E6C34D1775F";
shapes = (
{
closed = 1;
nodes = (
(60,331,l),
(169,331,ls),
(266,331,o),
(323,380,o),
(323,464,cs),
(323,555,o),
(269,610,o),
(176,610,c),
(186,642,l),
(338,642,o),
(427,573,o),
(427,456,cs),
(427,331,o),
(333,256,o),
(173,256,cs),
(60,256,l)
);
},
{
closed = 1;
nodes = (
(387,1,l),
(339,26,o),
(281,74,o),
(224,142,cs),
(195,175,o),
(175,199,o),
(162,213,cs),
(136,240,o),
(111,256,o),
(78,256,c),
(173,294,l),
(189,286,o),
(208,275,o),
(227,261,cs),
(247,245,o),
(270,224,o),
(297,195,c),
(358,133,o),
(412,90,o),
(458,72,c)
);
},
{
closed = 1;
nodes = (
(60,506,l),
(540,506,l),
(540,439,l),
(60,439,l)
);
},
{
closed = 1;
nodes = (
(60,700,l),
(540,700,l),
(540,610,l),
(60,610,l)
);
}
);
width = 600;
},
{
layerId = "754F3D2A-C810-4C1B-8FE5-1769993D30C0";
shapes = (
{
closed = 1;
nodes = (
(60,336,l),
(183,336,ls),
(292,336,o),
(356,388,o),
(356,478,cs),
(356,584,o),
(291,647,o),
(181,647,c),
(191,675,l),
(334,675,o),
(418,603,o),
(418,479,cs),
(418,354,o),
(331,279,o),
(182,279,cs),
(60,279,l)
);
},
{
closed = 1;
nodes = (
(402,6,l),
(348,30,o),
(286,81,o),
(227,154,cs),
(195,193,o),
(173,220,o),
(160,235,cs),
(134,264,o),
(111,279,o),
(80,279,c),
(148,302,l),
(165,292,o),
(183,279,o),
(201,264,c),
(219,247,o),
(243,222,o),
(274,185,cs),
(337,111,o),
(389,67,o),
(441,51,c)
);
},
{
closed = 1;
nodes = (
(60,525,l),
(540,525,l),
(540,467,l),
(60,467,l)
);
},
{
closed = 1;
nodes = (
(60,700,l),
(540,700,l),
(540,647,l),
(60,647,l)
);
}
);
width = 600;
}
);
unicode = 8377;
},
{
glyphname = zero;
layers = (
{
layerId = "DC3AF673-8462-4C12-8448-8A8C8FBD5668";
shapes = (
{
closed = 1;
nodes = (
(247,-10,o),
(201,4,o),
(161,33,cs),
(82,90,o),
(38,201,o),
(38,350,cs),
(38,425,o),
(48,489,o),
(70,543,cs),
(111,651,o),
(192,710,o),
(302,710,cs),
(356,710,o),
(404,696,o),
(444,667,cs),
(523,610,o),
(565,499,o),
(565,350,cs),
(565,275,o),
(555,211,o),
(534,157,cs),
(492,49,o),
(411,-10,o),
(302,-10,cs)
);
},
{
closed = 1;
nodes = (
(362,143,o),
(390,209,o),
(390,350,cs),
(390,491,o),
(362,557,o),
(302,557,cs),
(241,557,o),
(213,491,o),
(213,350,cs),
(213,209,o),
(241,143,o),
(302,143,cs)
);
}
);
width = 603;
},
{
layerId = "99EE65B6-DAB1-4E31-8CA0-6E6C34D1775F";
shapes = (
{
closed = 1;
nodes = (
(243,-10,o),
(199,4,o),
(161,33,cs),
(87,90,o),
(46,201,o),
(46,350,cs),
(46,425,o),
(56,489,o),
(76,543,cs),
(115,651,o),
(191,710,o),
(294,710,cs),
(345,710,o),
(390,696,o),
(427,667,cs),
(502,610,o),
(542,499,o),
(542,350,cs),
(542,275,o),
(533,211,o),
(513,157,cs),
(473,49,o),
(397,-10,o),
(294,-10,cs)
);
},
{
closed = 1;
nodes = (
(386,81,o),
(437,177,o),
(437,350,cs),
(437,523,o),
(386,620,o),
(294,620,cs),
(202,620,o),
(151,523,o),
(151,350,cs),
(151,177,o),
(202,81,o),
(294,81,cs)
);
}
);
width = 587;
},
{
layerId = "754F3D2A-C810-4C1B-8FE5-1769993D30C0";
shapes = (
{
closed = 1;
nodes = (
(240,-10,o),
(197,4,o),
(161,33,cs),
(90,90,o),
(51,201,o),
(51,350,cs),
(51,425,o),
(61,489,o),
(80,543,cs),
(117,651,o),
(190,710,o),
(289,710,cs),
(339,710,o),
(382,696,o),
(417,667,cs),
(489,610,o),
(528,499,o),
(528,350,cs),
(528,275,o),
(519,211,o),
(500,157,cs),
(462,49,o),
(389,-10,o),
(289,-10,cs)
);
},
{
closed = 1;
nodes = (
(400,43,o),
(465,158,o),
(465,350,cs),
(465,542,o),
(400,657,o),
(289,657,cs),
(179,657,o),
(113,542,o),
(113,350,cs),
(113,158,o),
(179,43,o),
(289,43,cs)
);
}
);
width = 578;
}
);
leftKerningGroup = zero;
rightKerningGroup = zero1;
unicode = 48;
},
{
glyphname = one;
layers = (
{
layerId = "DC3AF673-8462-4C12-8448-8A8C8FBD5668";
shapes = (
{
closed = 1;
nodes = (
(385,700,l),
(385,0,l),
(210,0,l),
(210,493,l),
(194,480,o),
(172,463,o),
(143,444,cs),
(113,425,o),
(88,409,o),
(67,399,c),
(18,538,l),
(94,587,o),
(166,640,o),
(234,700,c)
);
}
);
width = 462;
},
{
layerId = "99EE65B6-DAB1-4E31-8CA0-6E6C34D1775F";
shapes = (
{
closed = 1;
nodes = (
(314,700,l),
(314,0,l),
(209,0,l),
(209,572,l),
(193,556,o),
(171,539,o),
(144,520,cs),
(116,501,o),
(90,483,o),
(64,468,c),
(26,549,l),
(98,594,o),
(162,643,o),
(217,700,c)
);
}
);
width = 406;
},
{
layerId = "754F3D2A-C810-4C1B-8FE5-1769993D30C0";
shapes = (
{
closed = 1;
nodes = (
(271,700,l),
(271,0,l),
(209,0,l),
(209,619,l),
(192,602,o),
(170,584,o),
(144,565,cs),
(118,546,o),
(91,527,o),
(62,509,c),
(31,555,l),
(100,598,o),
(160,645,o),
(207,700,c)
);
}
);
width = 373;
}
);
leftKerningGroup = one;
rightKerningGroup = one1;
unicode = 49;
},
{
glyphname = two;
layers = (
{
layerId = "DC3AF673-8462-4C12-8448-8A8C8FBD5668";
shapes = (
{
closed = 1;
nodes = (
(526,461,o),
(518,429,o),
(505,399,cs),
(478,338,o),
(435,288,o),
(380,240,cs),
(274,148,l),
(546,148,l),
(546,0,l),
(49,0,l),
(49,120,l),
(246,305,ls),
(283,340,o),
(309,371,o),
(325,401,c),
(342,430,o),
(351,458,o),
(351,482,cs),
(351,527,o),
(323,557,o),
(282,557,cs),
(241,557,o),
(215,517,o),
(209,446,c),
(36,473,l),
(55,625,o),
(144,710,o),
(282,710,cs),
(330,710,o),
(371,701,o),
(409,683,cs),
(482,647,o),
(526,580,o),
(526,493,cs)
);
}
);
width = 582;
},
{
layerId = "99EE65B6-DAB1-4E31-8CA0-6E6C34D1775F";
shapes = (
{
closed = 1;
nodes = (
(509,467,o),
(502,435,o),
(491,405,c),
(466,345,o),
(421,292,o),
(344,220,cs),
(204,89,l),
(529,89,l),
(529,0,l),
(64,0,l),
(64,73,l),
(275,273,ls),
(322,318,o),
(356,356,o),
(375,390,cs),
(395,424,o),
(405,460,o),
(405,498,cs),
(405,571,o),
(359,620,o),
(281,620,cs),
(214,620,o),
(169,568,o),
(157,477,c),
(54,495,l),
(73,632,o),
(155,710,o),
(281,710,cs),
(327,710,o),
(367,701,o),
(401,683,cs),
(470,646,o),
(509,580,o),
(509,501,cs)
);
}
);
width = 581;
},
{
layerId = "754F3D2A-C810-4C1B-8FE5-1769993D30C0";
shapes = (
{
closed = 1;
nodes = (
(499,471,o),
(493,438,o),
(483,409,c),
(459,349,o),
(413,294,o),
(322,208,cs),
(162,54,l),
(519,54,l),
(519,0,l),
(73,0,l),
(73,45,l),
(293,254,ls),
(346,304,o),
(384,347,o),
(405,384,c),
(427,420,o),
(437,461,o),
(437,507,cs),
(437,597,o),
(381,657,o),
(281,657,cs),
(197,657,o),
(141,598,o),
(125,496,c),
(65,508,l),
(84,636,o),
(162,710,o),
(281,710,cs),
(325,710,o),
(364,701,o),
(396,683,cs),
(463,646,o),
(499,580,o),
(499,506,cs)
);
}
);
width = 581;
}
);
leftKerningGroup = two1;
rightKerningGroup = two;
unicode = 50;
},
{
glyphname = three;
layers = (
{
layerId = "DC3AF673-8462-4C12-8448-8A8C8FBD5668";
shapes = (
{
closed = 1;
nodes = (
(525,347,o),
(566,287,o),
(566,212,cs),
(566,171,o),
(554,133,o),
(530,99,cs),
(482,31,o),
(398,-10,o),
(303,-10,cs),
(168,-10,o),
(75,51,o),
(38,158,c),
(196,246,l),
(206,179,o),
(242,143,o),
(303,143,cs),
(329,143,o),
(350,150,o),
(367,165,cs),
(383,178,o),
(391,196,o),
(391,218,cs),
(391,263,o),
(355,293,o),
(303,293,cs),
(231,293,l),
(231,423,l),
(291,423,ls),
(340,423,o),
(371,450,o),
(371,489,cs),
(371,530,o),
(343,557,o),
(301,557,cs),
(257,557,o),
(229,531,o),
(220,481,c),
(53,535,l),
(81,647,o),
(170,710,o),
(301,710,cs),
(346,710,o),
(386,701,o),
(424,684,c),
(499,647,o),
(546,580,o),
(546,507,cs),
(546,477,o),
(536,450,o),
(516,423,cs),
(495,396,o),
(471,379,o),
(443,372,c)
);
}
);
width = 603;
},
{
layerId = "99EE65B6-DAB1-4E31-8CA0-6E6C34D1775F";
shapes = (
{
closed = 1;
nodes = (
(488,354,o),
(539,286,o),
(539,203,cs),
(539,162,o),
(528,125,o),
(506,93,cs),
(463,28,o),
(384,-10,o),
(291,-10,cs),
(172,-10,o),
(86,47,o),
(53,143,c),
(149,192,l),
(166,122,o),
(217,81,o),
(291,81,cs),
(334,81,o),
(368,93,o),
(395,116,cs),
(421,138,o),
(434,168,o),
(434,206,cs),
(434,277,o),
(377,326,o),
(291,326,cs),
(227,326,l),
(227,409,l),
(287,409,ls),
(364,409,o),
(414,452,o),
(414,517,cs),
(414,578,o),
(367,620,o),
(297,620,cs),
(229,620,o),
(181,584,o),
(165,522,c),
(68,562,l),
(99,655,o),
(181,710,o),
(297,710,cs),
(339,710,o),
(376,702,o),
(410,686,cs),
(478,653,o),
(519,593,o),
(519,523,cs),
(519,485,o),
(507,454,o),
(485,427,c),
(461,400,o),
(434,383,o),
(402,376,c)
);
}
);
width = 591;
},
{
layerId = "754F3D2A-C810-4C1B-8FE5-1769993D30C0";
shapes = (
{
closed = 1;
nodes = (
(465,358,o),
(522,286,o),
(522,198,cs),
(522,157,o),
(512,120,o),
(491,89,c),
(451,26,o),
(376,-10,o),
(284,-10,cs),
(174,-10,o),
(92,45,o),
(62,134,c),
(120,159,l),
(142,87,o),
(202,43,o),
(284,43,cs),
(337,43,o),
(379,58,o),
(411,86,cs),
(443,114,o),
(460,151,o),
(460,198,cs),
(460,286,o),
(390,346,o),
(284,346,cs),
(225,346,l),
(225,401,l),
(285,401,ls),
(379,401,o),
(440,453,o),
(440,533,cs),
(440,607,o),
(382,657,o),
(295,657,cs),
(212,657,o),
(152,616,o),
(132,547,c),
(77,578,l),
(109,660,o),
(188,710,o),
(295,710,cs),
(334,710,o),
(370,702,o),
(402,687,cs),
(465,657,o),
(502,600,o),
(502,532,cs),
(502,490,o),
(490,456,o),
(466,429,c),
(440,402,o),
(411,385,o),
(377,378,c)
);
}
);
width = 584;
}
);
leftKerningGroup = three;
rightKerningGroup = three1;
unicode = 51;
},
{
glyphname = four;
layers = (
{
layerId = "DC3AF673-8462-4C12-8448-8A8C8FBD5668";
shapes = (
{
closed = 1;
nodes = (
(605,153,l),
(485,153,l),
(485,0,l),
(310,0,l),
(310,153,l),
(18,153,l),
(18,279,l),
(126,410,o),
(223,550,o),
(310,700,c),
(485,700,l),
(485,300,l),
(605,300,l)
);
},
{
closed = 1;
nodes = (
(310,300,l),
(310,483,l),
(296,456,o),
(276,423,o),
(251,387,cs),
(225,350,o),
(202,322,o),
(183,300,c)
);
}
);
width = 623;
},
{
layerId = "99EE65B6-DAB1-4E31-8CA0-6E6C34D1775F";
shapes = (
{
closed = 1;
nodes = (
(582,164,l),
(462,164,l),
(462,0,l),
(357,0,l),
(357,164,l),
(26,164,l),
(26,240,l),
(146,383,o),
(257,536,o),
(357,700,c),
(462,700,l),
(462,253,l),
(582,253,l)
);
},
{
closed = 1;
nodes = (
(357,253,l),
(357,562,l),
(324,509,o),
(289,454,o),
(251,402,cs),
(213,349,o),
(174,300,o),
(135,253,c)
);
}
);
width = 607;
},
{
layerId = "754F3D2A-C810-4C1B-8FE5-1769993D30C0";
shapes = (
{
closed = 1;
nodes = (
(568,171,l),
(448,171,l),
(448,0,l),
(385,0,l),
(385,171,l),
(31,171,l),
(31,217,l),
(158,367,o),
(277,528,o),
(385,700,c),
(448,700,l),
(448,225,l),
(568,225,l)
);
},
{
closed = 1;
nodes = (
(385,225,l),
(385,609,l),
(341,540,o),
(296,473,o),
(251,411,cs),
(205,348,o),
(157,286,o),
(106,225,c)
);
}
);
width = 598;
}
);
leftKerningGroup = four2;
rightKerningGroup = four;
unicode = 52;
},
{
glyphname = five;
layers = (
{
layerId = "DC3AF673-8462-4C12-8448-8A8C8FBD5668";
shapes = (
{
closed = 1;
nodes = (
(159,-10,o),
(67,49,o),
(32,154,c),
(195,226,l),
(205,177,o),
(242,144,o),
(291,144,cs),
(317,144,o),
(338,153,o),
(355,170,cs),
(371,187,o),
(379,210,o),
(379,238,cs),
(379,265,o),
(371,289,o),
(356,306,c),
(339,323,o),
(317,332,o),
(291,332,cs),
(252,332,o),
(215,309,o),
(201,272,c),
(59,289,l),
(83,700,l),
(494,700,l),
(494,553,l),
(245,553,l),
(236,423,l),
(257,449,o),
(295,462,o),
(346,462,cs),
(387,462,o),
(422,452,o),
(454,433,cs),
(516,394,o),
(554,323,o),
(554,232,cs),
(554,184,o),
(543,142,o),
(522,106,cs),
(477,32,o),
(395,-10,o),
(291,-10,cs)
);
}
);
width = 591;
},
{
layerId = "99EE65B6-DAB1-4E31-8CA0-6E6C34D1775F";
shapes = (
{
closed = 1;
nodes = (
(170,-10,o),
(85,48,o),
(50,146,c),
(147,186,l),
(166,121,o),
(218,80,o),
(287,80,cs),
(330,80,o),
(365,94,o),
(391,121,cs),
(417,147,o),
(430,183,o),
(430,226,cs),
(430,269,o),
(417,305,o),
(391,331,cs),
(365,357,o),
(330,370,o),
(287,370,cs),
(226,370,o),
(172,338,o),
(150,290,c),
(70,302,l),
(94,700,l),
(475,700,l),
(475,611,l),
(191,611,l),
(177,399,l),
(206,432,o),
(261,453,o),
(319,453,cs),
(361,453,o),
(399,444,o),
(432,425,cs),
(497,387,o),
(535,315,o),
(535,224,cs),
(535,178,o),
(524,138,o),
(504,102,c),
(462,31,o),
(385,-10,o),
(287,-10,cs)
);
}
);
width = 587;
},
{
layerId = "754F3D2A-C810-4C1B-8FE5-1769993D30C0";
shapes = (
{
closed = 1;
nodes = (
(177,-10,o),
(95,47,o),
(60,141,c),
(118,162,l),
(143,87,o),
(203,42,o),
(285,42,cs),
(337,42,o),
(381,59,o),
(413,91,cs),
(445,123,o),
(460,166,o),
(460,219,cs),
(460,271,o),
(444,314,o),
(412,346,cs),
(380,378,o),
(337,393,o),
(285,393,cs),
(210,393,o),
(146,356,o),
(119,300,c),
(77,309,l),
(101,700,l),
(463,700,l),
(463,646,l),
(158,646,l),
(142,384,l),
(175,422,o),
(240,448,o),
(302,448,cs),
(345,448,o),
(385,439,o),
(418,420,cs),
(485,382,o),
(523,310,o),
(523,219,cs),
(523,174,o),
(513,135,o),
(493,100,cs),
(453,30,o),
(379,-10,o),
(285,-10,cs)
);
}
);
width = 585;
}
);
leftKerningGroup = five;
rightKerningGroup = five1;
unicode = 53;
},
{
glyphname = six;
layers = (
{
layerId = "DC3AF673-8462-4C12-8448-8A8C8FBD5668";
shapes = (
{
closed = 1;
nodes = (
(250,-10,o),
(203,1,o),
(164,22,cs),
(83,67,o),
(38,149,o),
(38,253,cs),
(38,322,o),
(69,412,o),
(118,488,cs),
(170,570,o),
(217,634,o),
(277,700,c),
(516,700,l),
(424,620,o),
(293,495,o),
(248,422,c),
(271,438,o),
(306,450,o),
(355,450,cs),
(397,450,o),
(435,441,o),
(466,423,cs),
(530,387,o),
(565,321,o),
(565,236,cs),
(565,186,o),
(553,143,o),
(531,106,cs),
(488,32,o),
(406,-10,o),
(301,-10,cs)
);
},
{
closed = 1;
nodes = (
(329,143,o),
(351,151,o),
(366,167,cs),
(382,184,o),
(390,207,o),
(390,237,cs),
(390,267,o),
(382,291,o),
(366,307,c),
(351,324,o),
(329,332,o),
(301,332,cs),
(274,332,o),
(251,324,o),
(236,307,cs),
(221,291,o),
(213,267,o),
(213,237,cs),
(213,207,o),
(221,184,o),
(236,167,cs),
(251,151,o),
(274,143,o),
(301,143,cs)
);
}
);
width = 603;
},
{
layerId = "99EE65B6-DAB1-4E31-8CA0-6E6C34D1775F";
shapes = (
{
closed = 1;
nodes = (
(245,-10,o),
(201,0,o),
(164,21,cs),
(88,62,o),
(45,140,o),
(45,237,cs),
(45,298,o),
(72,381,o),
(114,456,c),
(162,537,o),
(213,612,o),
(284,700,c),
(415,700,l),
(323,599,o),
(228,486,o),
(183,396,c),
(211,427,o),
(263,450,o),
(328,450,cs),
(366,450,o),
(401,441,o),
(434,422,cs),
(499,386,o),
(541,317,o),
(541,232,cs),
(541,184,o),
(530,142,o),
(509,105,cs),
(469,32,o),
(391,-10,o),
(293,-10,cs)
);
},
{
closed = 1;
nodes = (
(336,80,o),
(371,93,o),
(397,119,cs),
(423,146,o),
(436,181,o),
(436,226,cs),
(436,269,o),
(423,305,o),
(397,331,cs),
(371,358,o),
(336,371,o),
(293,371,cs),
(250,371,o),
(214,358,o),
(189,331,c),
(162,305,o),
(150,269,o),
(150,226,cs),
(150,181,o),
(162,146,o),
(189,119,cs),
(214,93,o),
(250,80,o),
(293,80,cs)
);
}
);
width = 587;
},
{
layerId = "754F3D2A-C810-4C1B-8FE5-1769993D30C0";
shapes = (
{
closed = 1;
nodes = (
(242,-10,o),
(200,0,o),
(164,20,cs),
(92,59,o),
(50,134,o),
(50,228,cs),
(50,284,o),
(74,362,o),
(113,437,c),
(158,517,o),
(212,599,o),
(290,700,c),
(360,700,l),
(268,587,o),
(190,480,o),
(145,381,c),
(176,420,o),
(238,450,o),
(313,450,cs),
(348,450,o),
(382,441,o),
(415,422,cs),
(481,385,o),
(527,315,o),
(527,230,cs),
(527,183,o),
(517,141,o),
(497,104,cs),
(458,32,o),
(383,-10,o),
(289,-10,cs)
);
},
{
closed = 1;
nodes = (
(341,43,o),
(384,59,o),
(416,91,cs),
(448,123,o),
(465,166,o),
(465,219,cs),
(465,271,o),
(448,313,o),
(416,346,cs),
(384,378,o),
(341,394,o),
(289,394,cs),
(236,394,o),
(193,378,o),
(161,346,cs),
(128,313,o),
(113,271,o),
(113,219,cs),
(113,166,o),
(128,123,o),
(161,91,cs),
(193,59,o),
(236,43,o),
(289,43,cs)
);
}
);
width = 578;
}
);
leftKerningGroup = six2;
rightKerningGroup = six;
unicode = 54;
},
{
glyphname = seven;
layers = (
{
layerId = "DC3AF673-8462-4C12-8448-8A8C8FBD5668";
shapes = (
{
closed = 1;
nodes = (
(28,700,l),
(28,553,l),
(310,553,l),
(222,405,o),
(147,207,o),
(98,0,c),
(281,0,l),
(305,106,o),
(331,194,o),
(366,286,cs),
(401,377,o),
(445,471,o),
(502,568,c),
(480,700,l)
);
}
);
width = 530;
},
{
layerId = "99EE65B6-DAB1-4E31-8CA0-6E6C34D1775F";
shapes = (
{
closed = 1;
nodes = (
(36,700,l),
(36,611,l),
(377,611,l),
(275,429,o),
(186,204,o),
(129,0,c),
(240,0,l),
(269,112,o),
(303,210,o),
(344,312,cs),
(384,413,o),
(434,517,o),
(494,623,c),
(480,700,l)
);
}
);
width = 530;
},
{
layerId = "754F3D2A-C810-4C1B-8FE5-1769993D30C0";
shapes = (
{
closed = 1;
nodes = (
(41,700,l),
(41,646,l),
(417,646,l),
(307,443,o),
(208,203,o),
(147,0,c),
(217,0,l),
(250,116,o),
(286,219,o),
(331,327,cs),
(374,435,o),
(428,544,o),
(489,656,c),
(480,700,l)
);
}
);
width = 530;
}
);
leftKerningGroup = seven2;
rightKerningGroup = seven;
unicode = 55;
},
{
glyphname = eight;
layers = (
{
layerId = "DC3AF673-8462-4C12-8448-8A8C8FBD5668";
shapes = (
{
closed = 1;
nodes = (
(250,-10,o),
(203,-1,o),
(164,18,c),
(84,55,o),
(38,125,o),
(38,213,cs),
(38,279,o),
(78,347,o),
(139,384,c),
(98,407,o),
(68,457,o),
(68,508,cs),
(68,547,o),
(79,582,o),
(98,614,cs),
(136,675,o),
(209,710,o),
(302,710,cs),
(347,710,o),
(389,702,o),
(425,685,cs),
(496,651,o),
(535,588,o),
(535,508,cs),
(535,458,o),
(506,409,o),
(464,384,c),
(495,367,o),
(519,343,o),
(537,312,cs),
(555,281,o),
(565,247,o),
(565,213,cs),
(565,169,o),
(554,130,o),
(533,96,c),
(488,28,o),
(406,-10,o),
(302,-10,cs)
);
},
{
closed = 1;
nodes = (
(358,143,o),
(390,175,o),
(390,230,cs),
(390,286,o),
(358,317,o),
(302,317,cs),
(274,317,o),
(252,310,o),
(237,294,c),
(221,279,o),
(213,258,o),
(213,230,cs),
(213,202,o),
(221,181,o),
(237,166,cs),
(252,151,o),
(274,143,o),
(302,143,cs)
);
},
{
closed = 1;
nodes = (
(343,435,o),
(366,457,o),
(366,496,cs),
(366,535,o),
(343,557,o),
(302,557,cs),
(261,557,o),
(238,535,o),
(238,496,cs),
(238,457,o),
(261,435,o),
(302,435,cs)
);
}
);
width = 603;
},
{
layerId = "99EE65B6-DAB1-4E31-8CA0-6E6C34D1775F";
shapes = (
{
closed = 1;
nodes = (
(246,-10,o),
(202,-2,o),
(165,17,c),
(90,52,o),
(46,118,o),
(46,201,cs),
(46,281,o),
(96,352,o),
(170,380,c),
(114,401,o),
(76,458,o),
(76,519,cs),
(76,557,o),
(86,590,o),
(104,620,cs),
(139,677,o),
(208,710,o),
(294,710,cs),
(336,710,o),
(375,702,o),
(408,686,cs),
(475,654,o),
(512,595,o),
(512,519,cs),
(512,457,o),
(474,401,o),
(417,380,c),
(455,367,o),
(485,344,o),
(508,311,cs),
(530,279,o),
(542,241,o),
(542,201,cs),
(542,159,o),
(532,123,o),
(511,90,cs),
(469,27,o),
(392,-10,o),
(294,-10,cs)
);
},
{
closed = 1;
nodes = (
(382,81,o),
(437,130,o),
(437,207,cs),
(437,284,o),
(382,333,o),
(294,333,cs),
(251,333,o),
(216,321,o),
(190,298,cs),
(164,275,o),
(151,245,o),
(151,207,cs),
(151,168,o),
(164,138,o),
(190,115,cs),
(216,92,o),
(251,81,o),
(294,81,cs)
);
},
{
closed = 1;
nodes = (
(364,412,o),
(409,453,o),
(409,515,cs),
(409,579,o),
(364,620,o),
(294,620,cs),
(224,620,o),
(179,579,o),
(179,515,cs),
(179,453,o),
(224,412,o),
(294,412,cs)
);
}
);
width = 587;
},
{
layerId = "754F3D2A-C810-4C1B-8FE5-1769993D30C0";
shapes = (
{
closed = 1;
nodes = (
(243,-10,o),
(201,-2,o),
(165,16,c),
(93,50,o),
(51,113,o),
(51,194,cs),
(51,282,o),
(107,355,o),
(189,378,c),
(124,398,o),
(81,458,o),
(81,526,cs),
(81,563,o),
(90,595,o),
(107,623,cs),
(141,678,o),
(207,710,o),
(289,710,cs),
(330,710,o),
(367,702,o),
(398,687,cs),
(462,656,o),
(498,599,o),
(498,526,cs),
(498,456,o),
(455,396,o),
(389,378,c),
(431,367,o),
(464,344,o),
(490,311,c),
(515,277,o),
(528,237,o),
(528,194,cs),
(528,153,o),
(518,118,o),
(498,87,cs),
(458,26,o),
(384,-10,o),
(289,-10,cs)
);
},
{
closed = 1;
nodes = (
(396,43,o),
(465,103,o),
(465,193,cs),
(465,282,o),
(396,342,o),
(289,342,cs),
(237,342,o),
(194,328,o),
(162,300,cs),
(130,273,o),
(113,237,o),
(113,193,cs),
(113,148,o),
(130,112,o),
(162,85,cs),
(194,57,o),
(237,43,o),
(289,43,cs)
);
},
{
closed = 1;
nodes = (
(376,398,o),
(435,450,o),
(435,527,cs),
(435,605,o),
(376,657,o),
(289,657,cs),
(202,657,o),
(144,605,o),
(144,527,cs),
(144,450,o),
(202,398,o),
(289,398,cs)
);
}
);
width = 578;
}
);
leftKerningGroup = eight;
rightKerningGroup = eight1;
unicode = 56;
},
{
glyphname = nine;
layers = (
{
layerId = "DC3AF673-8462-4C12-8448-8A8C8FBD5668";
shapes = (
{
closed = 1;
nodes = (
(353,710,o),
(400,699,o),
(439,678,cs),
(520,633,o),
(565,551,o),
(565,447,cs),
(565,378,o),
(534,288,o),
(485,212,cs),
(433,130,o),
(386,66,o),
(326,0,c),
(87,0,l),
(179,80,o),
(310,205,o),
(355,278,c),
(332,262,o),
(297,250,o),
(248,250,cs),
(206,250,o),
(168,259,o),
(137,277,cs),
(73,313,o),
(38,379,o),
(38,464,cs),
(38,514,o),
(50,557,o),
(72,594,cs),
(115,668,o),
(197,710,o),
(302,710,cs)
);
},
{
closed = 1;
nodes = (
(274,557,o),
(252,549,o),
(237,533,cs),
(221,516,o),
(213,493,o),
(213,463,cs),
(213,433,o),
(221,409,o),
(237,393,c),
(252,376,o),
(274,368,o),
(302,368,cs),
(329,368,o),
(352,376,o),
(367,393,cs),
(382,409,o),
(390,433,o),
(390,463,cs),
(390,493,o),
(382,516,o),
(367,533,cs),
(352,549,o),
(329,557,o),
(302,557,cs)
);
}
);
width = 603;
},
{
layerId = "99EE65B6-DAB1-4E31-8CA0-6E6C34D1775F";
shapes = (
{
closed = 1;
nodes = (
(342,710,o),
(386,700,o),
(423,679,cs),
(499,638,o),
(542,560,o),
(542,463,cs),
(542,402,o),
(515,319,o),
(473,244,c),
(425,163,o),
(374,88,o),
(303,0,c),
(172,0,l),
(264,101,o),
(359,214,o),
(404,304,c),
(376,273,o),
(324,250,o),
(259,250,cs),
(221,250,o),
(186,259,o),
(153,278,cs),
(88,314,o),
(46,383,o),
(46,468,cs),
(46,516,o),
(57,558,o),
(78,595,cs),
(118,668,o),
(196,710,o),
(294,710,cs)
);
},
{
closed = 1;
nodes = (
(251,620,o),
(216,607,o),
(190,581,cs),
(164,554,o),
(151,519,o),
(151,474,cs),
(151,431,o),
(164,395,o),
(190,369,cs),
(216,342,o),
(251,329,o),
(294,329,cs),
(337,329,o),
(373,342,o),
(398,369,c),
(425,395,o),
(437,431,o),
(437,474,cs),
(437,519,o),
(425,554,o),
(398,581,cs),
(373,607,o),
(337,620,o),
(294,620,cs)
);
}
);
width = 587;
},
{
layerId = "754F3D2A-C810-4C1B-8FE5-1769993D30C0";
shapes = (
{
closed = 1;
nodes = (
(336,710,o),
(378,700,o),
(414,680,cs),
(486,641,o),
(528,566,o),
(528,472,cs),
(528,416,o),
(504,338,o),
(465,263,c),
(420,183,o),
(366,101,o),
(288,0,c),
(218,0,l),
(310,113,o),
(388,220,o),
(433,319,c),
(402,280,o),
(340,250,o),
(265,250,cs),
(230,250,o),
(196,259,o),
(163,278,cs),
(97,315,o),
(51,385,o),
(51,470,cs),
(51,517,o),
(61,559,o),
(81,596,cs),
(120,668,o),
(195,710,o),
(289,710,cs)
);
},
{
closed = 1;
nodes = (
(237,657,o),
(194,641,o),
(162,609,cs),
(130,577,o),
(113,534,o),
(113,481,cs),
(113,429,o),
(130,387,o),
(162,354,cs),
(194,322,o),
(237,306,o),
(289,306,cs),
(342,306,o),
(385,322,o),
(417,354,cs),
(450,387,o),
(465,429,o),
(465,481,cs),
(465,534,o),
(450,577,o),
(417,609,cs),
(385,641,o),
(342,657,o),
(289,657,cs)
);
}
);
width = 578;
}
);
leftKerningGroup = nine;
rightKerningGroup = nine1;
unicode = 57;
},
{
glyphname = zero.osf;
layers = (
{
layerId = "DC3AF673-8462-4C12-8448-8A8C8FBD5668";
shapes = (
{
closed = 1;
nodes = (
(224,-10,o),
(158,13,o),
(111,59,cs),
(63,105,o),
(38,169,o),
(38,250,cs),
(38,331,o),
(63,395,o),
(111,441,cs),
(158,487,o),
(224,510,o),
(310,510,cs),
(396,510,o),
(462,487,o),
(510,441,cs),
(558,395,o),
(582,331,o),
(582,250,cs),
(582,169,o),
(558,105,o),
(510,59,cs),
(462,13,o),
(396,-10,o),
(310,-10,cs)
);
},
{
closed = 1;
nodes = (
(371,143,o),
(407,183,o),
(407,250,cs),
(407,317,o),
(371,357,o),
(310,357,cs),
(249,357,o),
(213,317,o),
(213,250,cs),
(213,183,o),
(249,143,o),
(310,143,cs)
);
}
);
width = 620;
},
{
layerId = "99EE65B6-DAB1-4E31-8CA0-6E6C34D1775F";
shapes = (
{
closed = 1;
nodes = (
(227,-10,o),
(163,13,o),
(117,59,cs),
(70,105,o),
(46,169,o),
(46,250,cs),
(46,331,o),
(70,395,o),
(117,441,cs),
(163,487,o),
(227,510,o),
(310,510,cs),
(393,510,o),
(458,487,o),
(504,441,cs),
(551,395,o),
(574,331,o),
(574,250,cs),
(574,169,o),
(551,105,o),
(504,59,cs),
(458,13,o),
(393,-10,o),
(310,-10,cs)
);
},
{
closed = 1;
nodes = (
(410,81,o),
(470,144,o),
(470,250,cs),
(470,356,o),
(410,420,o),
(310,420,cs),
(210,420,o),
(151,356,o),
(151,250,cs),
(151,144,o),
(210,81,o),
(310,81,cs)
);
}
);
width = 620;
},
{
layerId = "754F3D2A-C810-4C1B-8FE5-1769993D30C0";
shapes = (
{
closed = 1;
nodes = (
(229,-10,o),
(166,13,o),
(120,59,cs),
(74,105,o),
(51,169,o),
(51,250,cs),
(51,331,o),
(74,395,o),
(120,441,cs),
(166,487,o),
(229,510,o),
(310,510,cs),
(391,510,o),
(455,487,o),
(500,441,cs),
(546,395,o),
(569,331,o),
(569,250,cs),
(569,169,o),
(546,105,o),
(500,59,cs),
(455,13,o),
(391,-10,o),
(310,-10,cs)
);
},
{
closed = 1;
nodes = (
(433,43,o),
(507,121,o),
(507,250,cs),
(507,379,o),
(433,457,o),
(310,457,cs),
(187,457,o),
(113,379,o),
(113,250,cs),
(113,121,o),
(187,43,o),
(310,43,cs)
);
}
);
width = 620;
}
);
leftKerningGroup = zero.osf;
rightKerningGroup = zero.osf1;
},
{
glyphname = one.osf;
layers = (
{
layerId = "DC3AF673-8462-4C12-8448-8A8C8FBD5668";
shapes = (
{
closed = 1;
nodes = (
(385,500,l),
(385,0,l),
(210,0,l),
(210,294,l),
(195,280,o),
(173,265,o),
(145,247,cs),
(117,229,o),
(91,215,o),
(69,205,c),
(18,337,l),
(106,389,o),
(178,442,o),
(233,500,c)
);
}
);
width = 461;
},
{
layerId = "99EE65B6-DAB1-4E31-8CA0-6E6C34D1775F";
shapes = (
{
closed = 1;
nodes = (
(317,500,l),
(317,0,l),
(212,0,l),
(212,369,l),
(196,354,o),
(174,337,o),
(146,318,cs),
(118,298,o),
(90,282,o),
(63,268,c),
(26,351,l),
(102,396,o),
(166,445,o),
(220,500,c)
);
}
);
width = 409;
},
{
layerId = "754F3D2A-C810-4C1B-8FE5-1769993D30C0";
shapes = (
{
closed = 1;
nodes = (
(276,500,l),
(276,0,l),
(213,0,l),
(213,414,l),
(197,398,o),
(175,380,o),
(147,361,cs),
(118,340,o),
(90,322,o),
(60,306,c),
(31,360,l),
(99,400,o),
(159,447,o),
(212,500,c)
);
}
);
width = 377;
}
);
},
{
glyphname = two.osf;
layers = (
{
layerId = "DC3AF673-8462-4C12-8448-8A8C8FBD5668";
shapes = (
{
closed = 1;
nodes = (
(496,271,o),
(451,209,o),
(383,173,cs),
(337,148,l),
(548,148,l),
(548,0,l),
(51,0,l),
(51,85,l),
(194,170,ls),
(239,197,o),
(270,221,o),
(291,241,c),
(311,262,o),
(321,284,o),
(321,306,cs),
(321,336,o),
(293,357,o),
(261,357,cs),
(220,357,o),
(191,323,o),
(196,268,c),
(36,281,l),
(36,327,o),
(46,368,o),
(67,403,cs),
(108,471,o),
(183,510,o),
(273,510,cs),
(316,510,o),
(354,503,o),
(388,488,cs),
(456,458,o),
(496,403,o),
(496,347,cs)
);
}
);
width = 584;
},
{
layerId = "99EE65B6-DAB1-4E31-8CA0-6E6C34D1775F";
shapes = (
{
closed = 1;
nodes = (
(487,258,o),
(429,191,o),
(323,133,cs),
(244,89,l),
(531,89,l),
(531,0,l),
(66,0,l),
(66,62,l),
(231,158,ls),
(287,190,o),
(325,219,o),
(349,244,c),
(371,270,o),
(383,297,o),
(383,325,cs),
(383,384,o),
(341,420,o),
(276,420,cs),
(201,420,o),
(155,369,o),
(155,276,c),
(54,287,l),
(55,330,o),
(65,369,o),
(85,403,cs),
(124,470,o),
(193,510,o),
(280,510,cs),
(322,510,o),
(359,503,o),
(390,489,cs),
(453,460,o),
(487,406,o),
(487,339,cs)
);
}
);
width = 583;
},
{
layerId = "754F3D2A-C810-4C1B-8FE5-1769993D30C0";
shapes = (
{
closed = 1;
nodes = (
(482,250,o),
(416,180,o),
(287,109,cs),
(188,54,l),
(521,54,l),
(521,0,l),
(75,0,l),
(75,48,l),
(253,150,ls),
(315,185,o),
(358,217,o),
(383,246,cs),
(407,275,o),
(420,305,o),
(420,337,cs),
(420,412,o),
(369,457,o),
(285,457,cs),
(189,457,o),
(133,396,o),
(130,281,c),
(65,290,l),
(67,332,o),
(77,370,o),
(96,403,cs),
(133,470,o),
(199,510,o),
(284,510,cs),
(326,510,o),
(362,503,o),
(391,489,cs),
(451,461,o),
(482,408,o),
(482,334,cs)
);
}
);
width = 583;
}
);
leftKerningGroup = two.osf;
rightKerningGroup = two.osf1;
},
{
glyphname = three.osf;
layers = (
{
layerId = "DC3AF673-8462-4C12-8448-8A8C8FBD5668";
shapes = (
{
closed = 1;
nodes = (
(96,-93,l),
(159,-99,o),
(210,-98,o),
(252,-89,cs),
(334,-71,o),
(372,-33,o),
(372,16,cs),
(372,59,o),
(337,93,o),
(284,93,cs),
(212,93,l),
(212,224,l),
(229,224,ls),
(308,224,o),
(352,253,o),
(352,301,cs),
(352,336,o),
(323,357,o),
(282,357,cs),
(239,357,o),
(209,330,o),
(195,288,c),
(38,318,l),
(47,359,o),
(63,394,o),
(86,423,cs),
(131,480,o),
(201,510,o),
(282,510,cs),
(327,510,o),
(368,502,o),
(405,486,cs),
(480,454,o),
(527,392,o),
(527,318,cs),
(527,287,o),
(518,258,o),
(498,234,cs),
(478,209,o),
(454,193,o),
(424,184,c),
(499,159,o),
(547,102,o),
(547,22,cs),
(547,-28,o),
(532,-75,o),
(502,-117,cs),
(441,-201,o),
(314,-253,o),
(134,-239,c)
);
}
);
width = 584;
},
{
layerId = "99EE65B6-DAB1-4E31-8CA0-6E6C34D1775F";
shapes = (
{
closed = 1;
nodes = (
(105,-150,l),
(180,-150,o),
(239,-142,o),
(286,-128,c),
(377,-98,o),
(413,-49,o),
(413,12,cs),
(413,79,o),
(363,126,o),
(271,126,cs),
(206,126,l),
(206,207,l),
(239,207,ls),
(342,207,o),
(393,252,o),
(393,320,cs),
(393,380,o),
(346,420,o),
(276,420,cs),
(212,420,o),
(164,384,o),
(143,331,c),
(53,357,l),
(63,388,o),
(79,415,o),
(99,438,cs),
(140,483,o),
(202,510,o),
(276,510,cs),
(318,510,o),
(356,502,o),
(389,487,cs),
(458,455,o),
(498,397,o),
(498,326,cs),
(498,288,o),
(487,257,o),
(464,231,cs),
(441,205,o),
(414,187,o),
(381,180,c),
(462,158,o),
(518,100,o),
(518,13,cs),
(518,-34,o),
(505,-76,o),
(478,-115,c),
(423,-190,o),
(305,-241,o),
(123,-239,c)
);
}
);
width = 571;
},
{
layerId = "754F3D2A-C810-4C1B-8FE5-1769993D30C0";
shapes = (
{
closed = 1;
nodes = (
(111,-184,l),
(192,-180,o),
(257,-169,o),
(306,-151,cs),
(403,-114,o),
(438,-58,o),
(438,9,cs),
(438,91,o),
(378,146,o),
(263,146,cs),
(203,146,l),
(203,197,l),
(245,197,ls),
(363,197,o),
(418,251,o),
(418,332,cs),
(418,406,o),
(359,457,o),
(273,457,cs),
(195,457,o),
(137,416,o),
(111,356,c),
(62,380,l),
(73,405,o),
(88,427,o),
(107,447,c),
(146,485,o),
(202,510,o),
(273,510,cs),
(313,510,o),
(349,502,o),
(380,487,cs),
(444,456,o),
(481,400,o),
(481,331,cs),
(481,289,o),
(469,256,o),
(444,229,cs),
(419,202,o),
(390,184,o),
(355,178,c),
(439,157,o),
(501,98,o),
(501,8,cs),
(501,-37,o),
(488,-77,o),
(463,-113,cs),
(412,-184,o),
(300,-233,o),
(117,-239,c)
);
}
);
width = 563;
}
);
leftKerningGroup = three.osf;
rightKerningGroup = three.osf1;
},
{
glyphname = four.osf;
layers = (
{
layerId = "DC3AF673-8462-4C12-8448-8A8C8FBD5668";
shapes = (
{
closed = 1;
nodes = (
(605,0,l),
(485,0,l),
(485,-147,l),
(310,-147,l),
(310,0,l),
(18,0,l),
(18,127,l),
(69,186,o),
(115,245,o),
(156,301,cs),
(196,358,o),
(240,424,o),
(287,500,c),
(485,500,l),
(485,148,l),
(605,148,l)
);
},
{
closed = 1;
nodes = (
(310,148,l),
(310,341,l),
(297,311,o),
(276,276,o),
(249,238,cs),
(221,198,o),
(198,168,o),
(180,148,c)
);
}
);
width = 623;
},
{
layerId = "99EE65B6-DAB1-4E31-8CA0-6E6C34D1775F";
shapes = (
{
closed = 1;
nodes = (
(582,0,l),
(462,0,l),
(462,-163,l),
(357,-163,l),
(357,0,l),
(26,0,l),
(26,76,l),
(87,147,o),
(143,218,o),
(195,285,cs),
(247,354,o),
(298,425,o),
(350,500,c),
(462,500,l),
(462,89,l),
(582,89,l)
);
},
{
closed = 1;
nodes = (
(357,89,l),
(357,385,l),
(323,334,o),
(287,284,o),
(249,236,cs),
(211,186,o),
(171,137,o),
(131,89,c)
);
}
);
width = 607;
},
{
layerId = "754F3D2A-C810-4C1B-8FE5-1769993D30C0";
shapes = (
{
closed = 1;
nodes = (
(568,0,l),
(448,0,l),
(448,-172,l),
(385,-172,l),
(385,0,l),
(31,0,l),
(31,46,l),
(97,124,o),
(160,201,o),
(219,276,cs),
(277,351,o),
(333,425,o),
(387,500,c),
(448,500,l),
(448,54,l),
(568,54,l)
);
},
{
closed = 1;
nodes = (
(385,54,l),
(385,411,l),
(338,347,o),
(293,289,o),
(249,234,cs),
(205,178,o),
(155,118,o),
(101,54,c)
);
}
);
width = 598;
}
);
leftKerningGroup = four.osf;
rightKerningGroup = four.osf1;
},
{
glyphname = five.osf;
layers = (
{
layerId = "DC3AF673-8462-4C12-8448-8A8C8FBD5668";
shapes = (
{
closed = 1;
nodes = (
(50,-82,l),
(119,-89,o),
(176,-86,o),
(222,-74,cs),
(312,-49,o),
(352,3,o),
(352,58,cs),
(352,107,o),
(320,132,o),
(262,132,cs),
(221,132,o),
(174,111,o),
(135,68,c),
(32,115,l),
(56,500,l),
(467,500,l),
(467,353,l),
(218,353,l),
(205,224,l),
(242,246,o),
(283,262,o),
(341,262,cs),
(375,262,o),
(407,253,o),
(435,236,cs),
(493,200,o),
(527,134,o),
(527,52,cs),
(527,-1,o),
(511,-49,o),
(479,-95,cs),
(415,-184,o),
(284,-244,o),
(100,-235,c)
);
}
);
width = 564;
},
{
layerId = "99EE65B6-DAB1-4E31-8CA0-6E6C34D1775F";
shapes = (
{
closed = 1;
nodes = (
(71,-146,l),
(147,-146,o),
(210,-138,o),
(260,-121,cs),
(360,-87,o),
(408,-28,o),
(408,46,cs),
(408,127,o),
(354,170,o),
(271,170,cs),
(217,170,o),
(162,143,o),
(122,99,c),
(50,124,l),
(72,500,l),
(452,500,l),
(452,411,l),
(169,411,l),
(154,206,l),
(193,234,o),
(246,253,o),
(310,253,cs),
(349,253,o),
(385,245,o),
(415,229,cs),
(476,196,o),
(512,131,o),
(512,44,cs),
(512,-8,o),
(497,-55,o),
(466,-97,cs),
(403,-181,o),
(275,-237,o),
(93,-237,c)
);
}
);
width = 565;
},
{
layerId = "754F3D2A-C810-4C1B-8FE5-1769993D30C0";
shapes = (
{
closed = 1;
nodes = (
(83,-185,l),
(163,-180,o),
(230,-169,o),
(283,-149,cs),
(389,-110,o),
(441,-46,o),
(441,39,cs),
(441,139,o),
(375,193,o),
(276,193,cs),
(214,193,o),
(155,162,o),
(114,118,c),
(60,129,l),
(82,500,l),
(443,500,l),
(443,446,l),
(139,446,l),
(123,195,l),
(163,227,o),
(223,248,o),
(292,248,cs),
(333,248,o),
(371,240,o),
(403,224,cs),
(466,193,o),
(503,129,o),
(503,39,cs),
(503,-12,o),
(489,-58,o),
(458,-98,cs),
(396,-179,o),
(269,-232,o),
(88,-238,c)
);
}
);
width = 565;
}
);
leftKerningGroup = five.osf;
rightKerningGroup = five.osf1;
},
{
glyphname = one.tf;
layers = (
{
layerId = "DC3AF673-8462-4C12-8448-8A8C8FBD5668";
shapes = (
{
closed = 1;
nodes = (
(80,130,l),
(520,130,l),
(520,0,l),
(80,0,l)
);
},
{
closed = 1;
nodes = (
(450,700,l),
(450,0,l),
(275,0,l),
(275,493,l),
(259,480,o),
(237,463,o),
(207,444,cs),
(178,425,o),
(152,409,o),
(131,399,c),
(83,538,l),
(159,587,o),
(230,640,o),
(298,700,c)
);
}
);
width = 600;
},
{
layerId = "99EE65B6-DAB1-4E31-8CA0-6E6C34D1775F";
shapes = (
{
closed = 1;
nodes = (
(80,83,l),
(520,83,l),
(520,0,l),
(80,0,l)
);
},
{
closed = 1;
nodes = (
(386,700,l),
(386,0,l),
(282,0,l),
(282,572,l),
(265,556,o),
(243,539,o),
(216,520,cs),
(189,501,o),
(162,483,o),
(136,468,c),
(99,549,l),
(170,594,o),
(234,643,o),
(289,700,c)
);
}
);
width = 600;
},
{
layerId = "754F3D2A-C810-4C1B-8FE5-1769993D30C0";
shapes = (
{
closed = 1;
nodes = (
(80,55,l),
(520,55,l),
(520,0,l),
(80,0,l)
);
},
{
closed = 1;
nodes = (
(348,700,l),
(348,0,l),
(286,0,l),
(286,619,l),
(269,602,o),
(247,584,o),
(221,565,cs),
(195,546,o),
(168,527,o),
(139,509,c),
(108,555,l),
(177,598,o),
(236,645,o),
(284,700,c)
);
}
);
width = 600;
}
);
},
{
glyphname = one.tosf;
layers = (
{
layerId = "DC3AF673-8462-4C12-8448-8A8C8FBD5668";
shapes = (
{
closed = 1;
nodes = (
(418,500,l),
(418,0,l),
(243,0,l),
(243,294,l),
(228,280,o),
(206,265,o),
(178,247,cs),
(150,229,o),
(125,215,o),
(103,205,c),
(52,337,l),
(139,389,o),
(211,442,o),
(266,500,c)
);
},
{
closed = 1;
nodes = (
(80,130,l),
(520,130,l),
(520,0,l),
(80,0,l)
);
}
);
width = 600;
},
{
layerId = "99EE65B6-DAB1-4E31-8CA0-6E6C34D1775F";
shapes = (
{
closed = 1;
nodes = (
(381,500,l),
(381,0,l),
(277,0,l),
(277,369,l),
(261,354,o),
(239,337,o),
(211,318,cs),
(182,298,o),
(155,282,o),
(129,268,c),
(91,351,l),
(166,396,o),
(230,445,o),
(284,500,c)
);
},
{
closed = 1;
nodes = (
(80,83,l),
(520,83,l),
(520,0,l),
(80,0,l)
);
}
);
width = 600;
},
{
layerId = "754F3D2A-C810-4C1B-8FE5-1769993D30C0";
shapes = (
{
closed = 1;
nodes = (
(359,500,l),
(359,0,l),
(297,0,l),
(297,414,l),
(281,398,o),
(259,380,o),
(231,361,cs),
(201,340,o),
(173,322,o),
(144,306,c),
(114,360,l),
(182,400,o),
(242,447,o),
(295,500,c)
);
},
{
closed = 1;
nodes = (
(80,55,l),
(520,55,l),
(520,0,l),
(80,0,l)
);
}
);
width = 600;
}
);
},
{
glyphname = AE;
layers = (
{
layerId = "DC3AF673-8462-4C12-8448-8A8C8FBD5668";
shapes = (
{
closed = 1;
nodes = (
(587,306,l),
(587,141,l),
(228,141,l),
(228,306,l)
);
},
{
closed = 1;
nodes = (
(555,535,l),
(382,535,l),
(205,0,l),
(8,0,l),
(267,700,l),
(555,700,l)
);
},
{
closed = 1;
nodes = (
(952,700,l),
(952,547,l),
(615,547,l),
(660,592,l),
(660,108,l),
(615,153,l),
(952,153,l),
(952,0,l),
(485,0,l),
(485,700,l)
);
},
{
closed = 1;
nodes = (
(952,438,l),
(952,284,l),
(525,284,l),
(525,438,l)
);
}
);
width = 1013;
},
{
layerId = "99EE65B6-DAB1-4E31-8CA0-6E6C34D1775F";
shapes = (
{
closed = 1;
nodes = (
(556,267,l),
(556,172,l),
(189,172,l),
(189,267,l)
);
},
{
closed = 1;
nodes = (
(555,606,l),
(374,606,l),
(135,0,l),
(16,0,l),
(306,700,l),
(555,700,l)
);
},
{
closed = 1;
nodes = (
(944,700,l),
(944,610,l),
(568,610,l),
(613,655,l),
(613,46,l),
(568,91,l),
(944,91,l),
(944,0,l),
(509,0,l),
(509,700,l)
);
},
{
closed = 1;
nodes = (
(944,402,l),
(944,312,l),
(549,312,l),
(549,402,l)
);
}
);
width = 1018;
},
{
layerId = "754F3D2A-C810-4C1B-8FE5-1769993D30C0";
shapes = (
{
closed = 1;
nodes = (
(537,244,l),
(537,191,l),
(166,191,l),
(166,244,l)
);
},
{
closed = 1;
nodes = (
(555,648,l),
(369,648,l),
(93,0,l),
(21,0,l),
(329,700,l),
(555,700,l)
);
},
{
closed = 1;
nodes = (
(939,700,l),
(939,647,l),
(540,647,l),
(585,692,l),
(585,8,l),
(540,53,l),
(939,53,l),
(939,0,l),
(523,0,l),
(523,700,l)
);
},
{
closed = 1;
nodes = (
(939,381,l),
(939,328,l),
(563,328,l),
(563,381,l)
);
}
);
width = 1021;
}
);
leftKerningGroup = A;
rightKerningGroup = E;
unicode = 198;
},
{
glyphname = Schwa;
layers = (
{
layerId = "DC3AF673-8462-4C12-8448-8A8C8FBD5668";
shapes = (
{
closed = 1;
nodes = (
(178,264,l),
(216,292,l),
(217,263,o),
(225,237,o),
(242,217,cs),
(276,175,o),
(334,155,o),
(402,155,cs),
(434,155,o),
(463,162,o),
(491,176,cs),
(546,204,o),
(584,257,o),
(584,325,cs),
(584,364,ls),
(584,400,o),
(576,432,o),
(560,459,cs),
(526,513,o),
(465,545,o),
(390,545,cs),
(315,545,o),
(251,501,o),
(221,428,c),
(62,505,l),
(91,568,o),
(134,618,o),
(192,656,cs),
(249,692,o),
(316,710,o),
(390,710,cs),
(463,710,o),
(528,695,o),
(584,665,cs),
(696,605,o),
(760,493,o),
(760,350,cs),
(760,279,o),
(745,216,o),
(717,162,cs),
(658,53,o),
(549,-10,o),
(402,-10,cs),
(332,-10,o),
(270,5,o),
(215,35,cs),
(105,94,o),
(38,205,o),
(38,344,cs),
(38,382,l),
(623,382,l),
(623,264,l)
);
}
);
width = 799;
},
{
layerId = "99EE65B6-DAB1-4E31-8CA0-6E6C34D1775F";
shapes = (
{
closed = 1;
nodes = (
(107,288,l),
(149,319,l),
(149,272,o),
(159,231,o),
(180,196,cs),
(222,125,o),
(302,85,o),
(402,85,cs),
(450,85,o),
(493,95,o),
(534,116,cs),
(613,157,o),
(663,232,o),
(663,325,cs),
(663,349,ls),
(663,402,o),
(652,448,o),
(631,488,cs),
(586,569,o),
(503,616,o),
(398,616,cs),
(300,616,o),
(217,564,o),
(174,479,c),
(84,531,l),
(115,587,o),
(157,631,o),
(212,663,cs),
(267,694,o),
(329,710,o),
(398,710,cs),
(471,710,o),
(536,695,o),
(592,665,cs),
(704,605,o),
(768,493,o),
(768,350,cs),
(768,279,o),
(753,216,o),
(723,162,cs),
(663,53,o),
(549,-10,o),
(402,-10,cs),
(333,-10,o),
(271,5,o),
(217,35,cs),
(109,95,o),
(46,207,o),
(46,347,cs),
(46,366,l),
(686,366,l),
(686,288,l)
);
}
);
width = 815;
},
{
layerId = "754F3D2A-C810-4C1B-8FE5-1769993D30C0";
shapes = (
{
closed = 1;
nodes = (
(64,302,l),
(109,335,l),
(108,278,o),
(119,227,o),
(142,183,cs),
(189,95,o),
(283,43,o),
(402,43,cs),
(459,43,o),
(511,55,o),
(559,80,cs),
(653,128,o),
(710,217,o),
(710,325,cs),
(710,340,ls),
(710,403,o),
(698,458,o),
(673,506,cs),
(622,602,o),
(526,658,o),
(403,658,cs),
(291,658,o),
(196,602,o),
(146,509,c),
(97,546,l),
(129,598,o),
(170,638,o),
(224,667,cs),
(277,695,o),
(336,710,o),
(403,710,cs),
(476,710,o),
(541,695,o),
(597,665,cs),
(709,605,o),
(773,493,o),
(773,350,cs),
(773,279,o),
(758,216,o),
(727,162,cs),
(666,53,o),
(549,-10,o),
(402,-10,cs),
(333,-10,o),
(271,5,o),
(218,35,cs),
(111,95,o),
(51,208,o),
(51,349,cs),
(51,357,l),
(724,357,l),
(724,302,l)
);
}
);
width = 824;
}
);
leftKerningGroup = C2;
rightKerningGroup = D;
unicode = 399;
},
{
glyphname = Nhookleft;
layers = (
{
layerId = "DC3AF673-8462-4C12-8448-8A8C8FBD5668";
shapes = (
{
closed = 1;
nodes = (
(10,-110,l),
(71,-93,o),
(102,-52,o),
(102,13,cs),
(102,300,l),
(277,300,l),
(277,13,ls),
(277,-124,o),
(215,-210,o),
(88,-240,c)
);
},
{
closed = 1;
nodes = (
(795,700,l),
(795,0,l),
(610,0,l),
(277,462,l),
(277,0,l),
(102,0,l),
(102,700,l),
(288,700,l),
(620,240,l),
(620,700,l)
);
}
);
width = 872;
},
{
layerId = "99EE65B6-DAB1-4E31-8CA0-6E6C34D1775F";
shapes = (
{
closed = 1;
nodes = (
(10,-157,l),
(65,-146,o),
(94,-110,o),
(94,-50,cs),
(94,299,l),
(199,299,l),
(199,-50,ls),
(199,-159,o),
(150,-216,o),
(49,-240,c)
);
},
{
closed = 1;
nodes = (
(725,700,l),
(725,0,l),
(610,0,l),
(199,548,l),
(199,0,l),
(94,0,l),
(94,700,l),
(202,700,l),
(620,146,l),
(620,700,l)
);
}
);
width = 817;
},
{
layerId = "754F3D2A-C810-4C1B-8FE5-1769993D30C0";
shapes = (
{
closed = 1;
nodes = (
(10,-185,l),
(62,-178,o),
(89,-145,o),
(89,-87,cs),
(89,299,l),
(152,299,l),
(152,-87,ls),
(152,-180,o),
(111,-220,o),
(26,-240,c)
);
},
{
closed = 1;
nodes = (
(683,700,l),
(683,0,l),
(610,0,l),
(152,599,l),
(152,0,l),
(89,0,l),
(89,700,l),
(151,700,l),
(620,90,l),
(620,700,l)
);
}
);
width = 784;
}
);
leftKerningGroup = B1;
unicode = 413;
},
{
glyphname = Eng;
layers = (
{
layerId = "DC3AF673-8462-4C12-8448-8A8C8FBD5668";
shapes = (
{
closed = 1;
nodes = (
(503,-110,l),
(565,-93,o),
(595,-52,o),
(595,13,cs),
(595,300,l),
(770,300,l),
(770,13,ls),
(770,-124,o),
(708,-210,o),
(582,-240,c)
);
},
{
closed = 1;
nodes = (
(770,700,l),
(770,0,l),
(585,0,l),
(252,462,l),
(252,0,l),
(77,0,l),
(77,700,l),
(263,700,l),
(595,240,l),
(595,700,l)
);
}
);
width = 847;
},
{
layerId = "99EE65B6-DAB1-4E31-8CA0-6E6C34D1775F";
shapes = (
{
closed = 1;
nodes = (
(534,-157,l),
(591,-146,o),
(619,-110,o),
(619,-50,cs),
(619,299,l),
(723,299,l),
(723,-50,ls),
(723,-159,o),
(674,-216,o),
(574,-240,c)
);
},
{
closed = 1;
nodes = (
(723,700,l),
(723,0,l),
(609,0,l),
(197,548,l),
(197,0,l),
(93,0,l),
(93,700,l),
(201,700,l),
(619,146,l),
(619,700,l)
);
}
);
width = 816;
},
{
layerId = "754F3D2A-C810-4C1B-8FE5-1769993D30C0";
shapes = (
{
closed = 1;
nodes = (
(553,-185,l),
(606,-178,o),
(633,-145,o),
(633,-87,cs),
(633,299,l),
(695,299,l),
(695,-87,ls),
(695,-180,o),
(654,-220,o),
(569,-240,c)
);
},
{
closed = 1;
nodes = (
(695,700,l),
(695,0,l),
(623,0,l),
(164,599,l),
(164,0,l),
(102,0,l),
(102,700,l),
(163,700,l),
(633,90,l),
(633,700,l)
);
}
);
width = 797;
}
);
rightKerningGroup = H;
unicode = 330;
},
{
glyphname = OE;
layers = (
{
layerId = "DC3AF673-8462-4C12-8448-8A8C8FBD5668";
shapes = (
{
closed = 1;
nodes = (
(326,-10,o),
(263,5,o),
(210,35,cs),
(101,95,o),
(38,207,o),
(38,350,cs),
(38,421,o),
(53,484,o),
(83,539,cs),
(143,647,o),
(254,710,o),
(397,710,cs),
(454,710,o),
(506,698,o),
(553,675,c),
(645,627,o),
(705,538,o),
(717,425,c),
(577,425,l),
(571,449,o),
(560,469,o),
(543,488,cs),
(509,524,o),
(456,545,o),
(397,545,cs),
(359,545,o),
(324,537,o),
(295,521,cs),
(235,488,o),
(202,427,o),
(202,350,cs),
(202,312,o),
(210,278,o),
(226,248,cs),
(258,188,o),
(320,155,o),
(397,155,cs),
(426,155,o),
(454,161,o),
(479,170,c),
(530,191,o),
(566,228,o),
(577,275,c),
(717,275,l),
(712,218,o),
(695,169,o),
(666,126,cs),
(609,40,o),
(512,-10,o),
(397,-10,cs)
);
},
{
closed = 1;
nodes = (
(1044,700,l),
(1044,547,l),
(707,547,l),
(752,592,l),
(752,108,l),
(707,153,l),
(1044,153,l),
(1044,0,l),
(577,0,l),
(577,700,l)
);
},
{
closed = 1;
nodes = (
(1044,438,l),
(1044,284,l),
(617,284,l),
(617,438,l)
);
}
);
width = 1105;
},
{
layerId = "99EE65B6-DAB1-4E31-8CA0-6E6C34D1775F";
shapes = (
{
closed = 1;
nodes = (
(340,-10,o),
(276,5,o),
(221,35,cs),
(110,95,o),
(46,207,o),
(46,350,cs),
(46,421,o),
(61,484,o),
(92,539,cs),
(152,647,o),
(267,710,o),
(413,710,cs),
(472,710,o),
(525,698,o),
(572,675,cs),
(667,627,o),
(729,538,o),
(741,425,c),
(667,425,l),
(657,463,o),
(640,496,o),
(616,525,c),
(566,582,o),
(494,616,o),
(413,616,cs),
(360,616,o),
(313,605,o),
(274,583,cs),
(193,538,o),
(147,455,o),
(147,350,cs),
(147,298,o),
(159,251,o),
(180,211,cs),
(224,131,o),
(308,85,o),
(413,85,cs),
(453,85,o),
(491,93,o),
(526,108,cs),
(596,140,o),
(647,200,o),
(667,275,c),
(741,275,l),
(735,218,o),
(717,169,o),
(688,126,cs),
(629,40,o),
(531,-10,o),
(413,-10,cs)
);
},
{
closed = 1;
nodes = (
(1102,700,l),
(1102,610,l),
(726,610,l),
(771,655,l),
(771,46,l),
(726,91,l),
(1102,91,l),
(1102,0,l),
(666,0,l),
(666,700,l)
);
},
{
closed = 1;
nodes = (
(1102,402,l),
(1102,312,l),
(706,312,l),
(706,402,l)
);
}
);
width = 1176;
},
{
layerId = "754F3D2A-C810-4C1B-8FE5-1769993D30C0";
shapes = (
{
closed = 1;
nodes = (
(349,-10,o),
(283,5,o),
(227,35,cs),
(115,95,o),
(51,207,o),
(51,350,cs),
(51,421,o),
(66,484,o),
(97,539,cs),
(158,647,o),
(274,710,o),
(422,710,cs),
(482,710,o),
(536,698,o),
(584,675,cs),
(680,627,o),
(743,538,o),
(755,425,c),
(721,425,l),
(708,472,o),
(688,512,o),
(659,547,cs),
(600,617,o),
(516,658,o),
(422,658,cs),
(361,658,o),
(307,645,o),
(261,620,cs),
(168,568,o),
(114,472,o),
(114,350,cs),
(114,290,o),
(128,235,o),
(153,189,cs),
(204,96,o),
(300,43,o),
(422,43,cs),
(469,43,o),
(513,52,o),
(554,71,cs),
(635,110,o),
(696,183,o),
(721,275,c),
(755,275,l),
(748,218,o),
(730,169,o),
(701,126,cs),
(641,40,o),
(542,-10,o),
(422,-10,cs)
);
},
{
closed = 1;
nodes = (
(1136,700,l),
(1136,647,l),
(737,647,l),
(782,692,l),
(782,8,l),
(737,53,l),
(1136,53,l),
(1136,0,l),
(720,0,l),
(720,700,l)
);
},
{
closed = 1;
nodes = (
(1136,381,l),
(1136,328,l),
(760,328,l),
(760,381,l)
);
}
);
width = 1218;
}
);
leftKerningGroup = C2;
unicode = 338;
},
{
glyphname = Thorn;
layers = (
{
layerId = "DC3AF673-8462-4C12-8448-8A8C8FBD5668";
shapes = (
{
closed = 1;
nodes = (
(352,610,ls),
(397,610,o),
(440,599,o),
(479,578,cs),
(556,534,o),
(605,455,o),
(605,367,cs),
(605,323,o),
(594,283,o),
(572,245,cs),
(526,170,o),
(444,123,o),
(352,123,cs),
(252,123,l),
(252,0,l),
(77,0,l),
(77,700,l),
(242,700,l),
(252,610,l)
);
},
{
closed = 1;
nodes = (
(352,288,ls),
(367,288,o),
(380,292,o),
(392,299,cs),
(415,313,o),
(430,338,o),
(430,367,cs),
(430,382,o),
(427,395,o),
(420,407,cs),
(406,430,o),
(381,445,o),
(352,445,cs),
(252,445,l),
(252,288,l)
);
}
);
width = 643;
},
{
layerId = "99EE65B6-DAB1-4E31-8CA0-6E6C34D1775F";
shapes = (
{
closed = 1;
nodes = (
(344,610,ls),
(387,610,o),
(428,600,o),
(463,580,cs),
(536,539,o),
(582,465,o),
(582,383,cs),
(582,341,o),
(572,303,o),
(550,269,c),
(507,198,o),
(431,154,o),
(344,154,cs),
(197,154,l),
(197,0,l),
(93,0,l),
(93,700,l),
(187,700,l),
(197,610,l)
);
},
{
closed = 1;
nodes = (
(344,249,ls),
(368,249,o),
(390,255,o),
(411,268,cs),
(451,291,o),
(477,335,o),
(477,383,cs),
(477,407,o),
(471,429,o),
(459,450,cs),
(435,489,o),
(392,516,o),
(344,516,cs),
(197,516,l),
(197,249,l)
);
}
);
width = 627;
},
{
layerId = "754F3D2A-C810-4C1B-8FE5-1769993D30C0";
shapes = (
{
closed = 1;
nodes = (
(339,610,ls),
(381,610,o),
(420,600,o),
(454,581,cs),
(524,542,o),
(568,471,o),
(568,392,cs),
(568,352,o),
(558,315,o),
(537,283,c),
(496,215,o),
(423,173,o),
(339,173,cs),
(164,173,l),
(164,0,l),
(102,0,l),
(102,700,l),
(154,700,l),
(164,610,l)
);
},
{
closed = 1;
nodes = (
(339,226,ls),
(369,226,o),
(396,233,o),
(422,249,c),
(473,278,o),
(505,333,o),
(505,392,cs),
(505,422,o),
(498,449,o),
(483,475,cs),
(453,525,o),
(398,558,o),
(339,558,cs),
(164,558,l),
(164,226,l)
);
}
);
width = 618;
}
);
leftKerningGroup = B;
unicode = 222;
},
{
glyphname = Germandbls;
layers = (
{
layerId = "DC3AF673-8462-4C12-8448-8A8C8FBD5668";
shapes = (
{
closed = 1;
nodes = (
(557,436,l),
(627,431,o),
(682,409,o),
(724,374,c),
(764,338,o),
(784,288,o),
(784,226,cs),
(784,179,o),
(774,136,o),
(753,102,cs),
(711,30,o),
(630,-10,o),
(534,-10,cs),
(438,-10,o),
(364,25,o),
(318,81,c),
(409,200,l),
(441,170,o),
(480,155,o),
(523,155,cs),
(539,155,o),
(555,158,o),
(568,165,c),
(595,177,o),
(609,201,o),
(609,226,cs),
(609,247,o),
(598,266,o),
(574,282,cs),
(550,299,o),
(519,307,o),
(480,307,cs),
(441,307,l),
(402,378,l),
(463,535,l),
(312,535,ls),
(271,535,o),
(252,515,o),
(252,475,cs),
(252,0,l),
(77,0,l),
(77,506,ls),
(77,541,o),
(86,574,o),
(105,604,cs),
(141,663,o),
(207,700,o),
(280,700,cs),
(576,700,l),
(619,582,l)
);
}
);
width = 823;
},
{
layerId = "99EE65B6-DAB1-4E31-8CA0-6E6C34D1775F";
shapes = (
{
closed = 1;
nodes = (
(526,436,l),
(599,433,o),
(658,413,o),
(703,378,cs),
(747,343,o),
(768,291,o),
(768,226,cs),
(768,180,o),
(758,139,o),
(738,104,cs),
(698,32,o),
(619,-10,o),
(518,-10,cs),
(409,-10,o),
(336,36,o),
(296,106,c),
(365,168,l),
(395,114,o),
(448,85,o),
(515,85,cs),
(545,85,o),
(571,91,o),
(594,104,cs),
(639,129,o),
(664,174,o),
(664,226,cs),
(664,265,o),
(647,295,o),
(613,319,cs),
(579,343,o),
(535,354,o),
(480,354,cs),
(441,354,l),
(421,397,l),
(509,606,l),
(304,606,ls),
(232,606,o),
(197,570,o),
(197,499,cs),
(197,0,l),
(93,0,l),
(93,522,ls),
(93,557,o),
(100,588,o),
(116,615,cs),
(147,669,o),
(206,700,o),
(280,700,cs),
(576,700,l),
(603,621,l)
);
}
);
width = 815;
},
{
layerId = "754F3D2A-C810-4C1B-8FE5-1769993D30C0";
shapes = (
{
closed = 1;
nodes = (
(507,436,l),
(582,434,o),
(643,415,o),
(690,380,cs),
(736,346,o),
(759,293,o),
(759,226,cs),
(759,181,o),
(749,141,o),
(729,105,cs),
(690,33,o),
(613,-10,o),
(509,-10,cs),
(392,-10,o),
(319,43,o),
(283,121,c),
(339,149,l),
(368,81,o),
(428,43,o),
(510,43,cs),
(548,43,o),
(581,51,o),
(609,68,cs),
(665,100,o),
(697,158,o),
(697,226,cs),
(697,275,o),
(676,313,o),
(636,341,cs),
(596,369,o),
(544,382,o),
(480,382,cs),
(441,382,l),
(433,409,l),
(536,648,l),
(299,648,ls),
(209,648,o),
(164,603,o),
(164,513,cs),
(164,0,l),
(102,0,l),
(102,531,ls),
(102,566,o),
(109,597,o),
(123,622,cs),
(151,673,o),
(205,700,o),
(280,700,cs),
(576,700,l),
(594,644,l)
);
}
);
width = 810;
}
);
unicode = 7838;
},
{
glyphname = ae;
layers = (
{
layerId = "DC3AF673-8462-4C12-8448-8A8C8FBD5668";
shapes = (
{
closed = 1;
nodes = (
(158,-11,o),
(112,3,o),
(78,31,cs),
(44,59,o),
(27,98,o),
(27,146,cs),
(27,244,o),
(104,301,o),
(236,301,cs),
(429,301,l),
(429,186,ls),
(429,148,o),
(420,113,o),
(402,84,cs),
(364,23,o),
(297,-11,o),
(216,-11,cs)
);
},
{
closed = 1;
nodes = (
(293,107,o),
(320,140,o),
(320,186,cs),
(320,222,l),
(259,222,ls),
(215,222,o),
(190,202,o),
(190,169,cs),
(190,130,o),
(214,107,o),
(253,107,cs)
);
},
{
closed = 1;
nodes = (
(321,318,ls),
(321,353,o),
(301,368,o),
(260,368,cs),
(209,368,o),
(147,353,o),
(95,330,c),
(64,463,l),
(122,493,o),
(187,510,o),
(258,510,cs),
(373,510,o),
(441,442,o),
(441,328,cs),
(441,250,l),
(321,250,l)
);
},
{
closed = 1;
nodes = (
(720,303,l),
(688,261,l),
(693,295,o),
(686,321,o),
(667,340,cs),
(648,358,o),
(623,368,o),
(591,368,cs),
(559,368,o),
(533,358,o),
(513,338,cs),
(493,318,o),
(483,292,o),
(483,258,cs),
(483,240,ls),
(483,219,o),
(489,200,o),
(501,184,c),
(523,151,o),
(567,132,o),
(622,132,cs),
(678,132,o),
(723,147,o),
(762,176,c),
(814,62,l),
(762,16,o),
(692,-10,o),
(601,-10,cs),
(545,-10,o),
(496,1,o),
(454,23,cs),
(368,66,o),
(319,147,o),
(319,250,cs),
(319,301,o),
(330,347,o),
(353,386,c),
(397,465,o),
(483,510,o),
(591,510,cs),
(640,510,o),
(684,499,o),
(723,477,cs),
(800,432,o),
(846,349,o),
(846,248,cs),
(846,219,l),
(454,219,l),
(454,303,l)
);
}
);
width = 873;
},
{
layerId = "99EE65B6-DAB1-4E31-8CA0-6E6C34D1775F";
shapes = (
{
closed = 1;
nodes = (
(167,-10,o),
(123,3,o),
(91,30,cs),
(59,58,o),
(43,94,o),
(43,139,cs),
(43,232,o),
(115,286,o),
(240,286,cs),
(430,286,l),
(430,199,ls),
(430,157,o),
(421,121,o),
(403,90,cs),
(367,26,o),
(303,-10,o),
(220,-10,cs)
);
},
{
closed = 1;
nodes = (
(314,69,o),
(363,121,o),
(363,199,cs),
(363,227,l),
(263,227,ls),
(186,227,o),
(145,198,o),
(145,147,cs),
(145,99,o),
(183,69,o),
(241,69,cs)
);
},
{
closed = 1;
nodes = (
(362,326,ls),
(362,391,o),
(329,423,o),
(262,423,cs),
(211,423,o),
(153,405,o),
(106,379,c),
(75,456,l),
(127,489,o),
(196,510,o),
(268,510,cs),
(374,510,o),
(435,445,o),
(435,336,cs),
(435,250,l),
(362,250,l)
);
},
{
closed = 1;
nodes = (
(818,287,l),
(779,260,l),
(782,309,o),
(770,349,o),
(742,379,cs),
(714,408,o),
(675,423,o),
(626,423,cs),
(577,423,o),
(538,408,o),
(507,379,c),
(477,349,o),
(463,311,o),
(463,262,cs),
(463,237,ls),
(463,205,o),
(471,178,o),
(486,153,cs),
(517,104,o),
(576,77,o),
(650,77,cs),
(713,78,o),
(769,101,o),
(808,140,c),
(850,73,l),
(803,22,o),
(726,-10,o),
(636,-10,cs),
(582,-10,o),
(534,1,o),
(493,23,cs),
(409,66,o),
(362,147,o),
(362,250,cs),
(362,301,o),
(373,347,o),
(396,386,c),
(438,465,o),
(521,510,o),
(626,510,cs),
(675,510,o),
(719,500,o),
(757,478,cs),
(834,436,o),
(877,356,o),
(877,256,cs),
(877,223,l),
(432,223,l),
(432,287,l)
);
}
);
width = 920;
},
{
layerId = "754F3D2A-C810-4C1B-8FE5-1769993D30C0";
shapes = (
{
closed = 1;
nodes = (
(172,-10,o),
(130,3,o),
(99,30,cs),
(68,57,o),
(52,92,o),
(52,134,cs),
(52,225,o),
(122,277,o),
(242,277,cs),
(430,277,l),
(430,206,ls),
(430,163,o),
(421,126,o),
(404,94,cs),
(369,28,o),
(306,-10,o),
(222,-10,cs)
);
},
{
closed = 1;
nodes = (
(326,46,o),
(388,110,o),
(388,206,cs),
(388,230,l),
(265,230,ls),
(169,230,o),
(118,196,o),
(118,133,cs),
(118,81,o),
(165,46,o),
(234,46,cs)
);
},
{
closed = 1;
nodes = (
(387,331,ls),
(387,413,o),
(345,456,o),
(263,456,cs),
(212,456,o),
(156,436,o),
(112,408,c),
(82,451,l),
(130,487,o),
(201,510,o),
(274,510,cs),
(374,510,o),
(432,447,o),
(432,341,cs),
(432,250,l),
(387,250,l)
);
},
{
closed = 1;
nodes = (
(876,278,l),
(833,259,l),
(836,318,o),
(821,366,o),
(787,402,cs),
(753,438,o),
(706,456,o),
(647,456,cs),
(588,456,o),
(541,438,o),
(504,403,cs),
(468,368,o),
(451,322,o),
(451,264,cs),
(451,235,ls),
(451,197,o),
(460,164,o),
(477,135,cs),
(513,76,o),
(581,44,o),
(666,44,cs),
(734,45,o),
(797,73,o),
(836,118,c),
(872,80,l),
(828,25,o),
(746,-10,o),
(657,-10,cs),
(604,-10,o),
(557,1,o),
(516,23,cs),
(434,66,o),
(388,147,o),
(388,250,cs),
(388,301,o),
(399,347,o),
(421,386,cs),
(463,465,o),
(544,510,o),
(647,510,cs),
(696,510,o),
(740,500,o),
(778,479,cs),
(854,438,o),
(896,360,o),
(896,261,cs),
(896,225,l),
(418,225,l),
(418,278,l)
);
}
);
width = 948;
}
);
leftKerningGroup = ae;
rightKerningGroup = e;
unicode = 230;
},
{
glyphname = eth;
layers = (
{
layerId = "DC3AF673-8462-4C12-8448-8A8C8FBD5668";
shapes = (
{
closed = 1;
nodes = (
(508,701,l),
(280,485,l),
(252,516,l),
(479,731,l)
);
},
{
closed = 1;
nodes = (
(315,439,o),
(338,435,o),
(361,427,cs),
(404,412,o),
(435,384,o),
(451,353,cs),
(465,324,o),
(495,313,o),
(545,300,c),
(583,289,o),
(600,283,o),
(607,270,c),
(607,215,o),
(596,166,o),
(573,124,cs),
(529,39,o),
(446,-10,o),
(343,-10,cs),
(296,-10,o),
(251,1,o),
(212,22,cs),
(131,65,o),
(80,143,o),
(80,230,cs),
(80,269,o),
(89,305,o),
(107,337,cs),
(142,401,o),
(209,439,o),
(289,439,cs)
);
},
{
closed = 1;
nodes = (
(359,155,o),
(374,158,o),
(388,165,cs),
(415,179,o),
(432,203,o),
(432,232,cs),
(432,246,o),
(428,259,o),
(420,271,cs),
(405,294,o),
(375,308,o),
(343,308,cs),
(328,308,o),
(312,305,o),
(299,298,cs),
(272,285,o),
(255,260,o),
(255,232,cs),
(255,217,o),
(260,204,o),
(268,193,c),
(283,169,o),
(312,155,o),
(343,155,cs)
);
},
{
closed = 1;
nodes = (
(324,720,l),
(410,679,o),
(479,618,o),
(530,541,cs),
(582,464,o),
(607,373,o),
(607,270,c),
(432,270,l),
(432,431,o),
(344,557,o),
(191,636,c)
);
}
);
width = 687;
},
{
layerId = "99EE65B6-DAB1-4E31-8CA0-6E6C34D1775F";
shapes = (
{
closed = 1;
nodes = (
(485,693,l),
(272,493,l),
(244,524,l),
(457,724,l)
);
},
{
closed = 1;
nodes = (
(321,439,o),
(346,435,o),
(370,426,cs),
(417,410,o),
(453,380,o),
(476,345,cs),
(492,320,o),
(510,310,o),
(537,299,cs),
(560,290,o),
(569,284,o),
(576,270,c),
(576,215,o),
(565,166,o),
(544,124,cs),
(502,39,o),
(424,-10,o),
(327,-10,cs),
(284,-10,o),
(242,1,o),
(204,22,cs),
(128,65,o),
(80,143,o),
(80,230,cs),
(80,269,o),
(90,305,o),
(108,337,cs),
(145,400,o),
(215,439,o),
(292,439,cs)
);
},
{
closed = 1;
nodes = (
(353,85,o),
(377,91,o),
(399,103,c),
(443,129,o),
(471,174,o),
(471,224,cs),
(471,249,o),
(464,272,o),
(451,294,cs),
(426,337,o),
(379,363,o),
(327,363,cs),
(302,363,o),
(278,357,o),
(256,344,cs),
(213,319,o),
(185,274,o),
(185,224,cs),
(185,198,o),
(192,175,o),
(204,154,cs),
(230,112,o),
(276,85,o),
(327,85,cs)
);
},
{
closed = 1;
nodes = (
(305,717,l),
(387,667,o),
(452,602,o),
(502,525,cs),
(551,448,o),
(576,363,o),
(576,270,c),
(471,270,l),
(471,430,o),
(385,558,o),
(234,656,c)
);
}
);
width = 656;
},
{
layerId = "754F3D2A-C810-4C1B-8FE5-1769993D30C0";
shapes = (
{
closed = 1;
nodes = (
(471,688,l),
(267,498,l),
(239,529,l),
(443,719,l)
);
},
{
closed = 1;
nodes = (
(324,439,o),
(351,435,o),
(376,426,cs),
(425,408,o),
(463,377,o),
(491,340,cs),
(508,318,o),
(519,308,o),
(532,299,cs),
(546,290,o),
(550,285,o),
(557,270,c),
(557,215,o),
(547,166,o),
(527,124,cs),
(486,39,o),
(411,-10,o),
(318,-10,cs),
(276,-10,o),
(236,1,o),
(199,22,cs),
(126,65,o),
(80,143,o),
(80,230,cs),
(80,269,o),
(90,305,o),
(109,337,cs),
(147,400,o),
(218,439,o),
(294,439,cs)
);
},
{
closed = 1;
nodes = (
(350,43,o),
(379,51,o),
(406,66,c),
(460,99,o),
(494,156,o),
(494,219,cs),
(494,251,o),
(486,280,o),
(470,307,cs),
(438,362,o),
(381,396,o),
(318,396,cs),
(286,396,o),
(257,388,o),
(230,372,cs),
(177,340,o),
(143,283,o),
(143,219,cs),
(143,187,o),
(151,158,o),
(166,131,c),
(198,77,o),
(255,43,o),
(318,43,cs)
);
},
{
closed = 1;
nodes = (
(293,715,l),
(373,659,o),
(436,593,o),
(485,516,cs),
(533,439,o),
(557,357,o),
(557,270,c),
(494,270,l),
(494,429,o),
(410,559,o),
(260,668,c)
);
}
);
width = 637;
}
);
unicode = 240;
},
{
glyphname = schwa;
layers = (
{
layerId = "DC3AF673-8462-4C12-8448-8A8C8FBD5668";
shapes = (
{
closed = 1;
nodes = (
(144,197,l),
(184,227,l),
(181,208,o),
(183,191,o),
(189,177,cs),
(203,148,o),
(235,132,o),
(281,132,cs),
(302,132,o),
(321,136,o),
(338,144,c),
(370,161,o),
(389,193,o),
(389,233,cs),
(389,240,ls),
(389,263,o),
(383,284,o),
(372,302,c),
(349,336,o),
(306,357,o),
(251,357,cs),
(200,357,o),
(135,341,o),
(87,316,c),
(50,445,l),
(75,465,o),
(110,480,o),
(151,492,cs),
(192,504,o),
(232,510,o),
(273,510,cs),
(328,510,o),
(377,499,o),
(420,478,c),
(505,434,o),
(554,353,o),
(554,250,cs),
(554,199,o),
(543,153,o),
(521,114,cs),
(475,35,o),
(389,-10,o),
(281,-10,cs),
(230,-10,o),
(186,1,o),
(148,23,cs),
(72,67,o),
(27,148,o),
(27,252,cs),
(27,281,l),
(403,281,l),
(398,198,l)
);
}
);
width = 581;
},
{
layerId = "99EE65B6-DAB1-4E31-8CA0-6E6C34D1775F";
shapes = (
{
closed = 1;
nodes = (
(98,208,l),
(142,242,l),
(139,209,o),
(143,180,o),
(155,156,cs),
(179,106,o),
(231,77,o),
(300,77,cs),
(331,77,o),
(359,84,o),
(382,97,cs),
(429,122,o),
(457,171,o),
(457,232,cs),
(457,253,ls),
(457,286,o),
(449,315,o),
(434,341,c),
(403,391,o),
(344,420,o),
(270,420,cs),
(211,419,o),
(145,394,o),
(103,357,c),
(66,428,l),
(88,453,o),
(121,473,o),
(161,488,cs),
(201,503,o),
(242,510,o),
(284,510,cs),
(338,510,o),
(386,499,o),
(428,478,cs),
(511,434,o),
(558,353,o),
(558,250,cs),
(558,199,o),
(548,153,o),
(527,114,cs),
(484,35,o),
(402,-10,o),
(300,-10,cs),
(249,-10,o),
(204,0,o),
(166,22,c),
(88,64,o),
(43,144,o),
(43,244,cs),
(43,277,l),
(471,277,l),
(469,209,l)
);
}
);
width = 600;
},
{
layerId = "754F3D2A-C810-4C1B-8FE5-1769993D30C0";
shapes = (
{
closed = 1;
nodes = (
(70,215,l),
(117,251,l),
(114,210,o),
(119,174,o),
(134,143,cs),
(164,81,o),
(229,44,o),
(312,44,cs),
(348,44,o),
(381,52,o),
(409,68,cs),
(465,99,o),
(497,158,o),
(497,232,cs),
(497,260,ls),
(497,299,o),
(488,334,o),
(471,364,cs),
(435,424,o),
(367,457,o),
(282,457,cs),
(217,456,o),
(151,426,o),
(113,381,c),
(76,418,l),
(96,446,o),
(127,468,o),
(167,486,c),
(206,502,o),
(248,510,o),
(291,510,cs),
(344,510,o),
(392,499,o),
(433,478,cs),
(515,434,o),
(560,353,o),
(560,250,cs),
(560,199,o),
(551,153,o),
(530,114,cs),
(489,35,o),
(410,-10,o),
(312,-10,cs),
(261,-10,o),
(215,0,o),
(176,21,cs),
(97,62,o),
(52,141,o),
(52,239,cs),
(52,275,l),
(511,275,l),
(511,216,l)
);
}
);
width = 612;
}
);
unicode = 601;
},
{
glyphname = dotlessi;
layers = (
{
layerId = "DC3AF673-8462-4C12-8448-8A8C8FBD5668";
shapes = (
{
closed = 1;
nodes = (
(214,500,l),
(214,0,l),
(51,0,l),
(51,500,l)
);
}
);
width = 265;
},
{
layerId = "99EE65B6-DAB1-4E31-8CA0-6E6C34D1775F";
shapes = (
{
closed = 1;
nodes = (
(166,500,l),
(166,0,l),
(65,0,l),
(65,500,l)
);
}
);
width = 231;
},
{
layerId = "754F3D2A-C810-4C1B-8FE5-1769993D30C0";
shapes = (
{
closed = 1;
nodes = (
(137,500,l),
(137,0,l),
(74,0,l),
(74,500,l)
);
}
);
width = 210;
}
);
leftKerningGroup = i.TRK;
rightKerningGroup = i1;
unicode = 305;
},
{
glyphname = dotlessj;
layers = (
{
layerId = "DC3AF673-8462-4C12-8448-8A8C8FBD5668";
shapes = (
{
closed = 1;
nodes = (
(10,-110,l),
(71,-93,o),
(102,-52,o),
(102,13,cs),
(102,500,l),
(265,500,l),
(265,13,ls),
(265,-124,o),
(203,-210,o),
(77,-240,c)
);
}
);
width = 316;
},
{
layerId = "99EE65B6-DAB1-4E31-8CA0-6E6C34D1775F";
shapes = (
{
closed = 1;
nodes = (
(10,-156,l),
(65,-146,o),
(94,-110,o),
(94,-49,cs),
(94,500,l),
(195,500,l),
(195,-49,ls),
(195,-158,o),
(146,-216,o),
(46,-239,c)
);
}
);
width = 260;
},
{
layerId = "754F3D2A-C810-4C1B-8FE5-1769993D30C0";
shapes = (
{
closed = 1;
nodes = (
(10,-184,l),
(62,-177,o),
(89,-144,o),
(89,-86,cs),
(89,500,l),
(153,500,l),
(153,-86,ls),
(153,-179,o),
(112,-219,o),
(27,-239,c)
);
}
);
width = 226;
}
);
leftKerningGroup = dotlessj;
rightKerningGroup = dotlessj1;
unicode = 567;
},
{
glyphname = kgreenlandic;
layers = (
{
layerId = "DC3AF673-8462-4C12-8448-8A8C8FBD5668";
shapes = (
{
closed = 1;
nodes = (
(403,260,l),
(603,0,l),
(400,0,l),
(220,261,l),
(380,500,l),
(583,500,l)
);
},
{
closed = 1;
nodes = (
(220,500,l),
(220,0,l),
(57,0,l),
(57,500,l)
);
}
);
width = 613;
},
{
layerId = "99EE65B6-DAB1-4E31-8CA0-6E6C34D1775F";
shapes = (
{
closed = 1;
nodes = (
(294,260,l),
(541,0,l),
(400,0,l),
(173,261,l),
(380,500,l),
(521,500,l)
);
},
{
closed = 1;
nodes = (
(173,500,l),
(173,0,l),
(73,0,l),
(73,500,l)
);
}
);
width = 551;
},
{
layerId = "754F3D2A-C810-4C1B-8FE5-1769993D30C0";
shapes = (
{
closed = 1;
nodes = (
(228,260,l),
(503,0,l),
(400,0,l),
(145,261,l),
(380,500,l),
(483,500,l)
);
},
{
closed = 1;
nodes = (
(145,500,l),
(145,0,l),
(82,0,l),
(82,500,l)
);
}
);
width = 513;
}
);
rightKerningGroup = k;
unicode = 312;
},
{
glyphname = nhookleft;
layers = (
{
layerId = "DC3AF673-8462-4C12-8448-8A8C8FBD5668";
shapes = (
{
closed = 1;
nodes = (
(10,-110,l),
(71,-93,o),
(102,-52,o),
(102,13,cs),
(102,300,l),
(265,300,l),
(265,13,ls),
(265,-124,o),
(203,-210,o),
(77,-240,c)
);
},
{
closed = 1;
nodes = (
(438,278,ls),
(438,331,o),
(411,368,o),
(355,368,cs),
(336,368,o),
(320,365,o),
(307,356,c),
(280,340,o),
(265,307,o),
(265,268,c),
(223,268,l),
(223,319,o),
(232,363,o),
(250,400,cs),
(285,473,o),
(348,510,o),
(423,510,cs),
(478,510,o),
(521,492,o),
(553,455,cs),
(586,418,o),
(602,371,o),
(602,313,cs),
(602,0,l),
(438,0,l)
);
},
{
closed = 1;
nodes = (
(102,500,l),
(265,500,l),
(265,0,l),
(102,0,l)
);
}
);
width = 648;
},
{
layerId = "99EE65B6-DAB1-4E31-8CA0-6E6C34D1775F";
shapes = (
{
closed = 1;
nodes = (
(10,-157,l),
(65,-146,o),
(94,-110,o),
(94,-50,cs),
(94,299,l),
(195,299,l),
(195,-50,ls),
(195,-159,o),
(146,-216,o),
(46,-240,c)
);
},
{
closed = 1;
nodes = (
(446,286,ls),
(446,379,o),
(402,423,o),
(332,423,cs),
(308,423,o),
(286,419,o),
(266,409,cs),
(224,388,o),
(195,343,o),
(195,276,c),
(161,276,l),
(161,329,o),
(170,373,o),
(188,409,cs),
(225,479,o),
(288,510,o),
(361,510,cs),
(416,510,o),
(461,492,o),
(496,456,cs),
(530,420,o),
(547,367,o),
(547,297,cs),
(547,0,l),
(446,0,l)
);
},
{
closed = 1;
nodes = (
(94,500,l),
(195,500,l),
(195,0,l),
(94,0,l)
);
}
);
width = 609;
},
{
layerId = "754F3D2A-C810-4C1B-8FE5-1769993D30C0";
shapes = (
{
closed = 1;
nodes = (
(10,-185,l),
(62,-178,o),
(89,-145,o),
(89,-87,cs),
(89,299,l),
(153,299,l),
(153,-87,ls),
(153,-180,o),
(112,-220,o),
(27,-240,c)
);
},
{
closed = 1;
nodes = (
(451,291,ls),
(451,407,o),
(396,456,o),
(318,456,cs),
(291,456,o),
(265,451,o),
(241,440,cs),
(190,417,o),
(153,365,o),
(153,281,c),
(123,281,l),
(123,335,o),
(132,379,o),
(151,414,cs),
(189,482,o),
(252,510,o),
(323,510,cs),
(378,510,o),
(425,492,o),
(461,457,c),
(496,421,o),
(514,365,o),
(514,288,cs),
(514,0,l),
(451,0,l)
);
},
{
closed = 1;
nodes = (
(89,500,l),
(153,500,l),
(153,0,l),
(89,0,l)
);
}
);
width = 586;
}
);
leftKerningGroup = dotlessj;
unicode = 626;
},
{
glyphname = eng;
layers = (
{
layerId = "DC3AF673-8462-4C12-8448-8A8C8FBD5668";
shapes = (
{
closed = 1;
nodes = (
(302,-110,l),
(363,-93,o),
(393,-52,o),
(393,13,cs),
(393,300,l),
(557,300,l),
(557,13,ls),
(557,-124,o),
(495,-210,o),
(368,-240,c)
);
},
{
closed = 1;
nodes = (
(393,278,ls),
(393,331,o),
(366,368,o),
(310,368,cs),
(291,368,o),
(275,365,o),
(262,356,c),
(235,340,o),
(220,307,o),
(220,268,c),
(178,268,l),
(178,319,o),
(187,363,o),
(205,400,cs),
(240,473,o),
(303,510,o),
(378,510,cs),
(433,510,o),
(476,492,o),
(508,455,cs),
(541,418,o),
(557,371,o),
(557,313,cs),
(557,0,l),
(393,0,l)
);
},
{
closed = 1;
nodes = (
(57,500,l),
(220,500,l),
(220,0,l),
(57,0,l)
);
}
);
width = 603;
},
{
layerId = "99EE65B6-DAB1-4E31-8CA0-6E6C34D1775F";
shapes = (
{
closed = 1;
nodes = (
(341,-157,l),
(397,-146,o),
(424,-110,o),
(424,-50,cs),
(424,299,l),
(526,299,l),
(526,-50,ls),
(526,-159,o),
(477,-216,o),
(376,-240,c)
);
},
{
closed = 1;
nodes = (
(424,286,ls),
(424,379,o),
(380,423,o),
(310,423,cs),
(287,423,o),
(264,419,o),
(244,409,cs),
(203,388,o),
(173,343,o),
(173,276,c),
(139,276,l),
(139,329,o),
(148,373,o),
(167,409,cs),
(203,479,o),
(266,510,o),
(339,510,cs),
(394,510,o),
(439,492,o),
(474,456,cs),
(509,420,o),
(526,367,o),
(526,297,cs),
(526,0,l),
(424,0,l)
);
},
{
closed = 1;
nodes = (
(73,500,l),
(173,500,l),
(173,0,l),
(73,0,l)
);
}
);
width = 587;
},
{
layerId = "754F3D2A-C810-4C1B-8FE5-1769993D30C0";
shapes = (
{
closed = 1;
nodes = (
(364,-185,l),
(417,-178,o),
(443,-145,o),
(443,-87,cs),
(443,299,l),
(507,299,l),
(507,-87,ls),
(507,-180,o),
(466,-220,o),
(381,-240,c)
);
},
{
closed = 1;
nodes = (
(443,291,ls),
(443,407,o),
(389,456,o),
(310,456,cs),
(284,456,o),
(258,451,o),
(233,440,cs),
(183,417,o),
(145,365,o),
(145,281,c),
(116,281,l),
(116,335,o),
(125,379,o),
(144,414,cs),
(181,482,o),
(244,510,o),
(316,510,cs),
(371,510,o),
(417,492,o),
(453,457,cs),
(489,421,o),
(507,365,o),
(507,288,cs),
(507,0,l),
(443,0,l)
);
},
{
closed = 1;
nodes = (
(82,500,l),
(145,500,l),
(145,0,l),
(82,0,l)
);
}
);
width = 578;
}
);
leftKerningGroup = m;
unicode = 331;
},
{
glyphname = oe;
layers = (
{
layerId = "DC3AF673-8462-4C12-8448-8A8C8FBD5668";
shapes = (
{
closed = 1;
nodes = (
(225,-10,o),
(182,1,o),
(144,23,cs),
(69,66,o),
(27,147,o),
(27,250,cs),
(27,301,o),
(37,347,o),
(57,386,cs),
(98,465,o),
(176,510,o),
(273,510,cs),
(320,510,o),
(361,499,o),
(398,478,c),
(469,434,o),
(510,353,o),
(510,250,cs),
(510,199,o),
(500,153,o),
(480,114,cs),
(441,35,o),
(367,-10,o),
(273,-10,cs)
);
},
{
closed = 1;
nodes = (
(329,143,o),
(355,153,o),
(374,173,c),
(394,192,o),
(403,218,o),
(403,250,cs),
(403,282,o),
(394,308,o),
(374,327,c),
(355,347,o),
(329,357,o),
(297,357,cs),
(265,357,o),
(239,347,o),
(219,327,cs),
(200,308,o),
(190,282,o),
(190,250,cs),
(190,218,o),
(200,192,o),
(219,173,cs),
(239,153,o),
(265,143,o),
(297,143,cs)
);
},
{
closed = 1;
nodes = (
(805,303,l),
(772,261,l),
(778,295,o),
(771,321,o),
(752,340,cs),
(733,358,o),
(708,368,o),
(675,368,cs),
(644,368,o),
(618,358,o),
(598,338,cs),
(578,318,o),
(568,292,o),
(568,258,cs),
(568,240,ls),
(568,219,o),
(573,200,o),
(586,184,c),
(608,151,o),
(652,132,o),
(707,132,cs),
(762,132,o),
(808,147,o),
(847,176,c),
(899,62,l),
(847,16,o),
(776,-10,o),
(685,-10,cs),
(630,-10,o),
(580,1,o),
(538,23,cs),
(453,66,o),
(403,147,o),
(403,250,cs),
(403,301,o),
(414,347,o),
(438,386,c),
(483,465,o),
(567,510,o),
(675,510,cs),
(724,510,o),
(768,499,o),
(807,477,cs),
(884,432,o),
(931,349,o),
(931,248,cs),
(931,219,l),
(538,219,l),
(538,303,l)
);
}
);
width = 958;
},
{
layerId = "99EE65B6-DAB1-4E31-8CA0-6E6C34D1775F";
shapes = (
{
closed = 1;
nodes = (
(253,-10,o),
(208,1,o),
(168,23,cs),
(88,66,o),
(43,147,o),
(43,250,cs),
(43,301,o),
(53,347,o),
(75,386,cs),
(118,465,o),
(201,510,o),
(304,510,cs),
(354,510,o),
(399,499,o),
(437,478,cs),
(513,434,o),
(557,353,o),
(557,250,cs),
(557,199,o),
(546,153,o),
(526,114,cs),
(484,35,o),
(405,-10,o),
(304,-10,cs)
);
},
{
closed = 1;
nodes = (
(363,81,o),
(404,96,o),
(435,127,cs),
(467,158,o),
(481,199,o),
(481,250,cs),
(481,301,o),
(467,342,o),
(435,373,cs),
(404,404,o),
(363,420,o),
(313,420,cs),
(262,420,o),
(221,404,o),
(190,373,cs),
(159,342,o),
(143,301,o),
(143,250,cs),
(143,199,o),
(159,158,o),
(190,127,cs),
(221,96,o),
(262,81,o),
(313,81,cs)
);
},
{
closed = 1;
nodes = (
(938,287,l),
(898,260,l),
(902,309,o),
(890,349,o),
(862,379,cs),
(834,408,o),
(794,423,o),
(746,423,cs),
(697,423,o),
(657,408,o),
(627,379,cs),
(597,349,o),
(583,311,o),
(583,262,cs),
(583,237,ls),
(583,205,o),
(591,178,o),
(606,153,cs),
(637,104,o),
(696,77,o),
(770,77,cs),
(833,78,o),
(889,101,o),
(928,140,c),
(970,73,l),
(923,22,o),
(845,-10,o),
(756,-10,cs),
(702,-10,o),
(654,1,o),
(612,23,cs),
(529,66,o),
(481,147,o),
(481,250,cs),
(481,301,o),
(492,347,o),
(515,386,cs),
(559,465,o),
(641,510,o),
(746,510,cs),
(795,510,o),
(839,500,o),
(876,478,c),
(953,436,o),
(997,356,o),
(997,256,cs),
(997,223,l),
(551,223,l),
(551,287,l)
);
}
);
width = 1040;
},
{
layerId = "754F3D2A-C810-4C1B-8FE5-1769993D30C0";
shapes = (
{
closed = 1;
nodes = (
(270,-10,o),
(223,1,o),
(182,23,cs),
(99,66,o),
(52,147,o),
(52,250,cs),
(52,301,o),
(63,347,o),
(86,386,c),
(130,465,o),
(216,510,o),
(323,510,cs),
(375,510,o),
(421,499,o),
(460,478,cs),
(540,434,o),
(585,353,o),
(585,250,cs),
(585,199,o),
(574,153,o),
(553,114,cs),
(509,35,o),
(427,-10,o),
(323,-10,cs)
);
},
{
closed = 1;
nodes = (
(384,43,o),
(433,62,o),
(472,100,cs),
(510,138,o),
(528,188,o),
(528,250,cs),
(528,312,o),
(510,362,o),
(472,400,cs),
(433,438,o),
(384,457,o),
(322,457,cs),
(260,457,o),
(210,438,o),
(172,400,cs),
(134,362,o),
(115,312,o),
(115,250,cs),
(115,188,o),
(134,138,o),
(172,100,cs),
(210,62,o),
(260,43,o),
(322,43,cs)
);
},
{
closed = 1;
nodes = (
(1017,278,l),
(973,259,l),
(976,318,o),
(962,366,o),
(928,402,cs),
(894,438,o),
(846,456,o),
(788,456,cs),
(729,456,o),
(681,438,o),
(645,403,cs),
(609,368,o),
(592,322,o),
(592,264,cs),
(592,235,ls),
(592,197,o),
(601,164,o),
(618,135,cs),
(654,76,o),
(722,44,o),
(807,44,cs),
(875,45,o),
(938,73,o),
(977,118,c),
(1013,80,l),
(969,25,o),
(886,-10,o),
(798,-10,cs),
(745,-10,o),
(698,1,o),
(657,23,cs),
(575,66,o),
(528,147,o),
(528,250,cs),
(528,301,o),
(539,347,o),
(561,386,cs),
(604,465,o),
(685,510,o),
(788,510,cs),
(837,510,o),
(881,500,o),
(918,479,cs),
(994,438,o),
(1037,360,o),
(1037,261,cs),
(1037,225,l),
(558,225,l),
(558,278,l)
);
}
);
width = 1089;
}
);
leftKerningGroup = a2;
rightKerningGroup = e;
unicode = 339;
},
{
glyphname = thorn;
layers = (
{
layerId = "DC3AF673-8462-4C12-8448-8A8C8FBD5668";
shapes = (
{
closed = 1;
nodes = (
(220,413,l),
(180,250,l),
(220,86,l),
(220,-240,l),
(57,-240,l),
(57,760,l),
(210,760,l)
);
},
{
closed = 1;
nodes = (
(395,510,o),
(435,499,o),
(472,478,c),
(544,434,o),
(587,353,o),
(587,250,cs),
(587,199,o),
(577,153,o),
(557,114,cs),
(517,35,o),
(440,-10,o),
(350,-10,cs),
(310,-10,o),
(276,1,o),
(247,23,cs),
(190,66,o),
(158,146,o),
(158,250,cs),
(158,302,o),
(166,348,o),
(181,387,cs),
(212,465,o),
(270,510,o),
(350,510,cs)
);
},
{
closed = 1;
nodes = (
(349,132,o),
(375,143,o),
(394,165,c),
(414,186,o),
(423,215,o),
(423,250,cs),
(423,286,o),
(414,315,o),
(394,337,cs),
(375,357,o),
(349,368,o),
(317,368,cs),
(285,368,o),
(259,357,o),
(239,337,c),
(220,315,o),
(210,286,o),
(210,250,cs),
(210,215,o),
(220,186,o),
(239,165,cs),
(259,143,o),
(285,132,o),
(317,132,cs)
);
}
);
width = 613;
},
{
layerId = "99EE65B6-DAB1-4E31-8CA0-6E6C34D1775F";
shapes = (
{
closed = 1;
nodes = (
(173,397,l),
(133,250,l),
(173,102,l),
(173,-240,l),
(73,-240,l),
(73,760,l),
(163,760,l)
);
},
{
closed = 1;
nodes = (
(399,510,o),
(443,499,o),
(481,478,cs),
(558,434,o),
(603,353,o),
(603,250,cs),
(603,199,o),
(592,153,o),
(571,114,cs),
(528,35,o),
(449,-10,o),
(350,-10,cs),
(304,-10,o),
(264,1,o),
(228,23,cs),
(159,66,o),
(119,147,o),
(119,250,cs),
(119,301,o),
(129,347,o),
(147,386,cs),
(185,465,o),
(258,510,o),
(350,510,cs)
);
},
{
closed = 1;
nodes = (
(383,77,o),
(424,93,o),
(455,125,cs),
(487,157,o),
(501,198,o),
(501,250,cs),
(501,302,o),
(487,344,o),
(455,376,cs),
(424,407,o),
(383,423,o),
(333,423,cs),
(282,423,o),
(241,407,o),
(210,376,cs),
(179,344,o),
(163,302,o),
(163,250,cs),
(163,198,o),
(179,157,o),
(210,125,cs),
(241,93,o),
(282,77,o),
(333,77,cs)
);
}
);
width = 644;
},
{
layerId = "754F3D2A-C810-4C1B-8FE5-1769993D30C0";
shapes = (
{
closed = 1;
nodes = (
(145,388,l),
(105,250,l),
(145,111,l),
(145,-240,l),
(82,-240,l),
(82,760,l),
(135,760,l)
);
},
{
closed = 1;
nodes = (
(401,510,o),
(448,499,o),
(487,478,cs),
(567,434,o),
(612,353,o),
(612,250,cs),
(612,199,o),
(601,153,o),
(580,114,cs),
(535,35,o),
(454,-10,o),
(350,-10,cs),
(300,-10,o),
(256,1,o),
(217,23,cs),
(140,66,o),
(96,147,o),
(96,250,cs),
(96,301,o),
(106,347,o),
(127,386,cs),
(169,465,o),
(250,510,o),
(350,510,cs)
);
},
{
closed = 1;
nodes = (
(404,44,o),
(453,63,o),
(492,101,cs),
(530,139,o),
(548,188,o),
(548,250,cs),
(548,312,o),
(530,361,o),
(492,399,cs),
(453,437,o),
(404,456,o),
(342,456,cs),
(280,456,o),
(230,437,o),
(192,399,cs),
(154,361,o),
(135,312,o),
(135,250,cs),
(135,188,o),
(154,139,o),
(192,101,cs),
(230,63,o),
(280,44,o),
(342,44,cs)
);
}
);
width = 663;
}
);
rightKerningGroup = b;
unicode = 254;
},
{
glyphname = germandbls;
layers = (
{
layerId = "DC3AF673-8462-4C12-8448-8A8C8FBD5668";
shapes = (
{
closed = 1;
nodes = (
(40,347,l),
(40,500,l),
(157,500,l),
(157,347,l)
);
},
{
closed = 1;
nodes = (
(141,560,ls),
(141,679,o),
(221,760,o),
(363,760,cs),
(427,760,o),
(477,750,o),
(513,731,cs),
(586,692,o),
(600,629,o),
(569,566,cs),
(556,541,o),
(549,514,o),
(549,489,cs),
(549,467,o),
(572,451,o),
(618,422,cs),
(649,403,o),
(676,384,o),
(698,366,cs),
(741,329,o),
(777,271,o),
(777,189,cs),
(777,152,o),
(769,118,o),
(752,88,cs),
(719,27,o),
(655,-10,o),
(568,-10,cs),
(500,-10,o),
(436,13,o),
(378,59,c),
(434,199,l),
(489,159,o),
(532,143,o),
(568,143,cs),
(596,143,o),
(613,165,o),
(613,192,cs),
(613,239,o),
(579,265,o),
(511,308,cs),
(486,324,o),
(467,337,o),
(452,349,cs),
(422,372,o),
(398,405,o),
(398,444,cs),
(398,480,o),
(403,514,o),
(416,546,cs),
(421,558,o),
(424,571,o),
(424,581,cs),
(424,603,o),
(407,618,o),
(363,618,cs),
(327,618,o),
(304,594,o),
(304,548,cs),
(304,0,l),
(141,0,l)
);
}
);
width = 803;
},
{
layerId = "99EE65B6-DAB1-4E31-8CA0-6E6C34D1775F";
shapes = (
{
closed = 1;
nodes = (
(40,410,l),
(40,500,l),
(156,500,l),
(156,410,l)
);
},
{
closed = 1;
nodes = (
(141,560,ls),
(141,687,o),
(217,760,o),
(355,760,cs),
(413,760,o),
(459,750,o),
(493,731,cs),
(562,692,o),
(575,628,o),
(535,565,cs),
(519,539,o),
(510,513,o),
(510,490,cs),
(510,453,o),
(540,430,o),
(601,391,cs),
(631,371,o),
(656,353,o),
(676,337,cs),
(714,306,o),
(746,256,o),
(746,191,cs),
(746,152,o),
(737,117,o),
(720,87,cs),
(685,26,o),
(621,-10,o),
(537,-10,cs),
(452,-10,o),
(391,20,o),
(344,75,c),
(398,150,l),
(437,106,o),
(484,81,o),
(537,81,cs),
(602,81,o),
(644,126,o),
(644,192,cs),
(644,245,o),
(608,275,o),
(535,322,cs),
(508,340,o),
(487,355,o),
(471,368,cs),
(440,394,o),
(414,431,o),
(414,475,cs),
(414,509,o),
(425,545,o),
(450,585,cs),
(460,601,o),
(463,615,o),
(458,628,c),
(450,655,o),
(413,673,o),
(355,673,cs),
(283,673,o),
(242,632,o),
(242,556,cs),
(242,0,l),
(141,0,l)
);
}
);
width = 787;
},
{
layerId = "754F3D2A-C810-4C1B-8FE5-1769993D30C0";
shapes = (
{
closed = 1;
nodes = (
(40,447,l),
(40,500,l),
(156,500,l),
(156,447,l)
);
},
{
closed = 1;
nodes = (
(141,560,ls),
(141,692,o),
(215,760,o),
(350,760,cs),
(405,760,o),
(448,750,o),
(481,731,cs),
(547,692,o),
(560,627,o),
(515,564,cs),
(496,537,o),
(487,513,o),
(487,491,cs),
(487,445,o),
(521,417,o),
(590,372,cs),
(620,352,o),
(644,335,o),
(662,320,cs),
(697,292,o),
(727,247,o),
(727,192,cs),
(727,152,o),
(718,117,o),
(701,86,c),
(665,25,o),
(600,-10,o),
(518,-10,cs),
(423,-10,o),
(364,24,o),
(324,84,c),
(376,120,l),
(405,74,o),
(455,43,o),
(518,43,cs),
(605,43,o),
(663,103,o),
(663,192,cs),
(663,249,o),
(626,281,o),
(550,331,cs),
(521,350,o),
(499,366,o),
(483,380,cs),
(450,407,o),
(423,446,o),
(423,494,cs),
(423,527,o),
(438,564,o),
(471,608,c),
(483,626,o),
(486,641,o),
(479,656,cs),
(465,686,o),
(416,706,o),
(350,706,cs),
(257,706,o),
(204,655,o),
(204,561,cs),
(204,0,l),
(141,0,l)
);
}
);
width = 778;
}
);
unicode = 223;
},
{
glyphname = f_joint;
layers = (
{
layerId = "DC3AF673-8462-4C12-8448-8A8C8FBD5668";
shapes = (
{
closed = 1;
nodes = (
(8,500,l),
(427,500,l),
(427,358,l),
(8,358,l)
);
},
{
closed = 1;
nodes = (
(108,533,ls),
(108,669,o),
(184,740,o),
(327,740,cs),
(368,740,o),
(407,731,o),
(446,713,cs),
(485,695,o),
(514,673,o),
(533,646,c),
(468,549,l),
(430,582,o),
(393,598,o),
(350,598,cs),
(298,598,o),
(272,573,o),
(272,522,cs),
(272,0,l),
(108,0,l)
);
}
);
width = 350;
},
{
layerId = "99EE65B6-DAB1-4E31-8CA0-6E6C34D1775F";
shapes = (
{
closed = 1;
nodes = (
(16,500,l),
(396,500,l),
(396,413,l),
(16,413,l)
);
},
{
closed = 1;
nodes = (
(116,564,ls),
(116,679,o),
(180,740,o),
(296,740,cs),
(334,740,o),
(369,733,o),
(400,719,cs),
(431,704,o),
(455,688,o),
(471,669,c),
(429,610,l),
(398,635,o),
(352,653,o),
(303,653,cs),
(248,653,o),
(217,621,o),
(217,561,cs),
(217,0,l),
(116,0,l)
);
}
);
width = 303;
},
{
layerId = "754F3D2A-C810-4C1B-8FE5-1769993D30C0";
shapes = (
{
closed = 1;
nodes = (
(21,500,l),
(377,500,l),
(377,446,l),
(21,446,l)
);
},
{
closed = 1;
nodes = (
(121,583,ls),
(121,685,o),
(177,740,o),
(277,740,cs),
(313,740,o),
(346,734,o),
(372,723,c),
(398,710,o),
(419,697,o),
(433,682,c),
(406,647,l),
(379,667,o),
(328,686,o),
(275,686,cs),
(218,686,o),
(184,650,o),
(184,584,cs),
(184,0,l),
(121,0,l)
);
}
);
width = 275;
}
);
leftKerningGroup = f2;
},
{
glyphname = fi;
layers = (
{
layerId = "DC3AF673-8462-4C12-8448-8A8C8FBD5668";
shapes = (
{
closed = 1;
nodes = (
(8,500,l),
(485,500,l),
(485,358,l),
(8,358,l)
);
},
{
closed = 1;
nodes = (
(465,500,l),
(628,500,l),
(628,0,l),
(465,0,l)
);
},
{
closed = 1;
nodes = (
(108,530,ls),
(108,685,o),
(203,760,o),
(372,760,cs),
(480,760,o),
(557,728,o),
(629,678,c),
(569,555,l),
(508,597,o),
(461,618,o),
(395,618,cs),
(316,618,o),
(272,590,o),
(272,518,cs),
(272,0,l),
(108,0,l)
);
}
);
width = 679;
},
{
layerId = "99EE65B6-DAB1-4E31-8CA0-6E6C34D1775F";
shapes = (
{
closed = 1;
nodes = (
(16,500,l),
(462,500,l),
(462,413,l),
(16,413,l)
);
},
{
closed = 1;
nodes = (
(442,500,l),
(542,500,l),
(542,0,l),
(442,0,l)
);
},
{
closed = 1;
nodes = (
(116,577,ls),
(116,698,o),
(186,760,o),
(317,760,cs),
(406,760,o),
(480,733,o),
(536,693,c),
(495,616,l),
(444,652,o),
(387,673,o),
(325,673,cs),
(255,673,o),
(217,642,o),
(217,573,cs),
(217,0,l),
(116,0,l)
);
}
);
width = 607;
},
{
layerId = "754F3D2A-C810-4C1B-8FE5-1769993D30C0";
shapes = (
{
closed = 1;
nodes = (
(21,500,l),
(448,500,l),
(448,446,l),
(21,446,l)
);
},
{
closed = 1;
nodes = (
(428,500,l),
(491,500,l),
(491,0,l),
(428,0,l)
);
},
{
closed = 1;
nodes = (
(121,605,ls),
(121,706,o),
(176,760,o),
(284,760,cs),
(361,760,o),
(433,736,o),
(480,702,c),
(451,653,l),
(405,685,o),
(342,706,o),
(283,706,cs),
(219,706,o),
(184,673,o),
(184,606,cs),
(184,0,l),
(121,0,l)
);
}
);
width = 564;
}
);
leftKerningGroup = f2;
rightKerningGroup = i;
unicode = 64257;
},
{
glyphname = fl;
layers = (
{
layerId = "DC3AF673-8462-4C12-8448-8A8C8FBD5668";
shapes = (
{
closed = 1;
nodes = (
(648,760,l),
(648,0,l),
(485,0,l),
(485,613,l),
(528,760,l)
);
},
{
closed = 1;
nodes = (
(8,500,l),
(390,500,l),
(390,358,l),
(8,358,l)
);
},
{
closed = 1;
nodes = (
(108,553,ls),
(108,687,o),
(191,760,o),
(327,760,cs),
(377,760,o),
(422,749,o),
(461,728,cs),
(500,707,o),
(529,681,o),
(550,650,c),
(485,552,l),
(451,592,o),
(395,618,o),
(350,618,cs),
(298,618,o),
(272,593,o),
(272,542,cs),
(272,0,l),
(108,0,l)
);
}
);
width = 709;
},
{
layerId = "99EE65B6-DAB1-4E31-8CA0-6E6C34D1775F";
shapes = (
{
closed = 1;
nodes = (
(562,760,l),
(562,0,l),
(462,0,l),
(462,644,l),
(489,760,l)
);
},
{
closed = 1;
nodes = (
(16,500,l),
(343,500,l),
(343,413,l),
(16,413,l)
);
},
{
closed = 1;
nodes = (
(116,584,ls),
(116,698,o),
(182,760,o),
(296,760,cs),
(339,760,o),
(380,749,o),
(417,728,cs),
(455,707,o),
(483,681,o),
(503,650,c),
(462,591,l),
(415,644,o),
(356,673,o),
(303,673,cs),
(248,673,o),
(217,641,o),
(217,581,cs),
(217,0,l),
(116,0,l)
);
}
);
width = 640;
},
{
layerId = "754F3D2A-C810-4C1B-8FE5-1769993D30C0";
shapes = (
{
closed = 1;
nodes = (
(511,760,l),
(511,0,l),
(448,0,l),
(448,663,l),
(466,760,l)
);
},
{
closed = 1;
nodes = (
(21,500,l),
(315,500,l),
(315,446,l),
(21,446,l)
);
},
{
closed = 1;
nodes = (
(121,603,ls),
(121,705,o),
(176,760,o),
(277,760,cs),
(316,760,o),
(355,749,o),
(391,728,cs),
(428,707,o),
(456,681,o),
(475,650,c),
(448,614,l),
(394,675,o),
(333,706,o),
(275,706,cs),
(218,706,o),
(184,670,o),
(184,604,cs),
(184,0,l),
(121,0,l)
);
}
);
width = 598;
}
);
leftKerningGroup = f2;
rightKerningGroup = l;
unicode = 64258;
},
{
glyphname = uni0394;
layers = (
{
layerId = "DC3AF673-8462-4C12-8448-8A8C8FBD5668";
shapes = (
{
closed = 1;
nodes = (
(80,0,l),
(455,760,l),
(488,760,l),
(859,0,l)
);
},
{
closed = 1;
nodes = (
(596,165,l),
(471,436,l),
(344,165,l)
);
}
);
width = 939;
},
{
layerId = "99EE65B6-DAB1-4E31-8CA0-6E6C34D1775F";
shapes = (
{
closed = 1;
nodes = (
(80,0,l),
(455,760,l),
(488,760,l),
(859,0,l)
);
},
{
closed = 1;
nodes = (
(705,95,l),
(471,585,l),
(235,95,l)
);
}
);
width = 939;
},
{
layerId = "754F3D2A-C810-4C1B-8FE5-1769993D30C0";
shapes = (
{
closed = 1;
nodes = (
(80,0,l),
(455,760,l),
(488,760,l),
(859,0,l)
);
},
{
closed = 1;
nodes = (
(771,53,l),
(471,674,l),
(169,53,l)
);
}
);
width = 939;
}
);
leftKerningGroup = A;
rightKerningGroup = A2;
unicode = 916;
},
{
glyphname = uni03A9;
layers = (
{
layerId = "DC3AF673-8462-4C12-8448-8A8C8FBD5668";
shapes = (
{
closed = 1;
nodes = (
(920,165,l),
(920,0,l),
(608,0,l),
(563,115,l),
(589,135,o),
(610,155,o),
(628,179,cs),
(664,224,o),
(685,281,o),
(685,349,cs),
(685,388,o),
(678,423,o),
(663,452,cs),
(633,512,o),
(575,545,o),
(502,545,cs),
(465,545,o),
(433,537,o),
(405,521,cs),
(348,489,o),
(316,426,o),
(316,349,cs),
(316,315,o),
(322,284,o),
(331,255,c),
(352,198,o),
(389,153,o),
(440,115,c),
(395,0,l),
(80,0,l),
(80,165,l),
(263,165,l),
(186,221,o),
(140,297,o),
(140,384,cs),
(140,445,o),
(155,499,o),
(186,547,cs),
(246,643,o),
(359,698,o),
(502,698,cs),
(573,698,o),
(635,685,o),
(690,658,cs),
(798,606,o),
(860,507,o),
(860,384,cs),
(860,297,o),
(813,220,o),
(738,165,c)
);
}
);
width = 1000;
},
{
layerId = "99EE65B6-DAB1-4E31-8CA0-6E6C34D1775F";
shapes = (
{
closed = 1;
nodes = (
(920,95,l),
(920,0,l),
(585,0,l),
(563,68,l),
(603,94,o),
(638,121,o),
(666,152,cs),
(722,211,o),
(756,281,o),
(756,365,cs),
(756,412,o),
(745,453,o),
(724,490,cs),
(682,564,o),
(602,608,o),
(502,608,cs),
(452,608,o),
(407,597,o),
(368,577,cs),
(291,535,o),
(246,457,o),
(246,365,cs),
(246,323,o),
(254,285,o),
(269,249,c),
(301,178,o),
(360,119,o),
(440,68,c),
(419,0,l),
(80,0,l),
(80,95,l),
(302,95,l),
(197,167,o),
(140,258,o),
(140,376,cs),
(140,438,o),
(155,493,o),
(186,543,cs),
(246,641,o),
(359,698,o),
(502,698,cs),
(573,698,o),
(635,684,o),
(689,657,cs),
(797,602,o),
(860,500,o),
(860,376,cs),
(860,258,o),
(802,167,o),
(699,95,c)
);
}
);
width = 1000;
},
{
layerId = "754F3D2A-C810-4C1B-8FE5-1769993D30C0";
shapes = (
{
closed = 1;
nodes = (
(920,53,l),
(920,0,l),
(571,0,l),
(563,40,l),
(612,70,o),
(654,101,o),
(688,135,cs),
(757,203,o),
(798,281,o),
(798,374,cs),
(798,426,o),
(785,471,o),
(761,513,c),
(711,595,o),
(618,645,o),
(502,645,cs),
(444,645,o),
(391,633,o),
(346,610,cs),
(256,563,o),
(204,476,o),
(204,374,cs),
(204,328,o),
(213,285,o),
(232,245,cs),
(271,166,o),
(342,98,o),
(440,40,c),
(433,0,l),
(80,0,l),
(80,53,l),
(325,53,l),
(203,134,o),
(140,235,o),
(140,371,cs),
(140,433,o),
(155,489,o),
(186,540,cs),
(246,639,o),
(359,698,o),
(502,698,cs),
(573,698,o),
(635,684,o),
(689,656,cs),
(797,600,o),
(860,495,o),
(860,371,cs),
(860,235,o),
(796,135,o),
(676,53,c)
);
}
);
width = 1000;
}
);
unicode = 937;
},
{
glyphname = uni03BC;
layers = (
{
layerId = "DC3AF673-8462-4C12-8448-8A8C8FBD5668";
shapes = (
{
closed = 1;
nodes = (
(47,233,l),
(112,233,l),
(113,185,o),
(116,145,o),
(123,113,cs),
(130,82,o),
(140,47,o),
(151,9,c),
(160,-13,o),
(166,-33,o),
(170,-49,cs),
(173,-65,o),
(175,-82,o),
(175,-100,cs),
(175,-190,l),
(47,-190,l)
);
},
{
closed = 1;
nodes = (
(168,-10,o),
(126,8,o),
(95,44,cs),
(63,81,o),
(47,128,o),
(47,187,cs),
(47,500,l),
(210,500,l),
(210,222,ls),
(210,169,o),
(242,132,o),
(288,132,cs),
(339,132,o),
(373,168,o),
(373,220,c),
(415,220,l),
(415,176,o),
(407,136,o),
(391,101,cs),
(358,30,o),
(296,-10,o),
(220,-10,cs)
);
},
{
closed = 1;
nodes = (
(373,120,l),
(373,500,l),
(537,500,l),
(537,0,l),
(385,0,l)
);
}
);
width = 593;
},
{
layerId = "99EE65B6-DAB1-4E31-8CA0-6E6C34D1775F";
shapes = (
{
closed = 1;
nodes = (
(63,233,l),
(104,233,l),
(105,194,o),
(107,160,o),
(112,131,cs),
(117,103,o),
(123,71,o),
(132,38,c),
(139,8,o),
(144,-16,o),
(148,-36,cs),
(151,-55,o),
(152,-76,o),
(152,-100,cs),
(152,-190,l),
(63,-190,l)
);
},
{
closed = 1;
nodes = (
(187,-10,o),
(144,9,o),
(111,47,c),
(79,86,o),
(63,137,o),
(63,203,cs),
(63,500,l),
(163,500,l),
(163,214,ls),
(163,129,o),
(205,77,o),
(272,77,cs),
(355,77,o),
(404,131,o),
(404,220,c),
(439,220,l),
(439,174,o),
(431,133,o),
(415,99,cs),
(384,29,o),
(323,-10,o),
(244,-10,cs)
);
},
{
closed = 1;
nodes = (
(404,120,l),
(404,500,l),
(506,500,l),
(506,0,l),
(409,0,l)
);
}
);
width = 577;
},
{
layerId = "754F3D2A-C810-4C1B-8FE5-1769993D30C0";
shapes = (
{
closed = 1;
nodes = (
(72,233,l),
(99,233,l),
(100,199,o),
(102,169,o),
(106,142,cs),
(109,115,o),
(113,86,o),
(120,55,c),
(126,21,o),
(131,-6,o),
(134,-28,cs),
(137,-49,o),
(138,-72,o),
(138,-100,cs),
(138,-190,l),
(72,-190,l)
);
},
{
closed = 1;
nodes = (
(199,-10,o),
(154,10,o),
(121,49,cs),
(88,89,o),
(72,142,o),
(72,212,cs),
(72,500,l),
(135,500,l),
(135,209,ls),
(135,105,o),
(182,44,o),
(263,44,cs),
(364,44,o),
(423,109,o),
(423,220,c),
(453,220,l),
(453,172,o),
(445,131,o),
(430,97,cs),
(399,28,o),
(339,-10,o),
(258,-10,cs)
);
},
{
closed = 1;
nodes = (
(423,120,l),
(423,500,l),
(487,500,l),
(487,0,l),
(423,0,l)
);
}
);
width = 568;
}
);
leftKerningGroup = p;
unicode = 956;
},
{
glyphname = pi;
layers = (
{
layerId = "DC3AF673-8462-4C12-8448-8A8C8FBD5668";
shapes = (
{
closed = 1;
nodes = (
(327,336,l),
(327,0,l),
(152,0,l),
(152,336,l),
(80,336,l),
(80,500,l),
(687,500,l),
(687,335,l)
);
},
{
closed = 1;
nodes = (
(678,156,o),
(702,161,o),
(727,170,c),
(749,29,l),
(704,4,o),
(646,-10,o),
(590,-10,cs),
(489,-10,o),
(440,40,o),
(440,140,cs),
(440,386,l),
(615,386,l),
(615,200,ls),
(615,171,o),
(630,156,o),
(654,156,cs)
);
}
);
width = 829;
},
{
layerId = "99EE65B6-DAB1-4E31-8CA0-6E6C34D1775F";
shapes = (
{
closed = 1;
nodes = (
(296,407,l),
(296,0,l),
(191,0,l),
(191,407,l),
(80,407,l),
(80,500,l),
(703,500,l),
(703,406,l)
);
},
{
closed = 1;
nodes = (
(682,85,o),
(705,90,o),
(729,100,c),
(748,18,l),
(714,0,o),
(675,-10,o),
(637,-10,cs),
(536,-10,o),
(487,40,o),
(487,140,cs),
(487,457,l),
(592,457,l),
(592,159,ls),
(592,112,o),
(613,85,o),
(658,85,cs)
);
}
);
width = 828;
},
{
layerId = "754F3D2A-C810-4C1B-8FE5-1769993D30C0";
shapes = (
{
closed = 1;
nodes = (
(277,449,l),
(277,0,l),
(214,0,l),
(214,449,l),
(80,449,l),
(80,500,l),
(712,500,l),
(712,448,l)
);
},
{
closed = 1;
nodes = (
(684,42,o),
(707,47,o),
(730,58,c),
(747,12,l),
(720,-2,o),
(692,-10,o),
(665,-10,cs),
(564,-10,o),
(515,40,o),
(515,140,cs),
(515,499,l),
(578,499,l),
(578,135,ls),
(578,76,o),
(602,42,o),
(660,42,cs)
);
}
);
width = 827;
}
);
unicode = 960;
},
{
glyphname = fraction;
layers = (
{
layerId = "DC3AF673-8462-4C12-8448-8A8C8FBD5668";
shapes = (
{
closed = 1;
nodes = (
(473,689,l),
(-11,-92,l),
(-80,-48,l),
(404,732,l)
);
}
);
width = 393;
},
{
layerId = "99EE65B6-DAB1-4E31-8CA0-6E6C34D1775F";
shapes = (
{
closed = 1;
nodes = (
(450,696,l),
(-35,-85,l),
(-80,-56,l),
(404,724,l)
);
}
);
width = 370;
},
{
layerId = "754F3D2A-C810-4C1B-8FE5-1769993D30C0";
shapes = (
{
closed = 1;
nodes = (
(436,700,l),
(-49,-80,l),
(-80,-61,l),
(404,719,l)
);
}
);
width = 356;
}
);
leftKerningGroup = fraction;
rightKerningGroup = fraction1;
unicode = 8260;
},
{
glyphname = bracketangleleft;
layers = (
{
layerId = "DC3AF673-8462-4C12-8448-8A8C8FBD5668";
shapes = (
{
closed = 1;
nodes = (
(261,760,l),
(401,760,l),
(199,285,l),
(401,-200,l),
(261,-200,l),
(60,285,l)
);
}
);
width = 461;
},
{
layerId = "99EE65B6-DAB1-4E31-8CA0-6E6C34D1775F";
shapes = (
{
closed = 1;
nodes = (
(261,760,l),
(354,760,l),
(152,285,l),
(354,-200,l),
(261,-200,l),
(60,285,l)
);
}
);
width = 414;
},
{
layerId = "754F3D2A-C810-4C1B-8FE5-1769993D30C0";
shapes = (
{
closed = 1;
nodes = (
(261,760,l),
(326,760,l),
(124,285,l),
(326,-200,l),
(261,-200,l),
(60,285,l)
);
}
);
width = 386;
}
);
unicode = 10216;
},
{
glyphname = bracketangleright;
layers = (
{
layerId = "DC3AF673-8462-4C12-8448-8A8C8FBD5668";
shapes = (
{
closed = 1;
nodes = (
(200,-200,l),
(60,-200,l),
(262,285,l),
(60,760,l),
(200,760,l),
(401,285,l)
);
}
);
width = 461;
},
{
layerId = "99EE65B6-DAB1-4E31-8CA0-6E6C34D1775F";
shapes = (
{
closed = 1;
nodes = (
(153,-200,l),
(60,-200,l),
(262,285,l),
(60,760,l),
(153,760,l),
(354,285,l)
);
}
);
width = 414;
},
{
layerId = "754F3D2A-C810-4C1B-8FE5-1769993D30C0";
shapes = (
{
closed = 1;
nodes = (
(125,-200,l),
(60,-200,l),
(262,285,l),
(60,760,l),
(125,760,l),
(326,285,l)
);
}
);
width = 386;
}
);
unicode = 10217;
},
{
glyphname = period;
layers = (
{
layerId = "DC3AF673-8462-4C12-8448-8A8C8FBD5668";
shapes = (
{
closed = 1;
nodes = (
(211,180,o),
(250,141,o),
(250,85,cs),
(250,29,o),
(211,-10,o),
(155,-10,cs),
(99,-10,o),
(60,29,o),
(60,85,cs),
(60,141,o),
(99,180,o),
(155,180,cs)
);
}
);
width = 310;
},
{
layerId = "99EE65B6-DAB1-4E31-8CA0-6E6C34D1775F";
shapes = (
{
closed = 1;
nodes = (
(174,133,o),
(203,104,o),
(203,62,cs),
(203,20,o),
(174,-10,o),
(132,-10,cs),
(90,-10,o),
(60,20,o),
(60,62,cs),
(60,104,o),
(90,133,o),
(132,133,cs)
);
}
);
width = 263;
},
{
layerId = "754F3D2A-C810-4C1B-8FE5-1769993D30C0";
shapes = (
{
closed = 1;
nodes = (
(151,105,o),
(175,81,o),
(175,48,cs),
(175,14,o),
(151,-10,o),
(118,-10,cs),
(84,-10,o),
(60,14,o),
(60,48,cs),
(60,81,o),
(84,105,o),
(118,105,cs)
);
}
);
width = 235;
}
);
leftKerningGroup = comma2;
rightKerningGroup = comma;
unicode = 46;
},
{
glyphname = comma;
layers = (
{
layerId = "DC3AF673-8462-4C12-8448-8A8C8FBD5668";
shapes = (
{
closed = 1;
nodes = (
(220,180,o),
(263,133,o),
(263,60,cs),
(263,9,o),
(244,-42,o),
(209,-95,c),
(173,-146,o),
(129,-187,o),
(79,-217,c),
(30,-159,l),
(61,-133,o),
(88,-107,o),
(108,-81,cs),
(128,-56,o),
(141,-32,o),
(148,-10,c),
(97,-5,o),
(58,31,o),
(58,85,cs),
(58,143,o),
(98,180,o),
(158,180,cs)
);
}
);
width = 323;
},
{
layerId = "99EE65B6-DAB1-4E31-8CA0-6E6C34D1775F";
shapes = (
{
closed = 1;
nodes = (
(193,133,o),
(226,94,o),
(226,32,cs),
(226,-11,o),
(210,-55,o),
(178,-101,cs),
(146,-146,o),
(109,-181,o),
(67,-207,c),
(30,-162,l),
(60,-139,o),
(86,-114,o),
(105,-86,cs),
(124,-58,o),
(135,-33,o),
(139,-11,c),
(96,-6,o),
(68,22,o),
(68,60,cs),
(68,104,o),
(99,133,o),
(146,133,cs)
);
}
);
width = 286;
},
{
layerId = "754F3D2A-C810-4C1B-8FE5-1769993D30C0";
shapes = (
{
closed = 1;
nodes = (
(176,105,o),
(204,71,o),
(204,15,cs),
(204,-23,o),
(189,-63,o),
(160,-105,c),
(130,-146,o),
(97,-178,o),
(60,-201,c),
(30,-164,l),
(59,-143,o),
(84,-118,o),
(103,-89,cs),
(122,-59,o),
(132,-34,o),
(133,-12,c),
(95,-7,o),
(74,16,o),
(74,45,cs),
(74,81,o),
(99,105,o),
(138,105,cs)
);
}
);
width = 264;
}
);
leftKerningGroup = comma2;
rightKerningGroup = comma;
unicode = 44;
},
{
glyphname = exclamdown;
layers = (
{
layerId = "DC3AF673-8462-4C12-8448-8A8C8FBD5668";
shapes = (
{
closed = 1;
nodes = (
(253,330,l),
(273,-110,l),
(78,-110,l),
(98,330,l)
);
},
{
closed = 1;
nodes = (
(231,610,o),
(270,571,o),
(270,515,cs),
(270,459,o),
(231,420,o),
(175,420,cs),
(119,420,o),
(80,459,o),
(80,515,cs),
(80,571,o),
(119,610,o),
(175,610,cs)
);
}
);
width = 350;
},
{
layerId = "99EE65B6-DAB1-4E31-8CA0-6E6C34D1775F";
shapes = (
{
closed = 1;
nodes = (
(194,330,l),
(214,-110,l),
(89,-110,l),
(109,330,l)
);
},
{
closed = 1;
nodes = (
(194,563,o),
(223,534,o),
(223,492,cs),
(223,450,o),
(194,420,o),
(152,420,cs),
(110,420,o),
(80,450,o),
(80,492,cs),
(80,534,o),
(110,563,o),
(152,563,cs)
);
}
);
width = 303;
},
{
layerId = "754F3D2A-C810-4C1B-8FE5-1769993D30C0";
shapes = (
{
closed = 1;
nodes = (
(159,330,l),
(179,-110,l),
(96,-110,l),
(116,330,l)
);
},
{
closed = 1;
nodes = (
(171,535,o),
(195,511,o),
(195,478,cs),
(195,444,o),
(171,420,o),
(138,420,cs),
(104,420,o),
(80,444,o),
(80,478,cs),
(80,511,o),
(104,535,o),
(138,535,cs)
);
}
);
width = 275;
}
);
unicode = 161;
},
